<svg xmlns="http://www.w3.org/2000/svg"><defs><style id="style6">.cls-1{fill:#565656;fill-rule:evenodd}</style><style id="style6">.cls-1{fill:#565656;fill-rule:evenodd}</style><style id="style6">.cls-1{fill:#565656;fill-rule:evenodd}</style><style id="style6">.cls-1{fill:#565656;fill-rule:evenodd}</style></defs><symbol id="g-icon-arrow_down" viewBox="0 0 100 100"><path d="M2.004 41.792l47.152 29.621 48.148-29.621z"/></symbol><symbol id="g-icon-arrow_down1" viewBox="0 0 255 255"><path d="M0 63.75l127.5 127.5L255 63.75z"/></symbol><symbol id="g-icon-arrow_left" viewBox="0 0 100 100"><path d="M75.451 96.426c2.361-2.414 3.488-3.888 3.488-4.564 0-.75-5.06-6.049-20.34-21.299l-20.339-20.3 20.386-20.664C77.604 10.382 79.012 8.852 78.756 7.766 78.364 6.111 72.095.002 70.787.002c-.77 0-6.879 5.85-25.442 24.363-21.738 21.678-24.43 24.508-24.43 25.676 0 1.166 2.711 4.039 24.212 25.648 21.675 21.784 24.35 24.332 25.523 24.317 1.073-.014 1.95-.667 4.801-3.58z"/></symbol><symbol id="g-icon-arrow_left_bold" viewBox="0 0 100 100" preserveAspectRatio="xMidYMid"><path d="M81.393 82.954a3.96 3.96 0 0 1 0 5.581L71.21 98.836a3.863 3.863 0 0 1-5.527 0L20.15 52.796a3.971 3.971 0 0 1 0-5.591L65.683 1.164a3.863 3.863 0 0 1 5.527 0l10.183 10.3a3.96 3.96 0 0 1 0 5.582L48.803 50l32.59 32.954z" class="cls-1" id="path8" fill="#565656" fill-rule="evenodd"/></symbol><symbol id="g-icon-arrow_right" viewBox="0 0 100 100"><path d="M30.686 0l50.462 50.464L31.614 100 20.967 89.354l38.73-38.97L20 10.688z"/></symbol><symbol id="g-icon-arrow_right2" viewBox="25.892 0 47.209 100"><path d="M31.318 98.966c-.62.689-1.396 1.034-2.248 1.034s-1.628-.345-2.248-1.034c-1.24-1.379-1.24-3.621 0-5L66.356 50 26.822 6.035c-1.24-1.38-1.24-3.621 0-5s3.256-1.379 4.496 0L73.101 47.5c1.241 1.379 1.241 3.621 0 5L31.318 98.966z"/></symbol><symbol id="g-icon-arrow_right_bold" viewBox="0 0 100 100" preserveAspectRatio="xMidYMid"><path d="M20.15 82.954a3.96 3.96 0 0 0 0 5.581l10.183 10.301a3.863 3.863 0 0 0 5.527 0l45.533-46.04a3.971 3.971 0 0 0 0-5.591L35.86 1.164a3.863 3.863 0 0 0-5.527 0l-10.183 10.3a3.96 3.96 0 0 0 0 5.582L52.741 50l-32.59 32.954z" class="cls-1" id="path8" fill="#565656" fill-rule="evenodd"/></symbol><symbol id="g-icon-briefcase" viewBox="0 0 100 100"><path d="M50.5 65.3l49-14.7v36.5c0 5-4 8.9-8.9 8.9H8.9C4 96 0 92 0 87.1V50.6l49 14.7c.3.1.5.1.8.1s.5 0 .7-.1zm49-36.9v16.8l-49.7 15L0 45.2V28.4c0-5 4-8.9 8.9-8.9h21.7v-3.8c0-6.4 5.1-11.5 11.5-11.5h15.3c6.4 0 11.5 5.1 11.5 11.5v3.8h21.7c4.9 0 8.9 3.9 8.9 8.9zM63.8 15.6c0-3.6-2.8-6.4-6.4-6.4H42.1c-3.6 0-6.4 2.8-6.4 6.4v3.8h28.1v-3.8z"/></symbol><symbol id="g-icon-bronze" viewBox="0 0 100 100"><style>.g-icon-bronze-0{fill:#314675}.g-icon-bronze-1{fill:#e3c8ae}.g-icon-bronze-2{fill:#395092}.g-icon-bronze-3{fill:#c59260}</style><path class="g-icon-bronze-0" d="M36.8 21.9h25.8L85.3 0H59.5L36.8 21.9z"/><path class="g-icon-bronze-1" d="M34.9 29.4h28.3v-7.7H34.9v7.7zm32.5 4.1H30.7v-16h36.7v16z"/><path class="g-icon-bronze-2" d="M62.6 21.9H36.8L13.9 0h26l22.7 21.9z"/><path class="g-icon-bronze-3" d="M49.1 22.9c21.3 0 38.5 17.3 38.5 38.5S70.4 100 49.1 100 10.5 82.7 10.5 61.5s17.3-38.6 38.6-38.6z"/><path class="g-icon-bronze-1" d="M49.1 90.6c-16 0-29.2-13.1-29.2-29.2S33 32.3 49.1 32.3s29.2 13.1 29.2 29.2-13.2 29.1-29.2 29.1z"/><path class="g-icon-bronze-3" d="M49.1 35.2l6 18.3h19.4L58.7 65l6 18.3-15.6-11.4-15.7 11.4L39.5 65 23.7 53.5H43l6.1-18.3z"/></symbol><symbol id="g-icon-chart" viewBox="0 0 100 100"><path d="M.8 69.138h14.9v25.4H.8v-25.4zM21.6 53.538h14.9v41H21.6v-41zM42.5 37.838h14.9v56.6H42.5v-56.6zM63.3 22.238h14.9v72.3H63.3v-72.3zM84.1 6.638H99v87.9H84.1v-87.9zM51.9 6.638l-26.7 9 4.5 4.5-28.9 37.5 37.7-28.9 4.5 4.5 8.9-26.6z"/></symbol><symbol id="g-icon-circle-arrow-left" viewBox="0 0 100 100"><path d="M50 0C22.386 0 0 22.386 0 50s22.386 50 50 50 50-22.386 50-50S77.614 0 50 0zm30.848 51.469c0 1.799-1.512 3.349-3.311 3.349H37.499l12.699 12.654c.615.614.953 1.391.953 2.263 0 .874-.338 1.694-.953 2.307l-1.955 1.956a3.24 3.24 0 0 1-2.306.951 3.244 3.244 0 0 1-2.307-.951L22.104 52.472a3.232 3.232 0 0 1-.952-2.317 3.233 3.233 0 0 1 .952-2.313L43.63 26.318c.614-.614 1.434-.952 2.307-.952s1.692.34 2.306.954l1.955 1.955c.615.616.953 1.442.953 2.316s-.338 1.706-.953 2.32L37.64 45.497h39.946l-.094-.02c1.799 0 3.355 1.429 3.355 3.227v2.765z"/></symbol><symbol id="g-icon-circle-arrow-right" viewBox="0 0 100 100"><path d="M50 100c27.614 0 50-22.386 50-50S77.614 0 50 0 0 22.386 0 50s22.386 50 50 50zM19.152 48.531c0-1.799 1.512-3.349 3.311-3.349h40.039L49.803 32.528a3.139 3.139 0 0 1-.953-2.263c0-.874.338-1.694.953-2.307l1.955-1.956a3.24 3.24 0 0 1 2.306-.951c.874 0 1.692.338 2.307.951l21.525 21.525c.617.616.955 1.438.952 2.317a3.235 3.235 0 0 1-.952 2.313L56.37 73.682c-.614.614-1.434.952-2.307.952s-1.692-.34-2.306-.954l-1.955-1.955a3.26 3.26 0 0 1-.953-2.316c0-.873.338-1.706.953-2.32L62.36 54.503H22.414l.094.021c-1.799 0-3.355-1.429-3.355-3.228v-2.765z"/></symbol><symbol id="g-icon-close" viewBox="0 0 100 100"><path d="M50.636 3.446C24.7 3.446 3.673 24.473 3.673 50.409c0 25.939 21.026 46.963 46.962 46.963 25.939 0 46.963-21.023 46.963-46.963.001-25.936-21.023-46.963-46.962-46.963zm23.365 65.479l-7.781 6.98-15.944-17.771-17.748 17.695-3.65-3.661-.002-.002-.002-.002-3.727-3.738 18.138-18.083-16.311-18.182 3.914-3.512 3.866-3.469 15.944 17.772 18.031-17.977 7.381 7.402-18.421 18.366 16.312 18.182z"/></symbol><symbol id="g-icon-cup" viewBox="0 0 100 100"><style>.g-icon-cup-0{fill:#395092}.g-icon-cup-1{opacity:.34}.g-icon-cup-2{fill:#f2cf64}.g-icon-cup-3{fill:#e5b455}.g-icon-cup-4{fill:#f0c75c}.g-icon-cup-5{fill:#fff}</style><path class="g-icon-cup-0" d="M59.2 82.3H40.8l3.2-6.7 2.7-6.2h6.6l2.7 6.2 3.2 6.7z"/><path class="g-icon-cup-1" d="M56 75.6c-1.7.8-3.3 1.7-5 2.3l-1 .2-1-.4c-1.7-.6-3.3-1.5-5-2.3l2.7-6.3h6.5l2.8 6.5z"/><path class="g-icon-cup-2" d="M70.8 82.3H29.2c-2.3 0-4.2 1.9-4.2 4.2V100h49.8V86.5c.2-2.3-1.7-4.2-4-4.2z"/><path class="g-icon-cup-3" d="M91.7 20c0 10-3.5 19.2-9.6 26.5-7.7 9.1-19.2 15.2-32.1 15.2-12.9 0-24.4-5.8-32.1-15.2C12.1 39.4 8.3 30 8.3 20v-.2h83.1v.2h.3zM0 11.5V20c0 20.8 12.9 38.8 31 46.3 5.8 2.5 12.3 3.7 19 3.7 6.7 0 13.1-1.3 19-3.7 18.1-7.5 31-25.4 31-46.3v-8.5H0zM82.5 0h-65C16 0 15 1.2 15 2.5c0 1.5 1 2.7 2.5 2.7h65C84 5.2 85 4 85 2.7 85 1.2 84 0 82.5 0z"/><path class="g-icon-cup-2" d="M82.5 5.2v22.5C82.5 48.5 69.6 67.5 50 75c-19.6-7.7-32.5-26.5-32.5-47.5V5.2h65z"/><path class="g-icon-cup-4" d="M17.5 5.2h64.8v3.1H17.5V5.2z"/><path class="g-icon-cup-5" d="M49.9 16.6l4.6 14.2h14.8l-11.9 8.8 4.4 14.1-11.9-8.8L38 53.7l4.4-14.1-11.9-8.8h14.8l4.6-14.2z"/></symbol><symbol id="g-icon-disability" viewBox="0 0 100 100"><path d="M54.56 78.706c-1.252 6.831-7.002 12.23-14.246 12.741-8.578.603-16.047-5.884-16.65-14.46-.407-5.776 2.407-11.047 6.906-14.062l-1.283-8.581c-8.692 4.021-14.45 13.11-13.739 23.215.918 13.053 12.286 22.927 25.339 22.011 8.745-.618 16.056-5.927 19.655-13.286l-5.982-7.578z"/><circle cx="33.633" cy="10.42" r="10.144"/><path d="M25.722 19.249l13.897 8.804L48.43 55.84h9.122l28.972 44.487H72.378L50.726 67.32H36.455z"/></symbol><symbol id="g-icon-double_arrow" viewBox="0 0 100 100"><path d="M91.603.601l7.967 7.968-41.431 41.432L99.57 91.432 91.603 99.4 42.202 50.001z"/><path d="M49.543.601l7.969 7.968L16.08 50.001l41.432 41.431-7.969 7.968L.144 50.001z"/></symbol><symbol id="g-icon-download" viewBox="0 0 99.999998 99.999998"><path d="M84.804 63.73v22.843H14.93V63.73H1.5v29.558A6.713 6.713 0 0 0 8.225 100h83.284a6.713 6.713 0 0 0 6.725-6.712V63.73h-13.43zM48.638 61.465L29.41 38.231s-2.925-2.762.247-2.762h10.835v-4.723V1.648S40.062 0 42.543 0h15.252c1.788 0 1.748 1.388 1.748 1.388v33.384h10c3.85 0 .95 2.892.95 2.892S54.136 59.38 51.854 61.66c-1.64 1.65-3.215-.194-3.215-.194z"/></symbol><symbol id="g-icon-envelope_square" viewBox="0 0 100 100"><path d="M81.25 0q7.747 0 13.249 5.501Q100 11.003 100 18.75v62.5q0 7.747-5.501 13.249Q88.997 100 81.25 100h-62.5q-7.747 0-13.249-5.501Q0 88.997 0 81.25v-62.5q0-7.747 5.501-13.249Q11.003 0 18.75 0h62.5zm2.083 68.75V40.365q-2.018 2.278-4.166 3.58-2.214 1.433-8.627 5.534-6.412 4.102-9.863 6.445-6.38 4.493-10.677 4.493t-10.677-4.493q-2.995-2.083-9.212-6.022-6.218-3.938-9.278-6.022-.78-.52-2.148-1.758-1.367-1.237-2.018-1.757V68.75q0 2.604 1.823 4.427Q20.313 75 22.917 75h54.166q2.605 0 4.427-1.823 1.823-1.823 1.823-4.427zm0-37.305q0-2.669-1.79-4.557Q79.753 25 77.083 25H22.917q-2.605 0-4.427 1.823-1.823 1.823-1.823 4.427 0 2.409 1.985 4.98 1.986 2.572 4.395 4.2 3.06 2.083 8.952 5.794 5.892 3.71 8.43 5.404.196.13 1.107.748.912.619 1.368.912.455.293 1.367.846.911.554 1.53.846.618.293 1.4.619.78.325 1.464.488.684.163 1.335.163.651 0 1.335-.163.683-.163 1.464-.488.782-.326 1.4-.619.619-.292 1.53-.846.912-.553 1.367-.846.456-.293 1.368-.912.911-.618 1.106-.748l17.383-11.329q2.279-1.497 4.33-4.069 2.05-2.571 2.05-4.785z"/></symbol><symbol id="g-icon-facebook-circle" viewBox="14.663 9.163 100 100"><path d="M64.663 9.163c-27.569 0-50 22.431-50 50 0 27.568 22.431 50 50 50 27.568 0 50-22.432 50-50 0-27.569-22.428-50-50-50zm12.434 51.761h-8.135v28.994H56.91V60.924h-5.731V50.676h5.731v-6.627c0-4.748 2.256-12.165 12.164-12.165l8.932.033v9.948h-6.482c-1.057 0-2.557.527-2.557 2.791v6.021h9.185l-1.055 10.247z"/></symbol><symbol id="g-icon-facebook_square" viewBox="0 0 100 100"><path d="M81.25 0q7.747 0 13.249 5.501Q100 11.003 100 18.75v62.5q0 7.747-5.501 13.249Q88.997 100 81.25 100H69.01V61.263h12.956l1.953-15.104H69.01v-9.636q0-3.645 1.53-5.468t5.957-1.823l7.943-.065V15.69q-4.101-.586-11.588-.586-8.855 0-14.16 5.209-5.307 5.208-5.307 14.713v11.133h-13.02v15.104h13.02V100H18.75q-7.747 0-13.249-5.501Q0 88.997 0 81.25v-62.5q0-7.747 5.501-13.249Q11.003 0 18.75 0h62.5z"/></symbol><symbol id="g-icon-file" viewBox="0 0 100 100"><path d="M65.9 2.5v22.3H88z"/><path d="M61.8 28.9V.3H12.1v99.3h77.8V28.9H61.8zM31.3 86.5l-8.2-8.3 2.9-2.9 5.4 5.4 12.2-12.2 2.9 2.9-15.2 15.1zm0-26.5L23 51.7l2.9-2.9 5.4 5.4L43.5 42l2.9 2.9L31.3 60zm46.8 22.1H50V78h28.1v4.1zm0-26.7H50v-4.1h28.1v4.1z"/></symbol><symbol id="g-icon-folder_open" viewBox="0 0 100 100"><path d="M100 57.573q0 1.65-1.65 3.512L80.468 82.16q-2.288 2.715-6.413 4.604-4.124 1.89-7.637 1.89H8.515q-1.81 0-3.22-.693-1.41-.692-1.41-2.288 0-1.65 1.65-3.513l17.882-21.075q2.288-2.714 6.413-4.603 4.124-1.89 7.637-1.89H95.37q1.81 0 3.22.692 1.41.692 1.41 2.289zM81.746 39.265v8.515h-44.28q-5.002 0-10.484 2.528-5.481 2.528-8.728 6.36L.32 77.743l-.266.32q0-.213-.026-.666Q0 76.945 0 76.732V25.64q0-4.896 3.513-8.409 3.512-3.512 8.408-3.512h17.03q4.897 0 8.41 3.512 3.512 3.513 3.512 8.409v1.703h28.951q4.897 0 8.41 3.512 3.512 3.513 3.512 8.41z"/></symbol><symbol id="g-icon-gold" viewBox="0 0 100 100"><style>.g-icon-gold-0{fill:#314675}.g-icon-gold-1{fill:#e5b455}.g-icon-gold-2{fill:#395092}.g-icon-gold-3{fill:#f2cf64}</style><path class="g-icon-gold-0" d="M37.3 21.9h25.8L85.8 0H60L37.3 21.9z"/><path class="g-icon-gold-1" d="M35.4 29.4h28.3v-7.7H35.4v7.7zm32.5 4.1H31.2v-16h36.7v16z"/><path class="g-icon-gold-2" d="M63.1 21.9H37.3L14.4 0h26l22.7 21.9z"/><path class="g-icon-gold-3" d="M49.6 22.9c21.3 0 38.5 17.3 38.5 38.5S70.9 100 49.6 100 11 82.7 11 61.5s17.3-38.6 38.6-38.6z"/><path class="g-icon-gold-1" d="M49.6 90.6c-16 0-29.2-13.1-29.2-29.2s13.1-29.2 29.2-29.2 29.2 13.1 29.2 29.2-13.2 29.2-29.2 29.2z"/><path class="g-icon-gold-3" d="M49.6 35.2l6 18.3H75L59.2 65l6 18.3-15.6-11.4-15.7 11.4L40 65 24.2 53.5h19.3l6.1-18.3z"/></symbol><symbol id="g-icon-instagram_square" viewBox="0 0 99.999999 99.999999"><path d="M80.674.002H19.326C8.67.002 0 8.67 0 19.326V80.676C0 91.332 8.67 100 19.326 100h61.35C91.332 100 100 91.332 100 80.676V19.324C99.998 8.667 91.33.002 80.674.002zm5.543 11.524l2.21-.008v16.95l-16.892.054-.059-16.948 14.741-.048zm-50.49 28.211c3.203-4.432 8.4-7.338 14.273-7.338 5.874 0 11.07 2.906 14.269 7.338 2.084 2.892 3.332 6.43 3.332 10.263 0 9.704-7.903 17.6-17.603 17.6-9.706 0-17.601-7.896-17.601-17.6a17.515 17.515 0 0 1 3.33-10.263zm54.528 40.937c0 5.287-4.298 9.581-9.58 9.581h-61.35c-5.284 0-9.582-4.294-9.582-9.58V39.736h14.926A27.197 27.197 0 0 0 22.656 50c0 15.074 12.264 27.346 27.344 27.346 15.078 0 27.342-12.272 27.342-27.346a27.2 27.2 0 0 0-2.017-10.263h14.93v40.937z"/></symbol><symbol id="g-icon-left_arrow" viewBox="-1.159 -2.001 100 100"><path d="M93.841 41.805h-77.93l26.82-33.23c1.953-2.42 1.953-6.342.001-8.761-1.953-2.42-5.12-2.42-7.072 0L.306 43.619c-.232.288-.44.606-.623.945-.083.156-.142.325-.213.488-.084.192-.178.375-.245.577-.07.209-.11.428-.161.645-.04.172-.094.336-.123.513-.065.4-.1.806-.1 1.213l.001.012c0 .4.034.805.098 1.199.03.187.086.358.13.54.049.206.087.414.154.614.072.216.169.41.26.614.067.15.12.307.198.452.184.343.393.66.626.95l35.353 43.805c1.952 2.417 5.118 2.417 7.071 0 1.953-2.42 1.953-6.344 0-8.762l-26.82-33.23h77.929c2.762 0 5-2.772 5-6.194s-2.238-6.195-5-6.195z"/></symbol><symbol id="g-icon-lens" viewBox="0 0 100 100"><path d="M93.245 89.75L69.598 66.898c.69-.935 3.186-4.162 3.52-4.624l.043-.058c.273-.361.54-.722.794-1.092l.025-.031c9.544-13.72 7.433-33.127-5.197-45.751C61.728 8.284 52.349 4.399 42.372 4.399S23.017 8.284 15.958 15.34C8.904 22.394 5.019 31.776 5.019 41.756c0 9.976 3.882 19.36 10.939 26.412 7.037 7.037 16.395 10.912 26.348 10.912a37.632 37.632 0 0 0 17.234-4.197c.597-.335 3.996-2.443 5.417-3.594l23.625 23.79c.147.147.947.89 2.109.89.511 0 1.938-1.527 2.651-2.236 1.385-1.387.713-3.125-.097-3.983zM42.2 10.478c15.036 0 31.792 13.344 31.247 31.245-.536 17.553-16.211 31.248-31.247 31.248-15.038 0-30.925-13.361-31.249-31.249C10.62 23.487 27.162 10.478 42.2 10.478z"/></symbol><symbol id="g-icon-lens_2" viewBox="0 0 100 100" preserveAspectRatio="xMidYMid"><path d="M69.235 42.313c0 14.84-12.082 26.922-26.922 26.922-14.848 0-26.922-12.082-26.922-26.922s12.074-26.922 26.922-26.922c14.84 0 26.922 12.082 26.922 26.922zm30.765 50a7.771 7.771 0 0 0-2.223-5.412L77.163 66.287c4.87-7.032 7.454-15.442 7.454-23.974 0-23.38-18.933-42.304-42.304-42.304C18.933.009 0 18.933 0 42.313c0 23.38 18.933 42.304 42.313 42.304 8.532 0 16.942-2.585 23.974-7.454l20.614 20.553C88.28 99.164 90.262 100 92.304 100c4.214 0 7.696-3.482 7.696-7.687z" class="cls-1" id="path8" fill-rule="evenodd"/></symbol><symbol id="g-icon-less" viewBox="-8.5 -8.5 100 100"><path d="M90.091 38.166H-5.09c-1.33 0-2.41.896-2.41 2v6.668c0 1.104 1.08 2 2.41 2h95.181c1.329 0 2.409-.896 2.409-2v-6.668c0-1.103-1.08-2-2.409-2z"/></symbol><symbol id="g-icon-linkedin-circle" viewBox="11.25 3.02 100 100"><title/><path d="M61.165 103.02c27.614 0 50-22.385 50-50 0-27.613-22.386-50-50-50-27.613 0-50 22.386-50 50 0 27.615 22.387 50 50 50z"/><path fill="#FFF" d="M47.638 76.059V45.561h-9.427v30.498h9.427zm0-41.309c-.057-2.729-1.877-4.807-4.831-4.807-2.956 0-4.888 2.079-4.888 4.807 0 2.67 1.875 4.809 4.774 4.809h.056c3.012 0 4.889-2.139 4.889-4.809zm15.376 41.309V58.682c0-.928.068-1.859.342-2.521.749-1.861 2.45-3.783 5.307-3.783 3.743 0 6.09 2.125 6.09 6.305V76.06h9.489V58.217c0-9.557-5.101-14.004-11.906-14.004-5.581 0-8.028 3.119-9.39 5.242l.068-4.078H53.54c.137 2.919 0 30.682 0 30.682h9.474z"/></symbol><symbol id="g-icon-linkedin_square" viewBox="205 205 100 100"><path d="M295 205h-80c-5.5 0-10 4.5-10 10v80c0 5.5 4.5 10 10 10h80c5.5 0 10-4.5 10-10v-80c0-5.5-4.5-10-10-10zm-60 85h-15v-45h15v45zm-7.5-53.5c-5 0-9-4-9-9s4-9 9-9 9 4 9 9-4 9-9 9zM290 290h-15v-26.5c0-4-3.5-7.5-7.5-7.5s-7.5 3.5-7.5 7.5V290h-15v-45h15v6c2.5-4 8-7 12.5-7 9.5 0 17.5 8 17.5 17.5V290z"/></symbol><symbol id="g-icon-map_marker" viewBox="0 0 99.999997 99.999997"><path d="M83.263 24.889c-.356-1.334-1.08-2.756-1.614-4C75.25 5.51 61.269 0 49.979 0 34.868 0 18.223 10.134 16 31.021v4.268c0 .178.061 1.778.149 2.578 1.245 9.955 9.1 20.534 14.967 30.489C37.427 79.02 43.976 89.513 50.464 100c4.001-6.844 7.988-13.778 11.897-20.444 1.066-1.957 2.303-3.912 3.37-5.78.71-1.243 2.069-2.486 2.69-3.643 6.31-11.555 16.469-23.2 16.469-34.666v-4.711c0-1.243-1.54-5.599-1.627-5.867zM50.256 46.312c-4.442 0-9.304-2.221-11.705-8.356-.357-.976-.328-2.933-.328-3.113v-2.755c0-7.82 6.64-11.377 12.416-11.377 7.112 0 12.612 5.69 12.612 12.802 0 7.111-5.883 12.799-12.995 12.799z"/></symbol><symbol id="g-icon-menu" viewBox="0 0 100 100"><path d="M10.879 23.188c-4.434 0-7.759-3.325-7.759-7.758s3.325-7.98 7.759-7.98h78.249c4.433 0 7.979 3.547 7.979 7.98s-3.547 7.758-7.979 7.758H10.879zM89.128 42.473c4.433 0 7.979 3.547 7.979 7.98s-3.547 7.758-7.979 7.758H10.879c-4.434 0-7.759-3.324-7.759-7.758s3.325-7.98 7.759-7.98h78.249zM89.128 77.718c4.433 0 7.979 3.325 7.979 7.76a7.946 7.946 0 0 1-7.979 7.979H10.879c-4.434 0-7.759-3.547-7.759-7.979 0-4.435 3.325-7.76 7.759-7.76h78.249z"/></symbol><symbol id="g-icon-more" viewBox="-15 -15 100 100"><path d="M85 28.056H41.944V-15H28.056v43.056H-15v13.888h43.056V85h13.888V41.944H85z"/></symbol><symbol id="g-icon-mouse" viewBox="0 0 100 100"><path d="M66.556 52.418c-.009 7.619-6.186 13.792-13.804 13.799h-4.388c-7.619-.007-13.794-6.18-13.803-13.799v-36.28c.019-7.612 6.191-13.775 13.803-13.782h4.388c7.618.007 13.795 6.181 13.804 13.799v36.279-.016zM52.752 0h-4.388c-8.919.01-16.147 7.236-16.159 16.155v36.279c.009 8.922 7.238 16.15 16.159 16.159h4.388c8.928-.009 16.159-7.249 16.159-16.176v-36.28C68.892 7.226 61.664.009 52.752 0z"/><path d="M50.559 8.844a2.065 2.065 0 0 0-2.066 2.066v7.546a2.066 2.066 0 0 0 4.132 0v-7.534a2.068 2.068 0 0 0-2.055-2.079l-.011.001zM50.478 71.821a1.179 1.179 0 0 0-1.2 1.157v.021l-.085 21.984-6.932-8.963a1.179 1.179 0 1 0-1.865 1.442l9.151 11.844c.228.288.576.454.943.448.355.004.693-.151.922-.427l9.275-11.72a1.182 1.182 0 0 0-.192-1.657 1.181 1.181 0 0 0-1.657.192l-7.273 9.186.087-22.322a1.18 1.18 0 0 0-1.174-1.183v-.002z"/></symbol><symbol id="g-icon-notes" viewBox="0 0 100 100"><path d="M65.908 71.885a5.993 5.993 0 0 1 5.994-5.994h25.972V7.993a5.99 5.99 0 0 0-5.989-5.989H7.997a5.987 5.987 0 0 0-5.989 5.989v83.855a5.988 5.988 0 0 0 5.989 5.985H65.89V71.885h.018zm7.986 1.991v23.749a17.137 17.137 0 0 0 8.241-4.057L93.613 82.09a17.146 17.146 0 0 0 4.057-8.241H73.894v.027z"/></symbol><symbol id="g-icon-person" viewBox="0 0 100 100"><path d="M88.687 70.77c-1.755-1.695-22.082-7.594-24.041-8.6-4.093-2.047-4.423-7.271-2.438-10.652.835-1.184 3.027-3.178 4.986-9.405.734.2 1.4.268 1.832-.356 1.047-1.512 3.88-8.262 2.637-12.017-.594-1.803-1.641-2.232-2.335-2.302.722-5.875.681-6.878-.129-10.922C67.4 7.524 58.498 3.43 50.988 3.43c-7.509 0-16.411 4.094-18.209 13.084-.809 4.044-.849 5.048-.128 10.922-.695.07-1.741.499-2.336 2.302-1.251 3.791 1.583 10.494 2.638 12.017.432.624 1.097.557 1.832.356 1.927 6.127 4.007 8.264 4.943 9.361 1.907 3.676 1.71 8.645-2.396 10.695-1.959 1.008-22.287 6.904-24.042 8.6-4.186 4.045-5.19 12.354-5.136 16.182.028 1.924 10.952 11.216 42.834 11.216 31.883 0 42.807-9.292 42.835-11.216.054-3.828-.95-12.136-5.136-16.179zM50.988 96.165c-28.908 0-39.544-7.679-40.837-9.552.002-4.146 1.185-11.178 4.529-14.406 1.947-1.43 21.578-7.238 23.566-8.26 3.618-1.809 5.055-5.506 4.535-9.355.177.15-.531-2.967-1.619-4.494-2.035-2.855-3.701-6.311-4.842-9.786a.705.705 0 0 0-.854-.459l-1.145.312c-1.09-1.974-2.956-7.232-2.108-9.8.182-.55.432-.918.637-.939l1.302-.13a.72.72 0 0 0 .643-.805c-.837-6.839-.886-7.425-.055-11.584C36.318 9.021 44.27 5.43 50.988 5.43s14.671 3.591 16.248 11.476c.83 4.154.784 4.741-.055 11.584a.722.722 0 0 0 .644.805l1.302.13c.205.021.455.389.635.938.851 2.568-1.017 7.827-2.105 9.801l-1.145-.312a.705.705 0 0 0-.854.46C64.496 43.846 63.063 47.105 61 50c-.719 1.008-1.583 2.875-1.902 4.678-.434 3.719 1.074 7.492 4.652 9.279 1.998 1.027 21.57 6.793 23.608 8.307 3.28 3.174 4.464 10.201 4.466 14.352-1.293 1.87-11.928 9.549-40.836 9.549z"/></symbol><symbol id="g-icon-pinterest_square" viewBox="0 0 99.999998 99.999998"><path d="M94.492 5.502c-3.665-3.667-8.082-5.5-13.246-5.5V0H18.749C13.585 0 9.168 1.834 5.5 5.501 1.834 9.168 0 13.585 0 18.749v62.498c0 5.164 1.834 9.581 5.5 13.247 3.668 3.668 8.085 5.501 13.249 5.501h11.914c-.738-6.681-.587-12.194.455-16.534l6.38-26.951c-1.042-2.128-1.563-4.753-1.563-7.877 0-3.602.922-6.63 2.768-9.081 1.843-2.453 4.09-3.68 6.737-3.68 2.126 0 3.765.706 4.915 2.116 1.15 1.411 1.725 3.18 1.725 5.306 0 1.345-.239 2.962-.716 4.85-.478 1.889-1.117 4.102-1.92 6.641-.803 2.539-1.378 4.545-1.725 6.02-.607 2.606-.109 4.85 1.497 6.74 1.606 1.886 3.71 2.832 6.315 2.832 4.601 0 8.366-2.56 11.296-7.683 2.93-5.12 4.394-11.327 4.394-18.617 0-5.598-1.812-10.156-5.438-13.671-3.622-3.516-8.667-5.274-15.135-5.274-7.246 0-13.117 2.312-17.61 6.933-4.492 4.623-6.738 10.19-6.738 16.7 0 3.818 1.086 7.073 3.256 9.765.737.824.976 1.736.716 2.735-.218.738-.543 2.061-.977 3.97-.174.609-.488 1.02-.944 1.238-.457.217-.966.217-1.53 0-3.342-1.388-5.871-3.777-7.585-7.162-1.714-3.384-2.571-7.291-2.571-11.717 0-2.865.466-5.742 1.4-8.627.933-2.886 2.376-5.664 4.329-8.333 1.953-2.67 4.285-5.045 6.998-7.13 2.712-2.081 6.033-3.742 9.96-4.979 3.927-1.236 8.149-1.855 12.66-1.855 4.603 0 8.877.793 12.827 2.377 3.95 1.584 7.259 3.689 9.929 6.314a29.34 29.34 0 0 1 6.28 9.05c1.52 3.406 2.28 6.933 2.28 10.578 0 9.81-2.484 17.914-7.453 24.315-4.97 6.402-11.382 9.604-19.237 9.604-2.606 0-5.046-.608-7.325-1.823-2.278-1.215-3.873-2.669-4.785-4.362-1.91 7.596-3.059 12.13-3.45 13.606-.998 3.82-3.341 8.376-7.03 13.671h47.197c5.164 0 9.58-1.834 13.247-5.501 3.667-3.668 5.501-8.084 5.501-13.249v-62.5c0-5.164-1.834-9.58-5.5-13.248z"/></symbol><symbol id="g-icon-postulate-view" viewBox="0 0 100 99.999999"><path d="M49.776 69.147l6.502-6.502-8.52-8.52-6.502 6.502v3.139h5.38v5.381h3.14zm24.663-40.359c-.597-.598-1.214-.579-1.85.056l-19.618 19.62c-.635.635-.654 1.251-.056 1.85.598.597 1.214.578 1.85-.057l19.618-19.619c.636-.635.654-1.252.056-1.85zm4.485 33.296v10.65c0 4.447-1.58 8.25-4.737 11.408-3.157 3.157-6.96 4.736-11.407 4.736H16.143c-4.446 0-8.249-1.579-11.406-4.736C1.579 80.984 0 77.182 0 72.735V26.098c0-4.447 1.579-8.25 4.737-11.407 3.157-3.158 6.96-4.737 11.406-4.737H62.78c2.355 0 4.54.467 6.559 1.402.56.261.896.69 1.009 1.289.112.635-.057 1.177-.505 1.625l-2.747 2.747c-.523.523-1.12.673-1.793.449a9.97 9.97 0 0 0-2.523-.337H16.144c-2.467 0-4.578.878-6.335 2.635-1.756 1.756-2.634 3.867-2.634 6.334v46.637c0 2.466.878 4.577 2.634 6.334 1.757 1.756 3.868 2.634 6.335 2.634H62.78c2.467 0 4.578-.878 6.334-2.634 1.757-1.757 2.635-3.868 2.635-6.334v-7.063c0-.486.168-.897.504-1.233l3.588-3.588c.56-.56 1.214-.691 1.962-.392.747.299 1.12.84 1.12 1.625zm-5.381-41.367L89.686 36.86 52.018 74.528H35.874V58.385l37.669-37.668zm24.887 7.399l-5.156 5.157L77.13 17.129l5.157-5.157c1.046-1.046 2.317-1.57 3.812-1.57 1.494 0 2.765.524 3.811 1.57l8.52 8.52c1.047 1.047 1.57 2.317 1.57 3.812 0 1.495-.523 2.765-1.57 3.812z"/></symbol><symbol id="g-icon-previous_page" viewBox="0 0 100 100" preserveAspectRatio="xMidYMid"><path d="M78.451 96.425c2.362-2.413 3.489-3.887 3.489-4.563 0-.75-5.06-6.05-20.34-21.3l-20.34-20.3 20.386-20.664C80.603 10.382 82.012 8.852 81.756 7.765 81.363 6.111 75.094.002 73.787.002c-.77 0-6.88 5.85-25.443 24.363-21.738 21.678-24.43 24.507-24.43 25.676 0 1.167 2.712 4.04 24.213 25.648 21.675 21.784 24.35 24.333 25.523 24.318 1.072-.014 1.948-.668 4.8-3.582z" id="path2989"/></symbol><symbol id="g-icon-registry" viewBox="0 0 100 100"><path d="M51.998 90.281H44.22v-7.778l35.358-35.346 7.78 7.778-35.36 35.346zM11.977 9.673h51.588v39.804l-27.6 27.604c-.097.097-.185.203-.274.304H11.977V9.673zm85.635 41.828L83 36.887a4.836 4.836 0 0 0-6.84-.012c-.003.003-.009.007-.012.012l-2.91 2.918V4.836A4.836 4.836 0 0 0 68.402 0H7.139a4.837 4.837 0 0 0-4.836 4.836v77.385a4.836 4.836 0 0 0 4.836 4.836h27.407v8.061a4.835 4.835 0 0 0 4.836 4.836h14.62a4.83 4.83 0 0 0 3.421-1.418L97.617 58.34a4.832 4.832 0 0 0-.005-6.839z"/></symbol><symbol id="g-icon-right_arrow" viewBox="-2 -2 100 100"><path d="M3 41.804h77.93L54.112 8.574c-1.953-2.419-1.953-6.342-.003-8.759 1.953-2.42 5.12-2.42 7.073 0l35.353 43.804c.232.287.439.604.623.943.082.156.141.325.215.487.082.193.178.375.244.577.07.21.11.427.16.644.042.172.096.337.124.513.065.403.099.808.099 1.216l-.001.014a7.517 7.517 0 0 1-.098 1.2c-.03.185-.087.357-.131.54-.049.206-.085.414-.153.614-.071.216-.169.411-.26.613-.068.152-.121.307-.198.452a6.045 6.045 0 0 1-.626.952L61.18 96.186c-1.951 2.419-5.118 2.419-7.071 0-1.952-2.418-1.952-6.341 0-8.762l26.82-33.23H3c-2.761 0-5-2.774-5-6.195 0-3.42 2.239-6.195 5-6.195z"/></symbol><symbol id="g-icon-search" viewBox="192.606 192.607 100 100"><path d="M289.859 276.604l-22.942-22.943a44.142 44.142 0 0 1-13.258 13.256l22.943 22.943c3.663 3.662 9.602 3.662 13.256 0 3.663-3.655 3.663-9.594.001-13.256zM267.606 230.107c0-20.708-16.791-37.5-37.5-37.5s-37.5 16.792-37.5 37.5 16.792 37.5 37.5 37.5 37.5-16.792 37.5-37.5zm-37.5 28.123c-15.509 0-28.125-12.614-28.125-28.123s12.616-28.125 28.125-28.125 28.125 12.616 28.125 28.125-12.616 28.123-28.125 28.123z"/><path d="M208.231 230.107h6.249c0-8.615 7.01-15.625 15.625-15.625v-6.25c-12.059 0-21.874 9.815-21.874 21.875z"/></symbol><symbol id="g-icon-silver" viewBox="0 0 100 100"><style>.g-icon-silver-0{fill:#314675}.g-icon-silver-1{fill:#e0dfde}.g-icon-silver-2{fill:#395092}.g-icon-silver-3{fill:#ccc}.g-icon-silver-4{fill:#e8e8e8}</style><path class="g-icon-silver-0" d="M37.2 21.8H63L85.7 0H59.9L37.2 21.8z"/><path class="g-icon-silver-1" d="M35.4 29.3h28.3v-7.7H35.4v7.7zm32.4 4.2H31.2v-16h36.6v16z"/><path class="g-icon-silver-2" d="M63 21.8H37.2L14.4 0h26L63 21.8z"/><path class="g-icon-silver-3" d="M49.5 22.9C70.8 22.9 88 40.1 88 61.4S70.8 99.8 49.5 99.8 11 82.6 11 61.4s17.3-38.5 38.5-38.5z"/><path class="g-icon-silver-4" d="M49.5 90.5c-16 0-29.1-13.1-29.1-29.1s13.1-29.1 29.1-29.1 29.1 13.1 29.1 29.1-13.1 29.1-29.1 29.1z"/><path class="g-icon-silver-3" d="M49.5 35.2l6 18.3h19.4L59.1 64.9l6 18.3-15.6-11.4-15.6 11.4 6-18.3-15.8-11.4h19.4l6-18.3z"/></symbol><symbol id="g-icon-star" viewBox="0 0 100 100"><path d="M42.081 4.468a1.861 1.861 0 1 1 3.686-.522l2.947 20.866a1.862 1.862 0 1 1-3.686.521L42.081 4.468zm49.058 7.137l-1.455 1.458a1.86 1.86 0 0 0 2.629 2.635l1.459-1.458 1.459 1.458a1.862 1.862 0 0 0 2.631-2.636l-1.457-1.458 1.457-1.458a1.863 1.863 0 0 0-2.631-2.635l-1.46 1.459-1.459-1.458a1.861 1.861 0 1 0-2.629 2.636l1.456 1.457zm-54 24.208a1.863 1.863 0 0 0 2.955-2.267l-16.43-21.474a1.86 1.86 0 1 0-2.954 2.266l16.429 21.475zM6.598 18.402l.616.473a1.864 1.864 0 0 0 2.268-2.956l-.616-.474a1.864 1.864 0 0 0-2.268 2.957zm-1.57 23.1a1.866 1.866 0 1 0-.489 3.701l19.032 2.523a1.866 1.866 0 0 0 .489-3.701L5.028 41.502zm7.639-18.429L30.75 36.988a1.862 1.862 0 0 0 2.268-2.955L14.928 20.11a1.865 1.865 0 0 0-2.267 2.96l.006.003zm40.024 4.037a1.862 1.862 0 0 0 2.096-1.595l2.852-21.046a1.863 1.863 0 0 0-3.678-.586c-.004.028-.01.058-.012.086l-2.852 21.045a1.863 1.863 0 0 0 1.59 2.092l.004.004zm42.426 26.341l-25.525-3.386a1.863 1.863 0 0 0-.488 3.694l25.525 3.387c.082.01.164.016.246.016a1.866 1.866 0 0 0 .235-3.717l.007.006zm1.61-10.274a1.862 1.862 0 0 0-2.086-1.606h-.002l-19.148 2.51a1.864 1.864 0 1 0 .483 3.695l19.15-2.51a1.863 1.863 0 0 0 1.596-2.094l.007.005zM84.76 20.167L66.742 33.991a1.863 1.863 0 1 0 2.263 2.96l18.018-13.825a1.862 1.862 0 0 0-2.263-2.959zm-4.977-9.91a1.856 1.856 0 0 0 2.605-.333l.004-.003.164-.213a1.864 1.864 0 0 0-.285-2.618 1.86 1.86 0 0 0-2.617.284c-.018.02-.033.041-.049.062l-.164.214a1.862 1.862 0 0 0 .34 2.608h.002zm3.313-4.319a1.855 1.855 0 0 0 2.605-.333l.004-.003.174-.225a1.863 1.863 0 0 0-2.902-2.335c-.018.02-.033.041-.049.062l-.172.224a1.866 1.866 0 0 0 .336 2.61h.004zM60.012 36.044a1.86 1.86 0 0 0 2.607-.339l.002-.003 16.365-21.326a1.864 1.864 0 0 0-.293-2.618 1.865 1.865 0 0 0-2.619.293c-.012.018-.027.035-.039.053L59.67 33.432a1.864 1.864 0 0 0 .34 2.613h.002zM3.757 13.864a1.864 1.864 0 0 0-.342-2.612l-.324-.25a1.863 1.863 0 0 0-2.267 2.956l.324.249c.813.625 1.98.473 2.605-.341l.002-.002h.002zm57.936 49.962a1.861 1.861 0 0 1-2.837 1.998l-8.717-5.822-9.397 5.855a1.86 1.86 0 0 1-2.563-.6 1.862 1.862 0 0 1-.211-1.488l2.834-10.102-8.462-7.141a1.864 1.864 0 0 1 1.121-3.288l10.469-.421 4.167-10.267a1.86 1.86 0 0 1 3.468.056l3.635 9.841 11.039.795a1.866 1.866 0 0 1 1.022 3.322l-8.225 6.504 2.657 10.758zm-5.902-12.939l5.398-4.271-7.447-.537a1.861 1.861 0 0 1-1.613-1.212l-2.387-6.462-2.813 6.929a1.858 1.858 0 0 1-1.649 1.161l-6.875.277 5.711 4.821c.559.473.791 1.227.594 1.93l-1.863 6.637 6.344-3.953a1.858 1.858 0 0 1 2.019.031l5.727 3.824-1.795-7.262a1.863 1.863 0 0 1 .648-1.912h.001zm30.791 43.42a1.863 1.863 0 0 0-2.611-.344 1.863 1.863 0 0 0-.342 2.611l.268.354a1.865 1.865 0 0 0 3.004-2.207c-.016-.021-.031-.043-.049-.063l-.27-.351zM5.056 36.167l1.458-1.458 1.458 1.458a1.861 1.861 0 0 0 2.633-.057c.69-.721.69-1.858-.001-2.579l-1.458-1.458 1.458-1.458a1.862 1.862 0 0 0-2.625-2.644l-.007.007-1.458 1.458-1.458-1.456a1.863 1.863 0 0 0-2.632 2.636l1.458 1.458-1.458 1.458a1.863 1.863 0 0 0 2.625 2.635h.007zm77.952 53.458l-.27-.354a1.862 1.862 0 1 0-3.003 2.204l.049.066.27.352a1.866 1.866 0 0 0 2.592.471 1.864 1.864 0 0 0 .469-2.592c-.035-.051-.074-.098-.113-.146h.006zm14.888-21.561l1.459-1.459a1.863 1.863 0 0 0-2.625-2.643l-.008.006-1.457 1.459-1.459-1.459a1.864 1.864 0 0 0-2.633.057 1.867 1.867 0 0 0 .002 2.58l1.457 1.457-1.457 1.459a1.862 1.862 0 1 0 2.633 2.635l1.459-1.459 1.457 1.459a1.862 1.862 0 0 0 2.633-2.635l-1.461-1.457zM86.988 75.57L69.646 62.225c-.836-.6-2-.408-2.6.426a1.861 1.861 0 0 0 .33 2.527L84.72 78.524a1.857 1.857 0 0 0 2.604-.336l.006-.006a1.866 1.866 0 0 0-.348-2.611h.006zm-17.302-3.357a1.863 1.863 0 0 0-2.998 2.211c.014.021.029.039.043.057l9.252 12.094a1.864 1.864 0 1 0 2.945-2.263l-9.242-12.099zm-36.999-9.74a1.86 1.86 0 0 0-2.606-.35l-.003.004L12.62 75.514a1.863 1.863 0 0 0 2.263 2.961l17.451-13.389c.815-.629.97-1.797.345-2.613h.008zM13.769 87.16a1.857 1.857 0 0 0-2.626-.006l-.005.006-1.458 1.457-1.459-1.457a1.864 1.864 0 0 0-2.633 2.635l1.458 1.457-1.458 1.459a1.861 1.861 0 1 0 2.577 2.69c.019-.018.037-.035.055-.055l1.458-1.457 1.458 1.457a1.863 1.863 0 0 0 2.632-2.637l-1.458-1.457 1.458-1.459a1.863 1.863 0 0 0-.007-2.633h.008zm18.208-35.5a1.864 1.864 0 0 0-2.087-1.606L4.533 53.379a1.862 1.862 0 0 0-1.606 2.09 1.862 1.862 0 0 0 2.09 1.605l25.356-3.324a1.865 1.865 0 0 0 1.598-2.09h.006zm22.81 21.856a1.862 1.862 0 1 0-3.7.424c.002.025.006.051.01.078l2.85 21.045a1.864 1.864 0 0 0 2.094 1.597 1.864 1.864 0 0 0 1.594-2.098l-2.848-21.046zm-7.649-1.403a1.86 1.86 0 0 0-2.103 1.584l-2.947 20.865a1.86 1.86 0 1 0 3.685.523l2.946-20.865a1.862 1.862 0 0 0-1.584-2.107h-.004.007zm-14.594-.271a1.859 1.859 0 0 0-2.607.34l-.002.002-9.271 12.08a1.862 1.862 0 0 0 2.911 2.324l.041-.053 9.271-12.08a1.866 1.866 0 0 0-.349-2.613h.006z"/></symbol><symbol id="g-icon-tower" viewBox="0 0 100 99.999998"><path d="M22 0v100h21.842V77.665h13.13V100h21.842V0H22zm24.421 67.115H33.292v-13.13h13.13v13.13zm0-21.1H33.292v-13.13h13.13v13.13zm0-21.1H33.292v-13.13h13.13v13.13zm21.1 42.2H54.392v-13.13h13.13v13.13zm0-21.1H54.392v-13.13h13.13v13.13zm0-21.1H54.392v-13.13h13.13v13.13z"/></symbol><symbol id="g-icon-twitter-circle" viewBox="-231.5 4.5 100 100"><path d="M-181.5 4.5c-27.569 0-50 22.432-50 50s22.431 50 50 50c27.568 0 50-22.432 50-50s-22.428-50-50-50zm22.305 38.556c.021.496.033.996.033 1.493 0 15.209-11.572 32.739-32.745 32.739a32.541 32.541 0 0 1-17.64-5.167c.9.106 1.815.162 2.746.162a23.091 23.091 0 0 0 14.292-4.927c-5.035-.093-9.287-3.419-10.75-7.993.7.134 1.424.206 2.164.206 1.048 0 2.067-.136 3.033-.399-5.265-1.056-9.23-5.706-9.23-11.285 0-.048 0-.099.002-.144a11.474 11.474 0 0 0 5.21 1.438 11.501 11.501 0 0 1-5.118-9.576c0-2.112.566-4.089 1.556-5.789 5.674 6.965 14.157 11.544 23.72 12.027a11.52 11.52 0 0 1-.297-2.623c0-6.355 5.153-11.51 11.508-11.51 3.31 0 6.298 1.398 8.4 3.635A23.014 23.014 0 0 0-155 32.548a11.55 11.55 0 0 1-5.068 6.368 22.852 22.852 0 0 0 6.61-1.81 23.168 23.168 0 0 1-5.737 5.95z"/></symbol><symbol id="g-icon-twitter_square" viewBox="0 0 100 100"><path d="M83.333 31.38q-3.646 1.628-7.877 2.214 4.427-2.604 6.054-7.617-4.231 2.474-8.724 3.32Q68.816 25 62.826 25q-5.665 0-9.668 4.004-4.004 4.004-4.004 9.668 0 1.888.325 3.125-8.398-.456-15.755-4.232-7.357-3.776-12.5-10.091-1.888 3.255-1.888 6.901 0 7.422 5.924 11.393-3.06-.065-6.51-1.692v.13q0 4.883 3.255 8.691 3.255 3.809 8.008 4.72-1.888.521-3.32.521-.847 0-2.54-.26 1.368 4.101 4.85 6.77 3.484 2.67 7.911 2.735-7.552 5.86-16.992 5.86-1.693 0-3.255-.196 9.635 6.12 20.963 6.12 7.292 0 13.672-2.312 6.38-2.31 10.938-6.184 4.557-3.874 7.845-8.92 3.287-5.045 4.882-10.547 1.595-5.5 1.595-10.97 0-1.172-.065-1.757 4.102-2.93 6.836-7.097zM100 18.75v62.5q0 7.747-5.501 13.249Q88.997 100 81.25 100h-62.5q-7.747 0-13.249-5.501Q0 88.997 0 81.25v-62.5q0-7.747 5.501-13.249Q11.003 0 18.75 0h62.5q7.747 0 13.249 5.501Q100 11.003 100 18.75z"/></symbol><symbol id="g-icon-youtube_square" viewBox="169.268 169.269 100 100"><path d="M263.767 174.77c-3.666-3.667-8.083-5.5-13.247-5.5h-62.501c-5.165 0-9.582 1.833-13.25 5.5-3.667 3.667-5.501 8.084-5.501 13.249v62.5c0 5.164 1.834 9.581 5.501 13.249 3.668 3.668 8.085 5.502 13.25 5.502h62.5c5.164 0 9.582-1.834 13.247-5.502 3.668-3.668 5.502-8.084 5.502-13.249v-62.5c0-5.165-1.834-9.582-5.501-13.249zm-35.448 8.951h4.362v17.708c0 1.042.021 1.607.063 1.693.044.695.393 1.042 1.043 1.042.868 0 1.78-.672 2.734-2.018v-18.425h4.362v24.089h-4.364v-2.605c-1.779 1.953-3.449 2.93-5.012 2.93-1.389 0-2.321-.585-2.8-1.758-.261-.781-.39-1.975-.39-3.581v-19.075h.002zm-16.472 7.813c0-2.517.456-4.406 1.368-5.664 1.171-1.649 2.864-2.474 5.077-2.474 2.127 0 3.821.826 5.078 2.474.912 1.259 1.368 3.147 1.368 5.664v8.464c0 2.604-.456 4.492-1.368 5.664-1.257 1.65-2.95 2.475-5.078 2.475-2.213 0-3.906-.825-5.077-2.475-.912-1.259-1.368-3.147-1.368-5.664v-8.464zm-11.719-16.081l3.451 12.696 3.32-12.696h4.883l-5.859 19.271v13.086h-4.817v-13.086c-.478-2.387-1.476-5.816-2.995-10.286a7596.63 7596.63 0 0 0-1.498-4.492l-1.563-4.493h5.078zm53.647 78.582a9.142 9.142 0 0 1-2.768 4.752c-1.409 1.302-3.047 2.062-4.914 2.279-5.945.65-14.888.977-26.823.977-11.936 0-20.877-.326-26.823-.977-1.866-.218-3.504-.978-4.915-2.279a9.154 9.154 0 0 1-2.767-4.752c-.868-3.646-1.301-9.289-1.301-16.928 0-7.51.434-13.15 1.301-16.928.435-1.909 1.356-3.505 2.767-4.786 1.411-1.281 3.071-2.03 4.98-2.246 5.902-.652 14.822-.977 26.758-.977 11.979 0 20.921.326 26.823.977 1.867.217 3.515.965 4.946 2.246 1.433 1.28 2.367 2.875 2.801 4.786.823 3.603 1.236 9.244 1.236 16.928.002 7.638-.433 13.28-1.301 16.928z"/><path d="M188.799 225.063h5.078v27.538h4.818v-27.538h5.209v-4.558h-15.105zM212.628 246.938c-.955 1.344-1.867 2.017-2.734 2.017-.608 0-.934-.325-.977-.976-.043-.087-.065-.651-.065-1.693v-17.579h-4.297v18.881c0 1.649.13 2.821.391 3.515.391 1.216 1.302 1.822 2.734 1.822 1.606 0 3.255-.976 4.948-2.93v2.605h4.361v-23.892h-4.361v18.23zM229.492 228.382c-1.563 0-3.039.868-4.427 2.604v-10.481h-4.362v32.096h4.362v-2.344c1.431 1.779 2.908 2.669 4.427 2.669 1.779 0 2.929-.912 3.449-2.734.304-.911.455-2.495.455-4.752v-9.505c0-2.301-.153-3.907-.455-4.818-.521-1.824-1.67-2.735-3.449-2.735zm-.392 17.383c0 2.127-.629 3.188-1.889 3.19-.736 0-1.453-.348-2.148-1.042V233.33c.695-.692 1.412-1.04 2.148-1.04 1.26 0 1.889 1.084 1.889 3.254v10.221zM245.309 245.733c0 .456-.011.813-.031 1.074-.021.261-.033.412-.033.455-.26 1.128-.911 1.691-1.952 1.691-1.477 0-2.215-1.106-2.215-3.319v-4.231h8.659v-4.948c0-2.517-.455-4.383-1.367-5.599-1.17-1.648-2.863-2.475-5.077-2.475-2.215 0-3.95.825-5.21 2.475-.867 1.172-1.302 3.04-1.302 5.599v8.398c0 2.562.456 4.428 1.367 5.601 1.26 1.648 3.018 2.474 5.275 2.474 2.3 0 4.035-.867 5.209-2.604.52-.781.847-1.649.977-2.604.086-.608.13-1.542.13-2.8v-.586h-4.429l-.001 1.399zm-4.229-10.124c0-2.213.717-3.319 2.148-3.319 1.433 0 2.148 1.105 2.148 3.319v2.215h-4.297v-2.215zM218.292 204.163c1.389 0 2.083-1.106 2.083-3.32v-10.156c0-2.256-.694-3.386-2.083-3.386-1.389 0-2.083 1.129-2.083 3.386v10.156c0 2.213.694 3.32 2.083 3.32z"/></symbol></svg>