<?xml version="1.0" encoding="utf-8"?>
<!-- Generator: Adobe Illustrator 16.0.0, SVG Export Plug-In . SVG Version: 6.00 Build 0)  -->
<!DOCTYPE svg PUBLIC "-//W3C//DTD SVG 1.1//EN" "http://www.w3.org/Graphics/SVG/1.1/DTD/svg11.dtd">
<svg version="1.1"
	 id="svg2" xmlns:dc="http://purl.org/dc/elements/1.1/" xmlns:cc="http://creativecommons.org/ns#" xmlns:rdf="http://www.w3.org/1999/02/22-rdf-syntax-ns#" xmlns:svg="http://www.w3.org/2000/svg" xmlns:sodipodi="http://sodipodi.sourceforge.net/DTD/sodipodi-0.dtd" xmlns:inkscape="http://www.inkscape.org/namespaces/inkscape" sodipodi:docname="uE088-next_page.svg" inkscape:version="0.48.4 r9939"
	 xmlns="http://www.w3.org/2000/svg" xmlns:xlink="http://www.w3.org/1999/xlink" x="0px" y="0px" width="100px" height="100px"
	 viewBox="0 0 100 100" enable-background="new 0 0 100 100" xml:space="preserve">
<sodipodi:namedview  id="namedview10" inkscape:cy="-5.449629" borderopacity="1" pagecolor="#ffffff" bordercolor="#666666" inkscape:cx="85.550964" showgrid="false" inkscape:zoom="2" guidetolerance="10" gridtolerance="10" fit-margin-left="0" objecttolerance="10" fit-margin-top="0" inkscape:window-maximized="1" inkscape:current-layer="svg2" inkscape:window-y="0" inkscape:window-x="0" fit-margin-bottom="0" fit-margin-right="0" inkscape:window-height="743" inkscape:window-width="1366" inkscape:pageshadow="2" inkscape:pageopacity="0">
	</sodipodi:namedview>
<path id="path2989" inkscape:connector-curvature="0" d="M75.451,96.426c2.361-2.414,3.488-3.888,3.488-4.564
	c0-0.75-5.06-6.049-20.34-21.299l-20.339-20.3l20.386-20.664C77.604,10.382,79.012,8.852,78.756,7.766
	c-0.392-1.655-6.661-7.764-7.969-7.764c-0.77,0-6.879,5.85-25.442,24.363c-21.738,21.678-24.43,24.508-24.43,25.676
	c0,1.166,2.711,4.039,24.212,25.648c21.675,21.784,24.35,24.332,25.523,24.317C71.723,99.992,72.6,99.339,75.451,96.426
	L75.451,96.426z"/>
</svg>
