<?xml version="1.0" encoding="utf-8"?>
<!-- Generator: Adobe Illustrator 21.1.0, SVG Export Plug-In . SVG Version: 6.00 Build 0)  -->
<svg version="1.1" id="Capa_1" xmlns="http://www.w3.org/2000/svg" xmlns:xlink="http://www.w3.org/1999/xlink" x="0px" y="0px"
	 viewBox="0 0 100 100" style="enable-background:new 0 0 100 100;" xml:space="preserve">
<g>
	<path d="M50.5,65.3l49-14.7v36.5c0,5-4,8.9-8.9,8.9H8.9C4,96,0,92,0,87.1V50.6l49,14.7c0.3,0.1,0.5,0.1,0.8,0.1
		S50.3,65.4,50.5,65.3z M99.5,28.4v16.8L49.8,60.2L0,45.2V28.4c0-5,4-8.9,8.9-8.9h21.7v-3.8c0-6.4,5.1-11.5,11.5-11.5h15.3
		c6.4,0,11.5,5.1,11.5,11.5v3.8h21.7C95.5,19.5,99.5,23.4,99.5,28.4z M63.8,15.6c0-3.6-2.8-6.4-6.4-6.4H42.1c-3.6,0-6.4,2.8-6.4,6.4
		v3.8h28.1V15.6z"/>
</g>
</svg>
