<?xml version="1.0" encoding="utf-8"?>
<!-- Generator: Adobe Illustrator 21.1.0, SVG Export Plug-In . SVG Version: 6.00 Build 0)  -->
<svg version="1.1" id="Capa_1" xmlns="http://www.w3.org/2000/svg" xmlns:xlink="http://www.w3.org/1999/xlink" x="0px" y="0px"
	 viewBox="0 0 100 100" style="enable-background:new 0 0 100 100;" xml:space="preserve">
<style type="text/css">
	.g-icon-bronze-0{fill:#314675;}
	.g-icon-bronze-1{fill:#E3C8AE;}
	.g-icon-bronze-2{fill:#395092;}
	.g-icon-bronze-3{fill:#C59260;}
</style>
<polygon class="g-icon-bronze-0" points="36.8,21.9 62.6,21.9 85.3,0 59.5,0 36.8,21.9 "/>
<path class="g-icon-bronze-1" d="M34.9,29.4h28.3v-7.7H34.9V29.4L34.9,29.4z M67.4,33.5H30.7v-16h36.7V33.5L67.4,33.5z"/>
<polygon class="g-icon-bronze-2" points="62.6,21.9 36.8,21.9 13.9,0 39.9,0 62.6,21.9 "/>
<path class="g-icon-bronze-3" d="M49.1,22.9c21.3,0,38.5,17.3,38.5,38.5S70.4,100,49.1,100S10.5,82.7,10.5,61.5S27.8,22.9,49.1,22.9L49.1,22.9z"
	/>
<path class="g-icon-bronze-1" d="M49.1,90.6c-16,0-29.2-13.1-29.2-29.2S33,32.3,49.1,32.3s29.2,13.1,29.2,29.2S65.1,90.6,49.1,90.6L49.1,90.6z"
	/>
<polygon class="g-icon-bronze-3" points="49.1,35.2 55.1,53.5 74.5,53.5 58.7,65 64.7,83.3 49.1,71.9 33.4,83.3 39.5,65 23.7,53.5 43,53.5
	49.1,35.2 "/>
</svg>
