<?xml version="1.0" encoding="utf-8"?>
<!-- Generator: Adobe Illustrator 16.0.0, SVG Export Plug-In . SVG Version: 6.00 Build 0)  -->
<!DOCTYPE svg PUBLIC "-//W3C//DTD SVG 1.1//EN" "http://www.w3.org/Graphics/SVG/1.1/DTD/svg11.dtd">
<svg version="1.1" id="Capa_1" xmlns="http://www.w3.org/2000/svg" xmlns:xlink="http://www.w3.org/1999/xlink" x="0px" y="0px"
	 width="100px" height="100px" viewBox="0 0 100 100" enable-background="new 0 0 100 100" xml:space="preserve">
<path d="M50,100c27.614,0,50-22.386,50-50S77.614,0,50,0S0,22.386,0,50S22.386,100,50,100z M19.152,48.531
	c0-1.799,1.512-3.349,3.311-3.349h40.039L49.803,32.528c-0.615-0.614-0.953-1.391-0.953-2.263c0-0.874,0.338-1.694,0.953-2.307
	l1.955-1.956c0.613-0.613,1.433-0.951,2.306-0.951c0.874,0,1.692,0.338,2.307,0.951l21.525,21.525
	c0.617,0.616,0.955,1.438,0.952,2.317c0.003,0.874-0.335,1.695-0.952,2.313L56.37,73.682c-0.614,0.614-1.434,0.952-2.307,0.952
	s-1.692-0.34-2.306-0.954l-1.955-1.955c-0.615-0.616-0.953-1.442-0.953-2.316c0-0.873,0.338-1.706,0.953-2.32L62.36,54.503H22.414
	l0.094,0.021c-1.799,0-3.355-1.429-3.355-3.228V48.531z"/>
</svg>
