<?xml version="1.0" encoding="utf-8"?>
<!-- Generator: Adobe Illustrator 16.0.0, SVG Export Plug-In . SVG Version: 6.00 Build 0)  -->
<!DOCTYPE svg PUBLIC "-//W3C//DTD SVG 1.1//EN" "http://www.w3.org/Graphics/SVG/1.1/DTD/svg11.dtd">
<svg version="1.1" id="Capa_1" xmlns="http://www.w3.org/2000/svg" xmlns:xlink="http://www.w3.org/1999/xlink" x="0px" y="0px"
	 width="100px" height="100px" viewBox="0 0 100 100" enable-background="new 0 0 100 100" xml:space="preserve">
<path d="M50,0C22.386,0,0,22.386,0,50s22.386,50,50,50s50-22.386,50-50S77.614,0,50,0z M80.848,51.469
	c0,1.799-1.512,3.349-3.311,3.349H37.499l12.699,12.654c0.615,0.614,0.953,1.391,0.953,2.263c0,0.874-0.338,1.694-0.953,2.307
	l-1.955,1.956c-0.613,0.613-1.433,0.951-2.306,0.951c-0.874,0-1.692-0.338-2.307-0.951L22.104,52.472
	c-0.617-0.616-0.955-1.438-0.952-2.317c-0.003-0.874,0.335-1.696,0.952-2.313L43.63,26.318c0.614-0.614,1.434-0.952,2.307-0.952
	s1.692,0.34,2.306,0.954l1.955,1.955c0.615,0.616,0.953,1.442,0.953,2.316s-0.338,1.706-0.953,2.32L37.64,45.497h39.946l-0.094-0.02
	c1.799,0,3.355,1.429,3.355,3.227V51.469z"/>
</svg>
