<?xml version="1.0" encoding="utf-8"?>
<!-- Generator: Adobe Illustrator 21.1.0, SVG Export Plug-In . SVG Version: 6.00 Build 0)  -->
<svg version="1.1" id="Capa_1" xmlns="http://www.w3.org/2000/svg" xmlns:xlink="http://www.w3.org/1999/xlink" x="0px" y="0px"
	 viewBox="0 0 100 100" style="enable-background:new 0 0 100 100;" xml:space="preserve">
<style type="text/css">
	.g-icon-cup-0{fill:#395092;}
	.g-icon-cup-1{opacity:0.34;}
	.g-icon-cup-2{fill:#F2CF64;}
	.g-icon-cup-3{fill:#E5B455;}
	.g-icon-cup-4{fill:#F0C75C;}
	.g-icon-cup-5{fill:#FFFFFF;}
</style>
<polygon class="g-icon-cup-0" points="59.2,82.3 40.8,82.3 44,75.6 46.7,69.4 53.3,69.4 56,75.6 59.2,82.3 "/>
<path class="g-icon-cup-1" d="M56,75.6c-1.7,0.8-3.3,1.7-5,2.3l-1,0.2l-1-0.4c-1.7-0.6-3.3-1.5-5-2.3l2.7-6.3h6.5L56,75.6L56,75.6z"/>
<path class="g-icon-cup-2" d="M70.8,82.3H29.2c-2.3,0-4.2,1.9-4.2,4.2V100h49.8V86.5C75,84.2,73.1,82.3,70.8,82.3L70.8,82.3z"/>
<path class="g-icon-cup-3" d="M91.7,20c0,10-3.5,19.2-9.6,26.5C74.4,55.6,62.9,61.7,50,61.7c-12.9,0-24.4-5.8-32.1-15.2
	C12.1,39.4,8.3,30,8.3,20v-0.2h83.1V20H91.7L91.7,20z M0,11.5V20c0,20.8,12.9,38.8,31,46.3c5.8,2.5,12.3,3.7,19,3.7
	c6.7,0,13.1-1.3,19-3.7c18.1-7.5,31-25.4,31-46.3v-8.5H0L0,11.5z"/>
<path class="g-icon-cup-3" d="M82.5,0h-65C16,0,15,1.2,15,2.5c0,1.5,1,2.7,2.5,2.7h65C84,5.2,85,4,85,2.7C85,1.2,84,0,82.5,0L82.5,0z"/>
<path class="g-icon-cup-2" d="M82.5,5.2v22.5C82.5,48.5,69.6,67.5,50,75c-19.6-7.7-32.5-26.5-32.5-47.5V5.2H82.5L82.5,5.2z"/>
<polygon class="g-icon-cup-4" points="17.5,5.2 82.3,5.2 82.3,8.3 17.5,8.3 17.5,5.2 "/>
<polygon class="g-icon-cup-5" points="49.9,16.6 54.5,30.8 69.3,30.8 57.4,39.6 61.8,53.7 49.9,44.9 38,53.7 42.4,39.6 30.5,30.8 45.3,30.8
	49.9,16.6 "/>
</svg>
