<?xml version="1.0" encoding="utf-8"?>
<!-- Generator: Adobe Illustrator 16.0.0, SVG Export Plug-In . SVG Version: 6.00 Build 0)  -->
<!DOCTYPE svg PUBLIC "-//W3C//DTD SVG 1.1//EN" "http://www.w3.org/Graphics/SVG/1.1/DTD/svg11.dtd">
<svg version="1.1" id="Layer_1" xmlns="http://www.w3.org/2000/svg" xmlns:xlink="http://www.w3.org/1999/xlink" x="0px" y="0px"
	 width="100px" height="100px" viewBox="0 0 100 100" enable-background="new 0 0 100 100" xml:space="preserve">
<g>
	<path d="M54.56,78.706c-1.252,6.831-7.002,12.23-14.246,12.741c-8.578,0.603-16.047-5.884-16.65-14.46
		c-0.407-5.776,2.407-11.047,6.906-14.062l-1.283-8.581c-8.692,4.021-14.45,13.11-13.739,23.215
		c0.918,13.053,12.286,22.927,25.339,22.011c8.745-0.618,16.056-5.927,19.655-13.286L54.56,78.706z"/>
	<circle cx="33.633" cy="10.42" r="10.144"/>
	<polygon points="25.722,19.249 39.619,28.053 48.43,55.84 57.552,55.84 86.524,100.327 72.378,100.327 50.726,67.32 36.455,67.32 	
		"/>
</g>
</svg>
