<?xml version="1.0" encoding="UTF-8" standalone="no"?>
<svg
   xmlns:dc="http://purl.org/dc/elements/1.1/"
   xmlns:cc="http://creativecommons.org/ns#"
   xmlns:rdf="http://www.w3.org/1999/02/22-rdf-syntax-ns#"
   xmlns:svg="http://www.w3.org/2000/svg"
   xmlns="http://www.w3.org/2000/svg"
   xmlns:sodipodi="http://sodipodi.sourceforge.net/DTD/sodipodi-0.dtd"
   xmlns:inkscape="http://www.inkscape.org/namespaces/inkscape"
   width="100"
   height="100"
   viewBox="0 0 100 100"
   id="svg2"
   version="1.1"
   inkscape:version="0.91 r13725"
   sodipodi:docname="facebook-square.svg">
  <metadata
     id="metadata10">
    <rdf:RDF>
      <cc:Work
         rdf:about="">
        <dc:format>image/svg+xml</dc:format>
        <dc:type
           rdf:resource="http://purl.org/dc/dcmitype/StillImage" />
        <dc:title></dc:title>
      </cc:Work>
    </rdf:RDF>
  </metadata>
  <defs
     id="defs8" />
  <sodipodi:namedview
     pagecolor="#ffffff"
     bordercolor="#666666"
     borderopacity="1"
     objecttolerance="10"
     gridtolerance="10"
     guidetolerance="10"
     inkscape:pageopacity="0"
     inkscape:pageshadow="2"
     inkscape:window-width="939"
     inkscape:window-height="480"
     id="namedview6"
     showgrid="false"
     inkscape:zoom="2.1071429"
     inkscape:cx="20.223181"
     inkscape:cy="44.82212"
     inkscape:window-x="0"
     inkscape:window-y="39"
     inkscape:window-maximized="0"
     inkscape:current-layer="svg2" />
  <path
     d="M 81.25,0 Q 88.997396,0 94.498698,5.5013021 100,11.002604 100,18.75 l 0,62.5 q 0,7.747396 -5.501302,13.248698 Q 88.997396,100 81.25,100 l -12.239583,0 0,-38.736979 12.955729,0 1.953125,-15.104167 -14.908854,0 0,-9.635417 q 0,-3.645833 1.529948,-5.46875 1.529947,-1.822916 5.957031,-1.822916 l 7.942708,-0.0651 0,-13.476563 q -4.101562,-0.585937 -11.588542,-0.585937 -8.854166,0 -14.160156,5.208333 -5.305989,5.208333 -5.305989,14.713542 l 0,11.132812 -13.020834,0 0,15.104167 13.020834,0 0,38.736979 L 18.75,100 Q 11.002604,100 5.5013021,94.498698 0,88.997396 0,81.25 L 0,18.75 Q 0,11.002604 5.5013021,5.5013021 11.002604,0 18.75,0 l 62.5,0 z"
     id="path4"
     inkscape:connector-curvature="0" />
</svg>
