<?xml version="1.0" encoding="utf-8"?>
<!-- Generator: Adobe Illustrator 16.0.0, SVG Export Plug-In . SVG Version: 6.00 Build 0)  -->
<!DOCTYPE svg PUBLIC "-//W3C//DTD SVG 1.1//EN" "http://www.w3.org/Graphics/SVG/1.1/DTD/svg11.dtd">
<svg version="1.1" id="Capa_1" xmlns="http://www.w3.org/2000/svg" xmlns:xlink="http://www.w3.org/1999/xlink" x="0px" y="0px"
	 width="100px" height="100px" viewBox="14.663 9.163 100 100" enable-background="new 14.663 9.163 100 100" xml:space="preserve">
<g>
	<g>
		<path d="M64.663,9.163c-27.569,0-50,22.431-50,50c0,27.568,22.431,50,50,50c27.568,0,50-22.432,50-50
			C114.663,31.594,92.235,9.163,64.663,9.163z M77.097,60.924h-8.135c0,12.996,0,28.994,0,28.994H56.91c0,0,0-15.843,0-28.994
			h-5.731V50.676h5.731v-6.627c0-4.748,2.256-12.165,12.164-12.165l8.932,0.033v9.948c0,0-5.429,0-6.482,0
			c-1.057,0-2.557,0.527-2.557,2.791v6.021h9.185L77.097,60.924z"/>
	</g>
</g>
</svg>
