<?xml version="1.0" encoding="utf-8"?>
<!-- Generator: Adobe Illustrator 21.1.0, SVG Export Plug-In . SVG Version: 6.00 Build 0)  -->
<svg version="1.1" id="Capa_1" xmlns="http://www.w3.org/2000/svg" xmlns:xlink="http://www.w3.org/1999/xlink" x="0px" y="0px"
	 viewBox="0 0 100 100" style="enable-background:new 0 0 100 100;" xml:space="preserve">
<style type="text/css">
	.g-icon-gold-0{fill:#314675;}
	.g-icon-gold-1{fill:#E5B455;}
	.g-icon-gold-2{fill:#395092;}
	.g-icon-gold-3{fill:#F2CF64;}
</style>
<g>
	<polygon class="g-icon-gold-0" points="37.3,21.9 63.1,21.9 85.8,0 60,0 37.3,21.9 	"/>
	<path class="g-icon-gold-1" d="M35.4,29.4h28.3v-7.7H35.4V29.4L35.4,29.4z M67.9,33.5H31.2v-16h36.7V33.5L67.9,33.5z"/>
	<polygon class="g-icon-gold-2" points="63.1,21.9 37.3,21.9 14.4,0 40.4,0 63.1,21.9 	"/>
	<path class="g-icon-gold-3" d="M49.6,22.9c21.3,0,38.5,17.3,38.5,38.5S70.9,100,49.6,100C28.3,100,11,82.7,11,61.5S28.3,22.9,49.6,22.9
		L49.6,22.9z"/>
	<path class="g-icon-gold-1" d="M49.6,90.6c-16,0-29.2-13.1-29.2-29.2s13.1-29.2,29.2-29.2s29.2,13.1,29.2,29.2S65.6,90.6,49.6,90.6L49.6,90.6
		z"/>
	<polygon class="g-icon-gold-3" points="49.6,35.2 55.6,53.5 75,53.5 59.2,65 65.2,83.3 49.6,71.9 33.9,83.3 40,65 24.2,53.5 43.5,53.5
		49.6,35.2 	"/>
</g>
</svg>
