<?xml version="1.0" encoding="UTF-8" standalone="no"?>
<svg
   xmlns:dc="http://purl.org/dc/elements/1.1/"
   xmlns:cc="http://creativecommons.org/ns#"
   xmlns:rdf="http://www.w3.org/1999/02/22-rdf-syntax-ns#"
   xmlns:svg="http://www.w3.org/2000/svg"
   xmlns="http://www.w3.org/2000/svg"
   xmlns:sodipodi="http://sodipodi.sourceforge.net/DTD/sodipodi-0.dtd"
   xmlns:inkscape="http://www.inkscape.org/namespaces/inkscape"
   enable-background="new 0 0 56.693 56.693"
   height="100"
   id="Layer_1"
   version="1.1"
   viewBox="0 0 99.999999 99.999999"
   width="100"
   xml:space="preserve"
   inkscape:version="0.91 r13725"
   sodipodi:docname="if_38-instagram_104466.svg"><metadata
     id="metadata9"><rdf:RDF><cc:Work
         rdf:about=""><dc:format>image/svg+xml</dc:format><dc:type
           rdf:resource="http://purl.org/dc/dcmitype/StillImage" /><dc:title></dc:title></cc:Work></rdf:RDF></metadata><defs
     id="defs7" /><sodipodi:namedview
     pagecolor="#ffffff"
     bordercolor="#666666"
     borderopacity="1"
     objecttolerance="10"
     gridtolerance="10"
     guidetolerance="10"
     inkscape:pageopacity="0"
     inkscape:pageshadow="2"
     inkscape:window-width="1920"
     inkscape:window-height="1016"
     id="namedview5"
     showgrid="false"
     inkscape:zoom="8.3255427"
     inkscape:cx="53.46172"
     inkscape:cy="50.918615"
     inkscape:window-x="0"
     inkscape:window-y="27"
     inkscape:window-maximized="1"
     inkscape:current-layer="Layer_1" /><path
     d="m 80.674117,0.002 -61.348234,0 C 8.669518,0.002 0,8.6695019 0,19.325869 L 0,39.738977 0,80.676131 C 0,91.332499 8.669518,100 19.325883,100 l 61.350251,0 C 91.3325,100 100,91.332499 100,80.676131 l 0,-40.939171 0,-20.413108 C 99.99798,8.6674848 91.330482,0.002 80.674117,0.002 Z m 5.543004,11.523723 2.210747,-0.0081 0,2.200662 0,14.749075 -16.893254,0.05446 -0.0585,-16.947719 14.741004,-0.04841 z M 35.726965,39.73696 C 38.930127,35.305379 44.12619,32.398729 50,32.398729 c 5.87381,0 11.069873,2.90665 14.269001,7.338231 2.08367,2.892528 3.332258,6.430531 3.332258,10.263031 0,9.704294 -7.903018,17.599245 -17.603276,17.599245 -9.70631,0 -17.601259,-7.894951 -17.601259,-17.599245 0.002,-3.8325 1.246571,-7.370503 3.330241,-10.263031 z m 54.5284,40.937154 c 0,5.286833 -4.29845,9.581249 -9.581248,9.581249 l -61.348234,0 c -5.284815,0 -9.583266,-4.294416 -9.583266,-9.581249 l 0,-40.937154 14.926578,0 c -1.28893,3.170889 -2.013071,6.634259 -2.013071,10.263031 0,15.073829 12.263999,27.345898 27.343876,27.345898 15.07786,0 27.341859,-12.272069 27.341859,-27.345898 0,-3.628772 -0.728175,-7.092142 -2.017105,-10.263031 l 14.930611,0 0,40.937154 z"
     id="path3"
     inkscape:connector-curvature="0" /></svg>