<?xml version="1.0" encoding="UTF-8" standalone="no"?>
<!-- Generator: Adobe Illustrator 16.0.0, SVG Export Plug-In . SVG Version: 6.00 Build 0)  -->

<svg
   xmlns:dc="http://purl.org/dc/elements/1.1/"
   xmlns:cc="http://creativecommons.org/ns#"
   xmlns:rdf="http://www.w3.org/1999/02/22-rdf-syntax-ns#"
   xmlns:svg="http://www.w3.org/2000/svg"
   xmlns="http://www.w3.org/2000/svg"
   xmlns:sodipodi="http://sodipodi.sourceforge.net/DTD/sodipodi-0.dtd"
   xmlns:inkscape="http://www.inkscape.org/namespaces/inkscape"
   version="1.1"
   id="arrow_left"
   x="0px"
   y="0px"
   width="100"
   height="100"
   viewBox="-1.159 -2.001 100 100"
   enable-background="new -1.159 -2.001 99.159 98.001"
   xml:space="preserve"
   inkscape:version="0.91 r13725"
   sodipodi:docname="left_arrow.svg"><metadata
     id="metadata4254"><rdf:RDF><cc:Work
         rdf:about=""><dc:format>image/svg+xml</dc:format><dc:type
           rdf:resource="http://purl.org/dc/dcmitype/StillImage" /><dc:title></dc:title></cc:Work></rdf:RDF></metadata><defs
     id="defs4252" /><sodipodi:namedview
     pagecolor="#ffffff"
     bordercolor="#666666"
     borderopacity="1"
     objecttolerance="10"
     gridtolerance="10"
     guidetolerance="10"
     inkscape:pageopacity="0"
     inkscape:pageshadow="2"
     inkscape:window-width="1855"
     inkscape:window-height="1056"
     id="namedview4250"
     showgrid="false"
     inkscape:zoom="2.4081387"
     inkscape:cx="49.579498"
     inkscape:cy="49.0005"
     inkscape:window-x="65"
     inkscape:window-y="24"
     inkscape:window-maximized="1"
     inkscape:current-layer="arrow_left" /><path
     d="m 93.841,41.804501 -77.93,0 26.82,-33.2300002 c 1.953,-2.4190005 1.953,-6.3420005 10e-4,-8.76100048 -1.953,-2.41899992 -5.12,-2.41899992 -7.072,0 L 0.30599996,43.618501 l 0,0 c -0.232,0.288 -0.44,0.606 -0.623,0.945 -0.083,0.156 -0.142,0.325 -0.213,0.488 -0.084,0.192 -0.178,0.375 -0.245,0.577 -0.07,0.209 -0.11,0.428 -0.161,0.645 -0.04,0.172 -0.094,0.336 -0.12299996,0.513 -0.065,0.401 -0.1,0.806 -0.1,1.213 l 0,0 c 0,0.004 0.001,0.008 0.001,0.012 0,0.401 0.034,0.805 0.098,1.199 0.03,0.187 0.086,0.358 0.12999996,0.54 0.049,0.206 0.087,0.414 0.154,0.614 0.072,0.216 0.169,0.411 0.26,0.614 0.067,0.15 0.12,0.307 0.198,0.452 0.184,0.343 0.393,0.661 0.626,0.951 L 35.661,96.185501 c 1.952,2.417999 5.118,2.417999 7.071,0 1.953,-2.419 1.953,-6.344 0,-8.762 l -26.82,-33.229 77.929,0 c 2.762,0 5,-2.773 5,-6.195 0,-3.422 -2.238,-6.195 -5,-6.195 z"
     id="path4248"
     inkscape:connector-curvature="0" /></svg>