<?xml version="1.0" encoding="utf-8"?>
<!-- Generator: Adobe Illustrator 16.0.0, SVG Export Plug-In . SVG Version: 6.00 Build 0)  -->
<!DOCTYPE svg PUBLIC "-//W3C//DTD SVG 1.1//EN" "http://www.w3.org/Graphics/SVG/1.1/DTD/svg11.dtd">
<svg version="1.1" id="Layer_1" xmlns="http://www.w3.org/2000/svg" xmlns:xlink="http://www.w3.org/1999/xlink" x="0px" y="0px"
	 width="100px" height="100px" viewBox="0 0 100 100" enable-background="new 0 0 100 100" xml:space="preserve">
<path d="M93.245,89.75L69.598,66.898c0.69-0.935,3.186-4.162,3.52-4.624l0.043-0.058c0.273-0.361,0.54-0.722,0.794-1.092
	l0.025-0.031l0,0c9.544-13.72,7.433-33.127-5.197-45.751C61.728,8.284,52.349,4.399,42.372,4.399
	c-9.977,0-19.355,3.885-26.414,10.941C8.904,22.394,5.019,31.776,5.019,41.756c0,9.976,3.882,19.36,10.939,26.412
	c7.037,7.037,16.395,10.912,26.348,10.912l0,0c5.969,0,11.915-1.446,17.234-4.197c0.597-0.335,3.996-2.443,5.417-3.594l23.625,23.79
	c0.147,0.147,0.947,0.89,2.109,0.89c0.511,0,1.938-1.527,2.651-2.236C94.727,92.346,94.055,90.608,93.245,89.75z M42.2,10.478
	c15.036,0,31.792,13.344,31.247,31.245C72.911,59.276,57.236,72.971,42.2,72.971c-15.038,0-30.925-13.361-31.249-31.249
	C10.62,23.487,27.162,10.478,42.2,10.478z"/>
</svg>
