<?xml version="1.0" encoding="utf-8"?>
<!-- Generator: Adobe Illustrator 16.0.0, SVG Export Plug-In . SVG Version: 6.00 Build 0)  -->
<!DOCTYPE svg PUBLIC "-//W3C//DTD SVG 1.1//EN" "http://www.w3.org/Graphics/SVG/1.1/DTD/svg11.dtd">
<svg version="1.1" id="Capa_1" xmlns="http://www.w3.org/2000/svg" xmlns:xlink="http://www.w3.org/1999/xlink" x="0px" y="0px"
	 width="100px" height="100px" viewBox="205 205 100 100" enable-background="new 205 205 100 100" xml:space="preserve">
<g>
	<g id="post-linkedin">
		<path d="M295,205h-80c-5.5,0-10,4.5-10,10v80c0,5.5,4.5,10,10,10h80c5.5,0,10-4.5,10-10v-80C305,209.5,300.5,205,295,205z
			 M235,290h-15v-45h15V290z M227.5,236.5c-5,0-9-4-9-9s4-9,9-9s9,4,9,9S232.5,236.5,227.5,236.5z M290,290h-15v-26.5
			c0-4-3.5-7.5-7.5-7.5s-7.5,3.5-7.5,7.5V290h-15v-45h15v6c2.5-4,8-7,12.5-7c9.5,0,17.5,8,17.5,17.5V290z"/>
	</g>
</g>
</svg>
