<?xml version="1.0" encoding="utf-8"?>
<!-- Generator: Adobe Illustrator 16.0.0, SVG Export Plug-In . SVG Version: 6.00 Build 0)  -->
<!DOCTYPE svg PUBLIC "-//W3C//DTD SVG 1.1//EN" "http://www.w3.org/Graphics/SVG/1.1/DTD/svg11.dtd">
<svg version="1.1" id="Capa_1" xmlns:sketch="http://www.bohemiancoding.com/sketch/ns"
	 xmlns="http://www.w3.org/2000/svg" xmlns:xlink="http://www.w3.org/1999/xlink" x="0px" y="0px" width="100px" height="100px"
	 viewBox="11.25 3.02 100 100" enable-background="new 11.25 3.02 100 100" xml:space="preserve">
<title></title>
<g id="black">
	<g id="linkedin">
		<path id="Linkedin" d="M61.165,103.02c27.614,0,50-22.385,50-50c0-27.613-22.386-50-50-50c-27.613,0-50,22.386-50,50
			C11.165,80.635,33.552,103.02,61.165,103.02z"/>
		<path fill="#FFFFFF" d="M47.638,76.059V45.561h-9.427v30.498H47.638z M47.638,34.75c-0.057-2.729-1.877-4.807-4.831-4.807
			c-2.956,0-4.888,2.079-4.888,4.807c0,2.67,1.875,4.809,4.774,4.809h0.056C45.761,39.559,47.638,37.42,47.638,34.75z
			 M63.014,76.059V58.682c0-0.928,0.068-1.859,0.342-2.521c0.749-1.861,2.45-3.783,5.307-3.783c3.743,0,6.09,2.125,6.09,6.305
			v17.377h9.489V58.217c0-9.557-5.101-14.004-11.906-14.004c-5.581,0-8.028,3.119-9.39,5.242l0.068-4.078H53.54
			c0.137,2.919,0,30.682,0,30.682H63.014z"/>
	</g>
</g>
</svg>
