<?xml version="1.0" encoding="UTF-8" standalone="no"?>
<!-- Generator: Adobe Illustrator 16.0.0, SVG Export Plug-In . SVG Version: 6.00 Build 0)  -->

<svg
   xmlns:dc="http://purl.org/dc/elements/1.1/"
   xmlns:cc="http://creativecommons.org/ns#"
   xmlns:rdf="http://www.w3.org/1999/02/22-rdf-syntax-ns#"
   xmlns:svg="http://www.w3.org/2000/svg"
   xmlns="http://www.w3.org/2000/svg"
   xmlns:sodipodi="http://sodipodi.sourceforge.net/DTD/sodipodi-0.dtd"
   xmlns:inkscape="http://www.inkscape.org/namespaces/inkscape"
   version="1.1"
   id="Capa_1"
   x="0px"
   y="0px"
   width="100"
   height="100"
   viewBox="0 0 99.999997 99.999997"
   xml:space="preserve"
   inkscape:version="0.91 r13725"
   sodipodi:docname="map-marker.svg"><metadata
     id="metadata40"><rdf:RDF><cc:Work
         rdf:about=""><dc:format>image/svg+xml</dc:format><dc:type
           rdf:resource="http://purl.org/dc/dcmitype/StillImage" /><dc:title></dc:title></cc:Work></rdf:RDF></metadata><defs
     id="defs38" /><sodipodi:namedview
     pagecolor="#ffffff"
     bordercolor="#666666"
     borderopacity="1"
     objecttolerance="10"
     gridtolerance="10"
     guidetolerance="10"
     inkscape:pageopacity="0"
     inkscape:pageshadow="2"
     inkscape:window-width="1920"
     inkscape:window-height="1016"
     id="namedview36"
     showgrid="false"
     inkscape:zoom="2.1947669"
     inkscape:cx="179.58413"
     inkscape:cy="120.21581"
     inkscape:window-x="0"
     inkscape:window-y="27"
     inkscape:window-maximized="1"
     inkscape:current-layer="Capa_1" /><g
     id="g3"
     transform="matrix(0.23249849,0,0,0.23249704,0.444689,6.3448002e-7)"><path
       id="Facebook_Places"
       d="m 356.208,107.051 c -1.531,-5.738 -4.64,-11.852 -6.94,-17.205 C 321.746,23.704 261.611,0 213.055,0 148.054,0 76.463,43.586 66.905,133.427 l 0,18.355 c 0,0.766 0.264,7.647 0.639,11.089 5.358,42.816 39.143,88.32 64.375,131.136 27.146,45.873 55.314,90.999 83.221,136.106 17.208,-29.436 34.354,-59.259 51.17,-87.933 4.583,-8.415 9.903,-16.825 14.491,-24.857 3.058,-5.348 8.9,-10.696 11.569,-15.672 27.145,-49.699 70.838,-99.782 70.838,-149.104 l 0,-20.262 c 10e-4,-5.347 -6.627,-24.081 -7,-25.234 z m -141.963,92.142 c -19.107,0 -40.021,-9.554 -50.344,-35.939 -1.538,-4.2 -1.414,-12.617 -1.414,-13.388 l 0,-11.852 c 0,-33.636 28.56,-48.932 53.406,-48.932 30.588,0 54.245,24.472 54.245,55.06 0,30.587 -25.305,55.051 -55.893,55.051 z"
       inkscape:connector-curvature="0" /></g><g
     id="g6"
     transform="translate(0,-330.11401)" /><g
     id="g8"
     transform="translate(0,-330.11401)" /><g
     id="g10"
     transform="translate(0,-330.11401)" /><g
     id="g12"
     transform="translate(0,-330.11401)" /><g
     id="g14"
     transform="translate(0,-330.11401)" /><g
     id="g16"
     transform="translate(0,-330.11401)" /><g
     id="g18"
     transform="translate(0,-330.11401)" /><g
     id="g20"
     transform="translate(0,-330.11401)" /><g
     id="g22"
     transform="translate(0,-330.11401)" /><g
     id="g24"
     transform="translate(0,-330.11401)" /><g
     id="g26"
     transform="translate(0,-330.11401)" /><g
     id="g28"
     transform="translate(0,-330.11401)" /><g
     id="g30"
     transform="translate(0,-330.11401)" /><g
     id="g32"
     transform="translate(0,-330.11401)" /><g
     id="g34"
     transform="translate(0,-330.11401)" /></svg>