<?xml version="1.0" encoding="utf-8"?>
<!-- Generator: Adobe Illustrator 16.0.0, SVG Export Plug-In . SVG Version: 6.00 Build 0)  -->
<!DOCTYPE svg PUBLIC "-//W3C//DTD SVG 1.1//EN" "http://www.w3.org/Graphics/SVG/1.1/DTD/svg11.dtd">
<svg version="1.1" id="Layer_1" xmlns="http://www.w3.org/2000/svg" xmlns:xlink="http://www.w3.org/1999/xlink" x="0px" y="0px"
	 width="100px" height="100px" viewBox="0 0 100 100" enable-background="new 0 0 100 100" xml:space="preserve">
<path d="M10.879,23.188c-4.434,0-7.759-3.325-7.759-7.758s3.325-7.98,7.759-7.98h78.249c4.433,0,7.979,3.547,7.979,7.98
	s-3.547,7.758-7.979,7.758H10.879z"/>
<path d="M89.128,42.473c4.433,0,7.979,3.547,7.979,7.98s-3.547,7.758-7.979,7.758H10.879c-4.434,0-7.759-3.324-7.759-7.758
	s3.325-7.98,7.759-7.98H89.128z"/>
<path d="M89.128,77.718c4.433,0,7.979,3.325,7.979,7.76c0,4.433-3.547,7.979-7.979,7.979H10.879c-4.434,0-7.759-3.547-7.759-7.979
	c0-4.435,3.325-7.76,7.759-7.76H89.128z"/>
</svg>
