<?xml version="1.0" encoding="utf-8"?>
<!-- Generator: Adobe Illustrator 16.0.0, SVG Export Plug-In . SVG Version: 6.00 Build 0)  -->
<!DOCTYPE svg PUBLIC "-//W3C//DTD SVG 1.1//EN" "http://www.w3.org/Graphics/SVG/1.1/DTD/svg11.dtd">
<svg version="1.1" id="Capa_1" xmlns="http://www.w3.org/2000/svg" xmlns:xlink="http://www.w3.org/1999/xlink" x="0px" y="0px"
	 width="100px" height="100px" viewBox="0 0 100 100" enable-background="new 0 0 100 100" xml:space="preserve">
<path d="M66.556,52.418c-0.009,7.619-6.186,13.792-13.804,13.799h-4.388c-7.619-0.007-13.794-6.18-13.803-13.799v-36.28
	C34.58,8.526,40.752,2.363,48.364,2.356h4.388c7.618,0.007,13.795,6.181,13.804,13.799v36.279V52.418z M52.752,0h-4.388
	c-8.919,0.01-16.147,7.236-16.159,16.155v36.279c0.009,8.922,7.238,16.15,16.159,16.159h4.388
	c8.928-0.009,16.159-7.249,16.159-16.176v-36.28C68.892,7.226,61.664,0.009,52.752,0z"/>
<path d="M50.559,8.844c-1.142,0-2.066,0.925-2.066,2.066l0,0v7.546c0,1.14,0.924,2.066,2.066,2.066c1.141,0,2.066-0.926,2.066-2.066
	v-7.534c0.006-1.141-0.913-2.071-2.055-2.079C50.566,8.844,50.563,8.844,50.559,8.844z"/>
<path d="M50.478,71.821L50.478,71.821c-0.651-0.012-1.188,0.506-1.2,1.157c0,0.006,0,0.014,0,0.021l-0.085,21.984l-6.932-8.963
	c-0.399-0.516-1.139-0.61-1.654-0.212c-0.515,0.398-0.61,1.14-0.211,1.654l0,0l9.151,11.844c0.228,0.288,0.576,0.454,0.943,0.448
	l0,0c0.355,0.004,0.693-0.151,0.922-0.427l9.275-11.72c0.403-0.51,0.317-1.252-0.192-1.657c-0.512-0.404-1.253-0.317-1.657,0.192
	l-7.273,9.186l0.087-22.322c0.002-0.65-0.524-1.18-1.174-1.183l0,0V71.821z"/>
</svg>
