<?xml version="1.0" encoding="utf-8"?>
<!-- Generator: Adobe Illustrator 16.0.0, SVG Export Plug-In . SVG Version: 6.00 Build 0)  -->
<!DOCTYPE svg PUBLIC "-//W3C//DTD SVG 1.1//EN" "http://www.w3.org/Graphics/SVG/1.1/DTD/svg11.dtd">
<svg version="1.1"
	 id="Layer_1" xmlns:dc="http://purl.org/dc/elements/1.1/" xmlns:svg="http://www.w3.org/2000/svg" xmlns:cc="http://creativecommons.org/ns#" xmlns:rdf="http://www.w3.org/1999/02/22-rdf-syntax-ns#" xmlns:inkscape="http://www.inkscape.org/namespaces/inkscape" xmlns:sodipodi="http://sodipodi.sourceforge.net/DTD/sodipodi-0.dtd" sodipodi:docname="eye_2.svg" inkscape:version="0.48.4 r9939"
	 xmlns="http://www.w3.org/2000/svg" xmlns:xlink="http://www.w3.org/1999/xlink" x="0px" y="0px" width="100px" height="100px"
	 viewBox="0 0 100 100" enable-background="new 0 0 100 100" xml:space="preserve">
<sodipodi:namedview  id="namedview21" fit-margin-left="0" objecttolerance="10" fit-margin-top="0" pagecolor="#ffffff" borderopacity="1" gridtolerance="10" inkscape:cy="56.075698" inkscape:cx="19.903501" bordercolor="#666666" guidetolerance="10" inkscape:zoom="3.6875" showgrid="false" inkscape:window-maximized="1" inkscape:current-layer="Layer_1" inkscape:window-y="0" inkscape:window-x="0" fit-margin-right="0" fit-margin-bottom="2.7755576e-17" inkscape:window-height="743" inkscape:window-width="1366" inkscape:pageshadow="2" inkscape:pageopacity="0">
	</sodipodi:namedview>
<path id="icono_notas.svg" d="M65.908,71.885c0-3.311,2.683-5.994,5.994-5.994h25.972V7.993c0-3.308-2.683-5.989-5.989-5.989l0,0
	H7.997c-3.311,0-5.989,2.681-5.989,5.989l0,0v83.855c0,3.302,2.679,5.985,5.989,5.985l0,0H65.89V71.885H65.908z M73.894,73.876
	v23.749c3.065-0.573,5.912-1.983,8.241-4.057L93.613,82.09c2.078-2.329,3.479-5.176,4.057-8.241H73.894V73.876z"/>
</svg>
