<?xml version="1.0" encoding="utf-8"?>
<!-- Generator: Adobe Illustrator 16.0.0, SVG Export Plug-In . SVG Version: 6.00 Build 0)  -->
<!DOCTYPE svg PUBLIC "-//W3C//DTD SVG 1.1//EN" "http://www.w3.org/Graphics/SVG/1.1/DTD/svg11.dtd">
<svg version="1.1" id="Layer_1" xmlns="http://www.w3.org/2000/svg" xmlns:xlink="http://www.w3.org/1999/xlink" x="0px" y="0px"
	 width="100px" height="100px" viewBox="0 0 100 100" enable-background="new 0 0 100 100" xml:space="preserve">
<path d="M88.687,70.77c-1.755-1.695-22.082-7.594-24.041-8.6c-4.093-2.047-4.423-7.271-2.438-10.652
	c0.835-1.184,3.027-3.178,4.986-9.405c0.734,0.2,1.4,0.268,1.832-0.356c1.047-1.512,3.88-8.262,2.637-12.017
	c-0.594-1.803-1.641-2.232-2.335-2.302c0.722-5.875,0.681-6.878-0.129-10.922C67.4,7.524,58.498,3.43,50.988,3.43
	c-7.509,0-16.411,4.094-18.209,13.084c-0.809,4.044-0.849,5.048-0.128,10.922c-0.695,0.07-1.741,0.499-2.336,2.302
	c-1.251,3.791,1.583,10.494,2.638,12.017c0.432,0.624,1.097,0.557,1.832,0.356c1.927,6.127,4.007,8.264,4.943,9.361
	c1.907,3.676,1.71,8.645-2.396,10.695c-1.959,1.008-22.287,6.904-24.042,8.6c-4.186,4.045-5.19,12.354-5.136,16.182
	c0.028,1.924,10.952,11.216,42.834,11.216c31.883,0,42.807-9.292,42.835-11.216C93.877,83.121,92.873,74.813,88.687,70.77z
	 M50.988,96.165c-28.908,0-39.544-7.679-40.837-9.552c0.002-4.146,1.185-11.178,4.529-14.406c1.947-1.43,21.578-7.238,23.566-8.26
	c3.618-1.809,5.055-5.506,4.535-9.355c0.177,0.15-0.531-2.967-1.619-4.494c-2.035-2.855-3.701-6.311-4.842-9.786
	c-0.117-0.355-0.492-0.557-0.854-0.459l-1.145,0.312c-1.09-1.974-2.956-7.232-2.108-9.8c0.182-0.55,0.432-0.918,0.637-0.939
	l1.302-0.13c0.407-0.041,0.692-0.408,0.643-0.805c-0.837-6.839-0.886-7.425-0.055-11.584C36.318,9.021,44.27,5.43,50.988,5.43
	s14.671,3.591,16.248,11.476c0.83,4.154,0.784,4.741-0.055,11.584c-0.049,0.403,0.244,0.765,0.644,0.805l1.302,0.13
	c0.205,0.021,0.455,0.389,0.635,0.938c0.851,2.568-1.017,7.827-2.105,9.801l-1.145-0.312c-0.361-0.099-0.736,0.104-0.854,0.46
	C64.496,43.846,63.063,47.105,61,50c-0.719,1.008-1.583,2.875-1.902,4.678c-0.434,3.719,1.074,7.492,4.652,9.279
	c1.998,1.027,21.57,6.793,23.608,8.307c3.28,3.174,4.464,10.201,4.466,14.352C90.531,88.486,79.896,96.165,50.988,96.165z"/>
</svg>
