<?xml version="1.0" encoding="UTF-8" standalone="no"?>
<svg
   xmlns:dc="http://purl.org/dc/elements/1.1/"
   xmlns:cc="http://creativecommons.org/ns#"
   xmlns:rdf="http://www.w3.org/1999/02/22-rdf-syntax-ns#"
   xmlns:svg="http://www.w3.org/2000/svg"
   xmlns="http://www.w3.org/2000/svg"
   xmlns:sodipodi="http://sodipodi.sourceforge.net/DTD/sodipodi-0.dtd"
   xmlns:inkscape="http://www.inkscape.org/namespaces/inkscape"
   contentScriptType="text/ecmascript"
   contentStyleType="text/css"
   enable-background="new 0 0 2048 2048"
   height="100"
   id="Layer_1"
   preserveAspectRatio="xMidYMid meet"
   version="1.1"
   viewBox="0 0 100 99.999999"
   width="100"
   xml:space="preserve"
   zoomAndPan="magnify"
   inkscape:version="0.48.4 r9939"
   sodipodi:docname="edit_2.svg"><metadata
     id="metadata9"><rdf:RDF><cc:Work
         rdf:about=""><dc:format>image/svg+xml</dc:format><dc:type
           rdf:resource="http://purl.org/dc/dcmitype/StillImage" /></cc:Work></rdf:RDF></metadata><defs
     id="defs7" /><sodipodi:namedview
     pagecolor="#ffffff"
     bordercolor="#666666"
     borderopacity="1"
     objecttolerance="10"
     gridtolerance="10"
     guidetolerance="10"
     inkscape:pageopacity="0"
     inkscape:pageshadow="2"
     inkscape:window-width="1366"
     inkscape:window-height="713"
     id="namedview5"
     showgrid="false"
     fit-margin-top="0"
     fit-margin-left="0"
     fit-margin-right="0"
     fit-margin-bottom="0"
     inkscape:zoom="2.6074562"
     inkscape:cx="177.3508"
     inkscape:cy="78.56468"
     inkscape:window-x="0"
     inkscape:window-y="30"
     inkscape:window-maximized="1"
     inkscape:current-layer="Layer_1" /><path
     d="m 49.77578,69.14711 6.50225,-6.50224 -8.52018,-8.52018 -6.50224,6.50224 v 3.13902 h 5.38116 v 5.38116 h 3.13901 z M 74.43946,28.78837 c -0.59792,-0.59793 -1.21452,-0.57921 -1.84977,0.0561 L 52.97085,48.46331 c -0.63526,0.63525 -0.65398,1.25184 -0.0561,1.84977 0.59792,0.59793 1.21452,0.57921 1.84977,-0.056 L 74.38336,30.63824 c 0.63526,-0.63525 0.65398,-1.25185 0.0561,-1.84977 z m 4.48431,33.29596 v 10.65023 c 0,4.44691 -1.57887,8.24927 -4.73655,11.40695 -3.15768,3.15768 -6.96003,4.736539 -11.40695,4.736539 H 16.1435 c -4.44692,0 -8.24927,-1.578859 -11.40695,-4.736539 C 1.57887,80.98383 0,77.18147 0,72.73456 V 26.09778 C 0,21.65087 1.57887,17.84851 4.73655,14.69083 7.89423,11.53315 11.69658,9.9542902 16.1435,9.9542902 h 46.63677 c 2.35426,0 4.54036,0.4670898 6.5583,1.4013398 0.56053,0.26161 0.89686,0.69131 1.00896,1.28924 0.11211,0.63526 -0.0561,1.17713 -0.50448,1.62556 l -2.74664,2.74664 c -0.52315,0.52315 -1.12107,0.67264 -1.79372,0.44843 -0.85947,-0.22422 -1.70028,-0.33633 -2.52242,-0.33633 H 16.1435 c -2.46637,0 -4.57775,0.8782 -6.33408,2.63453 -1.75634,1.75634 -2.63453,3.86772 -2.63453,6.33408 v 46.63678 c 0,2.46636 0.87819,4.57774 2.63453,6.33408 1.75633,1.75633 3.86771,2.63453 6.33408,2.63453 h 46.63677 c 2.46637,0 4.57775,-0.8782 6.33408,-2.63453 1.75633,-1.75634 2.63453,-3.86772 2.63453,-6.33408 v -7.06278 c 0,-0.48582 0.16816,-0.89687 0.50448,-1.23319 l 3.58745,-3.58744 c 0.56054,-0.56054 1.21452,-0.69131 1.96188,-0.39238 0.74737,0.29894 1.12108,0.84081 1.12108,1.62556 z M 73.5426,20.71662 89.6861,36.86012 52.01794,74.52828 H 35.87444 V 58.38478 L 73.5426,20.71662 z m 24.88789,7.3991 -5.15695,5.15695 -16.1435,-16.1435 5.15696,-5.15695 c 1.04635,-1.04635 2.31687,-1.5695 3.81165,-1.5695 1.49479,0 2.76531,0.52315 3.81166,1.5695 l 8.52018,8.52018 C 99.47685,21.53876 100,22.80928 100,24.30406 c 0,1.49479 -0.52315,2.76531 -1.56951,3.81166 z"
     id="path3"
     inkscape:connector-curvature="0" /></svg>