<?xml version="1.0" encoding="utf-8"?>
<!-- Generator: Adobe Illustrator 16.0.0, SVG Export Plug-In . SVG Version: 6.00 Build 0)  -->
<!DOCTYPE svg PUBLIC "-//W3C//DTD SVG 1.1//EN" "http://www.w3.org/Graphics/SVG/1.1/DTD/svg11.dtd">
<svg version="1.1" id="Capa_1" xmlns="http://www.w3.org/2000/svg" xmlns:xlink="http://www.w3.org/1999/xlink" x="0px" y="0px"
	 width="100px" height="100px" viewBox="0 0 100 100" enable-background="new 0 0 100 100" xml:space="preserve">
<path d="M51.998,90.281H44.22v-7.778l35.358-35.346l7.78,7.778L51.998,90.281z M11.977,9.673h51.588v39.804l-27.6,27.604
	c-0.097,0.097-0.185,0.203-0.274,0.304H11.977V9.673z M97.612,51.501L83,36.887c-1.886-1.892-4.947-1.898-6.84-0.012
	c-0.003,0.003-0.009,0.007-0.012,0.012l-2.91,2.918V4.836c0-2.67-2.165-4.836-4.836-4.836H7.139c-2.67,0-4.836,2.166-4.836,4.836
	v77.385c0,2.671,2.166,4.836,4.836,4.836h27.407v8.061c0,2.673,2.166,4.836,4.836,4.836h14.62c1.283,0,2.515-0.509,3.421-1.418
	L97.617,58.34C99.507,56.451,99.503,53.389,97.612,51.501z"/>
</svg>
