<?xml version="1.0" encoding="UTF-8" standalone="no"?>
<!-- Generator: Adobe Illustrator 16.0.0, SVG Export Plug-In . SVG Version: 6.00 Build 0)  -->

<svg
   xmlns:dc="http://purl.org/dc/elements/1.1/"
   xmlns:cc="http://creativecommons.org/ns#"
   xmlns:rdf="http://www.w3.org/1999/02/22-rdf-syntax-ns#"
   xmlns:svg="http://www.w3.org/2000/svg"
   xmlns="http://www.w3.org/2000/svg"
   xmlns:sodipodi="http://sodipodi.sourceforge.net/DTD/sodipodi-0.dtd"
   xmlns:inkscape="http://www.inkscape.org/namespaces/inkscape"
   version="1.1"
   id="arrow_right"
   x="0px"
   y="0px"
   width="100"
   height="100"
   viewBox="-2 -2 100 100"
   enable-background="new -2 -2 100 98"
   xml:space="preserve"
   inkscape:version="0.91 r13725"
   sodipodi:docname="right_arrow.svg"><metadata
     id="metadata4859"><rdf:RDF><cc:Work
         rdf:about=""><dc:format>image/svg+xml</dc:format><dc:type
           rdf:resource="http://purl.org/dc/dcmitype/StillImage" /><dc:title></dc:title></cc:Work></rdf:RDF></metadata><defs
     id="defs4857" /><sodipodi:namedview
     pagecolor="#ffffff"
     bordercolor="#666666"
     borderopacity="1"
     objecttolerance="10"
     gridtolerance="10"
     guidetolerance="10"
     inkscape:pageopacity="0"
     inkscape:pageshadow="2"
     inkscape:window-width="1855"
     inkscape:window-height="1056"
     id="namedview4855"
     showgrid="false"
     inkscape:zoom="2.4081633"
     inkscape:cx="50"
     inkscape:cy="65.610169"
     inkscape:window-x="65"
     inkscape:window-y="24"
     inkscape:window-maximized="1"
     inkscape:current-layer="arrow_right" /><path
     d="m 3,41.804271 77.93,0 L 54.112,8.574063 c -1.953,-2.419015 -1.953,-6.34204 -0.003,-8.75905502 1.953,-2.42001498 5.12,-2.42001498 7.073,0 l 35.353,43.80427402 0,0 c 0.232,0.287002 0.439,0.604004 0.623,0.943006 0.082,0.156001 0.141,0.325002 0.215,0.487003 0.082,0.193001 0.178,0.375002 0.244,0.577004 0.07,0.209001 0.11,0.427002 0.16,0.644004 0.042,0.172001 0.096,0.337002 0.124,0.513003 C 97.966,47.186304 98,47.591307 98,47.99931 l 0,0 c 0,0.004 -0.001,0.009 -0.001,0.014 -10e-4,0.401 -0.033,0.804 -0.098,1.19901 -0.03,0.186 -0.087,0.358 -0.131,0.54 -0.049,0.207 -0.085,0.415 -0.153,0.615 -0.071,0.21601 -0.169,0.41101 -0.26,0.61301 -0.068,0.152 -0.121,0.307 -0.198,0.452 -0.183,0.343 -0.392,0.66201 -0.626,0.95201 L 61.18,96.18561 c -1.951,2.41902 -5.118,2.41902 -7.071,0.001 -1.952,-2.41901 -1.952,-6.34204 0,-8.76305 l 26.82,-33.22921 -77.929,0 c -2.761,0 -5,-2.77402 -5,-6.195038 0,-3.421022 2.239,-6.195039 5,-6.195039 z"
     id="path4853"
     inkscape:connector-curvature="0" /></svg>