<?xml version="1.0" encoding="utf-8"?>
<!-- Generator: Adobe Illustrator 16.0.0, SVG Export Plug-In . SVG Version: 6.00 Build 0)  -->
<!DOCTYPE svg PUBLIC "-//W3C//DTD SVG 1.1//EN" "http://www.w3.org/Graphics/SVG/1.1/DTD/svg11.dtd">
<svg version="1.1" id="Capa_1" xmlns="http://www.w3.org/2000/svg" xmlns:xlink="http://www.w3.org/1999/xlink" x="0px" y="0px"
	 width="100px" height="100px" viewBox="192.606 192.607 100 100" enable-background="new 192.606 192.607 100 100"
	 xml:space="preserve">
<g>
	<g>
		<path d="M289.859,276.604l-22.942-22.943c-3.418,5.316-7.941,9.838-13.258,13.256l22.943,22.943c3.663,3.662,9.602,3.662,13.256,0
			C293.521,286.205,293.521,280.266,289.859,276.604z"/>
		<path d="M267.606,230.107c0-20.708-16.791-37.5-37.5-37.5s-37.5,16.792-37.5,37.5s16.792,37.5,37.5,37.5
			S267.606,250.815,267.606,230.107z M230.106,258.23c-15.509,0-28.125-12.614-28.125-28.123c0-15.509,12.616-28.125,28.125-28.125
			c15.509,0,28.125,12.616,28.125,28.125C258.231,245.616,245.615,258.23,230.106,258.23z"/>
		<path d="M208.231,230.107h6.249c0-8.615,7.01-15.625,15.625-15.625v-6.25C218.046,208.232,208.231,218.047,208.231,230.107z"/>
	</g>
</g>
</svg>
