<?xml version="1.0" encoding="utf-8"?>
<!-- Generator: Adobe Illustrator 21.1.0, SVG Export Plug-In . SVG Version: 6.00 Build 0)  -->
<svg version="1.1" id="Capa_1" xmlns="http://www.w3.org/2000/svg" xmlns:xlink="http://www.w3.org/1999/xlink" x="0px" y="0px"
	 viewBox="0 0 100 100" style="enable-background:new 0 0 100 100;" xml:space="preserve">
<style type="text/css">
	.g-icon-silver-0{fill:#314675;}
	.g-icon-silver-1{fill:#E0DFDE;}
	.g-icon-silver-2{fill:#395092;}
	.g-icon-silver-3{fill:#CCCCCC;}
	.g-icon-silver-4{fill:#E8E8E8;}
</style>
<polygon class="g-icon-silver-0" points="37.2,21.8 63,21.8 85.7,0 59.9,0 37.2,21.8 "/>
<path class="g-icon-silver-1" d="M35.4,29.3h28.3v-7.7H35.4V29.3L35.4,29.3z M67.8,33.5H31.2v-16h36.6V33.5L67.8,33.5z"/>
<polygon class="g-icon-silver-2" points="63,21.8 37.2,21.8 14.4,0 40.4,0 63,21.8 "/>
<path class="g-icon-silver-3" d="M49.5,22.9C70.8,22.9,88,40.1,88,61.4S70.8,99.8,49.5,99.8S11,82.6,11,61.4S28.3,22.9,49.5,22.9L49.5,22.9z"/>
<path class="g-icon-silver-4" d="M49.5,90.5c-16,0-29.1-13.1-29.1-29.1s13.1-29.1,29.1-29.1s29.1,13.1,29.1,29.1S65.5,90.5,49.5,90.5L49.5,90.5z
	"/>
<polygon class="g-icon-silver-3" points="49.5,35.2 55.5,53.5 74.9,53.5 59.1,64.9 65.1,83.2 49.5,71.8 33.9,83.2 39.9,64.9 24.1,53.5
	43.5,53.5 49.5,35.2 "/>
</svg>
