<?xml version="1.0" encoding="utf-8"?>
<!-- Generator: Adobe Illustrator 16.0.0, SVG Export Plug-In . SVG Version: 6.00 Build 0)  -->
<!DOCTYPE svg PUBLIC "-//W3C//DTD SVG 1.1//EN" "http://www.w3.org/Graphics/SVG/1.1/DTD/svg11.dtd">
<svg version="1.1" id="Capa_1" xmlns="http://www.w3.org/2000/svg" xmlns:xlink="http://www.w3.org/1999/xlink" x="0px" y="0px"
	 width="100px" height="100px" viewBox="0 0 100 100" enable-background="new 0 0 100 100" xml:space="preserve">
<path id="Forma_1.svg" d="M42.081,4.468c-0.143-1.018,0.565-1.959,1.582-2.104c1.018-0.144,1.96,0.564,2.104,1.582l2.947,20.866
	c0.145,1.019-0.564,1.961-1.582,2.106c-0.087,0.012-0.176,0.018-0.263,0.018c-0.927-0.002-1.712-0.685-1.841-1.603L42.081,4.468z
	 M91.139,11.605l-1.455,1.458c-0.713,0.742-0.691,1.921,0.053,2.634c0.721,0.691,1.857,0.692,2.576,0.001l1.459-1.458l1.459,1.458
	c0.742,0.711,1.922,0.686,2.633-0.057c0.689-0.721,0.689-1.858-0.002-2.579l-1.457-1.458l1.457-1.458
	c0.713-0.742,0.689-1.921-0.053-2.634c-0.721-0.691-1.857-0.692-2.578-0.001L93.771,8.97l-1.459-1.458
	c-0.742-0.711-1.92-0.687-2.631,0.057c-0.691,0.721-0.691,1.858,0.002,2.579L91.139,11.605z M37.139,35.813
	c0.625,0.816,1.794,0.97,2.61,0.344c0.816-0.626,0.97-1.795,0.345-2.611l0,0l-16.43-21.474c-0.623-0.818-1.791-0.977-2.608-0.354
	c-0.818,0.623-0.977,1.791-0.354,2.608c0.003,0.004,0.006,0.008,0.008,0.012L37.139,35.813z M6.598,18.402l0.616,0.473
	c0.815,0.626,1.985,0.472,2.612-0.344c0.626-0.815,0.472-1.985-0.344-2.612l0,0l-0.616-0.474C8.05,14.82,6.88,14.974,6.254,15.79
	C5.628,16.606,5.782,17.775,6.598,18.402z M5.028,41.502c-1.022-0.135-1.96,0.584-2.094,1.606c-0.135,1.022,0.583,1.959,1.605,2.095
	l0,0l19.032,2.523c1.021,0.135,1.959-0.584,2.094-1.606c0.135-1.022-0.583-1.96-1.605-2.095L5.028,41.502z M12.667,23.073
	L30.75,36.988c0.828,0.611,1.994,0.435,2.605-0.394c0.594-0.806,0.445-1.937-0.337-2.561l-18.09-13.923
	c-0.817-0.626-1.988-0.471-2.614,0.346c-0.626,0.818-0.471,1.988,0.347,2.614L12.667,23.073z M52.691,27.11
	c0.084,0.012,0.17,0.018,0.254,0.018c0.932-0.002,1.717-0.691,1.842-1.613l2.852-21.046c0.16-1.015-0.531-1.97-1.547-2.131
	s-1.969,0.53-2.131,1.545c-0.004,0.028-0.01,0.058-0.012,0.086l-2.852,21.045c-0.135,1.016,0.574,1.951,1.59,2.092L52.691,27.11z
	 M95.117,53.451l-25.525-3.386c-1.021-0.122-1.949,0.608-2.07,1.63c-0.119,1.004,0.582,1.92,1.582,2.064l25.525,3.387
	c0.082,0.01,0.164,0.016,0.246,0.016c1.031,0.012,1.873-0.813,1.887-1.842c0.012-0.957-0.703-1.766-1.652-1.875L95.117,53.451z
	 M96.727,43.177c-0.133-1.02-1.066-1.738-2.086-1.606c0,0,0,0-0.002,0l-19.148,2.51c-1.021,0.133-1.74,1.069-1.607,2.089
	c0.121,0.927,0.91,1.621,1.846,1.623c0.082,0,0.164-0.005,0.244-0.017l19.15-2.51c1.02-0.139,1.732-1.076,1.596-2.094L96.727,43.177
	z M84.76,20.167L66.742,33.991c-0.818,0.625-0.973,1.794-0.348,2.612c0.625,0.817,1.793,0.972,2.611,0.348l0,0l18.018-13.825
	c0.813-0.63,0.963-1.8,0.332-2.613C86.73,19.706,85.572,19.552,84.76,20.167z M79.783,10.257c0.811,0.628,1.979,0.479,2.605-0.333
	c0-0.001,0.004-0.002,0.004-0.003l0.164-0.213c0.643-0.801,0.516-1.974-0.285-2.618c-0.801-0.645-1.973-0.518-2.617,0.284
	c-0.018,0.02-0.033,0.041-0.049,0.062l-0.164,0.214c-0.625,0.814-0.473,1.98,0.34,2.608H79.783z M83.096,5.938
	c0.813,0.628,1.979,0.479,2.605-0.333c0.002-0.001,0.002-0.002,0.004-0.003l0.174-0.225c0.645-0.801,0.518-1.974-0.283-2.619
	c-0.803-0.645-1.975-0.518-2.619,0.284c-0.018,0.02-0.033,0.041-0.049,0.062l-0.172,0.224c-0.625,0.815-0.475,1.981,0.336,2.61
	H83.096z M60.012,36.044c0.813,0.626,1.98,0.474,2.607-0.339c0-0.001,0.002-0.002,0.002-0.003l16.365-21.326
	c0.641-0.804,0.51-1.976-0.293-2.618c-0.805-0.642-1.977-0.51-2.619,0.293c-0.012,0.018-0.027,0.035-0.039,0.053L59.67,33.432
	c-0.627,0.815-0.475,1.985,0.34,2.613H60.012z M3.757,13.864c0.626-0.816,0.473-1.985-0.342-2.612l-0.324-0.25
	c-0.816-0.626-1.985-0.472-2.612,0.345c-0.625,0.816-0.472,1.985,0.345,2.611l0.324,0.249c0.813,0.625,1.98,0.473,2.605-0.341
	c0,0,0.001-0.001,0.002-0.002H3.757z M61.693,63.826c0.248,0.998-0.359,2.008-1.357,2.256c-0.508,0.127-1.045,0.033-1.48-0.258
	l-8.717-5.822l-9.397,5.855c-0.873,0.543-2.021,0.275-2.563-0.6c-0.276-0.443-0.353-0.984-0.211-1.488l2.834-10.102l-8.462-7.141
	c-0.788-0.663-0.888-1.839-0.226-2.626c0.336-0.4,0.825-0.64,1.347-0.662l10.469-0.421l4.167-10.267
	c0.385-0.953,1.471-1.411,2.423-1.025c0.485,0.197,0.864,0.589,1.045,1.081l3.635,9.841l11.039,0.795
	c1.027,0.076,1.799,0.97,1.723,1.998c-0.039,0.52-0.293,1-0.701,1.324l-8.225,6.504L61.693,63.826z M55.791,50.887l5.398-4.271
	l-7.447-0.537c-0.73-0.053-1.361-0.527-1.613-1.212l-2.387-6.462l-2.813,6.929c-0.274,0.678-0.919,1.132-1.649,1.161l-6.875,0.277
	l5.711,4.821c0.559,0.473,0.791,1.227,0.594,1.93l-1.863,6.637l6.344-3.953c0.621-0.389,1.411-0.375,2.019,0.031l5.727,3.824
	l-1.795-7.262c-0.178-0.711,0.076-1.457,0.648-1.912H55.791z M86.582,94.307c-0.627-0.816-1.795-0.969-2.611-0.344
	c-0.814,0.627-0.969,1.795-0.342,2.611l0,0l0.268,0.354c0.609,0.828,1.775,1.006,2.604,0.398c0.83-0.609,1.01-1.775,0.4-2.605
	c-0.016-0.021-0.031-0.043-0.049-0.063L86.582,94.307z M5.056,36.167l1.458-1.458l1.458,1.458c0.743,0.712,1.922,0.686,2.633-0.057
	c0.69-0.721,0.69-1.858-0.001-2.579l-1.458-1.458l1.458-1.458c0.73-0.725,0.734-1.904,0.009-2.634
	c-0.725-0.73-1.904-0.734-2.634-0.01c-0.002,0.002-0.004,0.005-0.007,0.007l-1.458,1.458L5.056,27.98
	c-0.73-0.725-1.909-0.72-2.634,0.009c-0.722,0.728-0.721,1.901,0.002,2.627l1.458,1.458l-1.458,1.458
	c-0.688,0.765-0.626,1.943,0.138,2.63c0.707,0.636,1.778,0.638,2.487,0.005H5.056z M83.008,89.625l-0.27-0.354
	c-0.609-0.83-1.775-1.006-2.605-0.398c-0.828,0.607-1.006,1.775-0.398,2.602c0.016,0.023,0.033,0.045,0.049,0.066l0.27,0.352
	c0.586,0.844,1.746,1.055,2.592,0.471c0.844-0.586,1.055-1.746,0.469-2.592c-0.035-0.051-0.074-0.098-0.113-0.146H83.008z
	 M97.896,68.064l1.459-1.459c0.73-0.725,0.734-1.902,0.01-2.635c-0.725-0.729-1.904-0.734-2.635-0.008
	c-0.002,0.002-0.006,0.004-0.008,0.006l-1.457,1.459l-1.459-1.459c-0.742-0.709-1.92-0.686-2.633,0.057
	c-0.689,0.723-0.689,1.859,0.002,2.58l1.457,1.457l-1.457,1.459c-0.727,0.727-0.729,1.904-0.002,2.633
	c0.729,0.729,1.908,0.729,2.635,0.002l1.459-1.459l1.457,1.459c0.742,0.711,1.922,0.686,2.633-0.057
	c0.691-0.721,0.691-1.857,0-2.578L97.896,68.064z M86.988,75.57L69.646,62.225c-0.836-0.6-2-0.408-2.6,0.426
	c-0.574,0.797-0.43,1.904,0.33,2.527l17.344,13.346c0.813,0.625,1.977,0.477,2.604-0.336c0.002-0.002,0.004-0.004,0.006-0.006
	c0.623-0.818,0.467-1.984-0.348-2.611H86.988z M69.686,72.213c-0.611-0.828-1.777-1.004-2.605-0.393
	c-0.826,0.611-1.004,1.777-0.393,2.604c0.014,0.021,0.029,0.039,0.043,0.057l9.252,12.094c0.561,0.863,1.715,1.105,2.578,0.545
	s1.107-1.715,0.545-2.578c-0.055-0.08-0.113-0.158-0.178-0.23L69.686,72.213z M32.687,62.473c-0.623-0.816-1.79-0.973-2.606-0.35
	c-0.001,0.002-0.002,0.002-0.003,0.004L12.62,75.514c-0.817,0.627-0.973,1.795-0.348,2.613c0.625,0.816,1.793,0.973,2.611,0.348
	l17.451-13.389c0.815-0.629,0.97-1.797,0.345-2.613H32.687z M13.769,87.16c-0.724-0.727-1.9-0.729-2.626-0.006
	c-0.001,0.002-0.003,0.004-0.005,0.006l-1.458,1.457L8.221,87.16c-0.743-0.711-1.922-0.688-2.634,0.055
	c-0.69,0.723-0.69,1.859,0.001,2.58l1.458,1.457l-1.458,1.459c-0.743,0.711-0.768,1.891-0.056,2.633
	c0.711,0.744,1.89,0.768,2.633,0.057c0.019-0.018,0.037-0.035,0.055-0.055l1.458-1.457l1.458,1.457
	c0.73,0.725,1.909,0.721,2.634-0.008c0.722-0.729,0.721-1.902-0.002-2.629l-1.458-1.457l1.458-1.459
	c0.724-0.729,0.722-1.906-0.007-2.633H13.769z M31.977,51.66c-0.135-1.02-1.067-1.737-2.087-1.606L4.533,53.379
	c-1.021,0.133-1.74,1.068-1.606,2.09c0.121,0.926,0.91,1.621,1.845,1.621c0.082,0,0.164-0.006,0.245-0.016l25.356-3.324
	c1.017-0.139,1.731-1.072,1.598-2.09H31.977z M54.787,73.516c-0.117-1.02-1.041-1.754-2.063-1.639
	c-1.021,0.117-1.754,1.039-1.637,2.063c0.002,0.025,0.006,0.051,0.01,0.078l2.85,21.045c0.125,0.922,0.912,1.611,1.842,1.613
	c0.084,0,0.168-0.006,0.252-0.016c1.02-0.141,1.732-1.078,1.594-2.098L54.787,73.516z M47.138,72.113
	c-1.019-0.145-1.96,0.566-2.103,1.584l0,0l-2.947,20.865c-0.145,1.018,0.563,1.961,1.581,2.105c0.087,0.014,0.175,0.02,0.263,0.018
	c0.928,0,1.712-0.684,1.841-1.6l2.946-20.865c0.145-1.02-0.564-1.963-1.584-2.107c-0.001,0-0.003,0-0.004,0H47.138z M32.544,71.842
	c-0.813-0.625-1.981-0.475-2.607,0.34c0,0-0.001,0-0.002,0.002l-9.271,12.08c-0.642,0.803-0.51,1.975,0.293,2.617
	c0.804,0.641,1.976,0.51,2.618-0.293c0.014-0.018,0.027-0.035,0.041-0.053l9.271-12.08c0.624-0.818,0.468-1.986-0.349-2.613H32.544z
	"/>
</svg>
