<?xml version="1.0" encoding="UTF-8" standalone="no"?>
<!-- Generator: Adobe Illustrator 16.0.0, SVG Export Plug-In . SVG Version: 6.00 Build 0)  -->

<svg
   xmlns:dc="http://purl.org/dc/elements/1.1/"
   xmlns:cc="http://creativecommons.org/ns#"
   xmlns:rdf="http://www.w3.org/1999/02/22-rdf-syntax-ns#"
   xmlns:svg="http://www.w3.org/2000/svg"
   xmlns="http://www.w3.org/2000/svg"
   xmlns:sodipodi="http://sodipodi.sourceforge.net/DTD/sodipodi-0.dtd"
   xmlns:inkscape="http://www.inkscape.org/namespaces/inkscape"
   version="1.1"
   id="Capa_1"
   x="0px"
   y="0px"
   width="100"
   height="100"
   viewBox="0 0 100 99.999998"
   xml:space="preserve"
   inkscape:version="0.91 r13725"
   sodipodi:docname="tower-block-front-view.svg"><metadata
     id="metadata41"><rdf:RDF><cc:Work
         rdf:about=""><dc:format>image/svg+xml</dc:format><dc:type
           rdf:resource="http://purl.org/dc/dcmitype/StillImage" /><dc:title></dc:title></cc:Work></rdf:RDF></metadata><defs
     id="defs39" /><sodipodi:namedview
     pagecolor="#ffffff"
     bordercolor="#666666"
     borderopacity="1"
     objecttolerance="10"
     gridtolerance="10"
     guidetolerance="10"
     inkscape:pageopacity="0"
     inkscape:pageshadow="2"
     inkscape:window-width="1920"
     inkscape:window-height="1016"
     id="namedview37"
     showgrid="false"
     inkscape:zoom="5.6796087"
     inkscape:cx="75.585328"
     inkscape:cy="42.962395"
     inkscape:window-x="0"
     inkscape:window-y="27"
     inkscape:window-maximized="1"
     inkscape:current-layer="Capa_1" /><g
     id="g3"
     transform="matrix(0.21271561,0,0,0.21271663,0.407238,-1e-5)"><path
       d="m 101.51,0 0,470.109 102.684,0 0,-105 61.72,0 0,105 102.685,0 L 368.599,0 101.51,0 Z m 114.808,315.512 -61.721,0 0,-61.721 61.721,0 0,61.721 z m 0,-99.193 -61.721,0 0,-61.721 61.721,0 0,61.721 z m 0,-99.195 -61.721,0 0,-61.721 61.721,0 0,61.721 z m 99.193,198.388 -61.721,0 0,-61.721 61.722,0 0,61.721 z m 0,-99.193 -61.721,0 0,-61.721 61.722,0 0,61.721 z m 0,-99.195 -61.721,0 0,-61.721 61.722,0 0,61.721 z"
       id="path5"
       inkscape:connector-curvature="0" /></g><g
     id="g7"
     transform="translate(0,-370.10901)" /><g
     id="g9"
     transform="translate(0,-370.10901)" /><g
     id="g11"
     transform="translate(0,-370.10901)" /><g
     id="g13"
     transform="translate(0,-370.10901)" /><g
     id="g15"
     transform="translate(0,-370.10901)" /><g
     id="g17"
     transform="translate(0,-370.10901)" /><g
     id="g19"
     transform="translate(0,-370.10901)" /><g
     id="g21"
     transform="translate(0,-370.10901)" /><g
     id="g23"
     transform="translate(0,-370.10901)" /><g
     id="g25"
     transform="translate(0,-370.10901)" /><g
     id="g27"
     transform="translate(0,-370.10901)" /><g
     id="g29"
     transform="translate(0,-370.10901)" /><g
     id="g31"
     transform="translate(0,-370.10901)" /><g
     id="g33"
     transform="translate(0,-370.10901)" /><g
     id="g35"
     transform="translate(0,-370.10901)" /></svg>