<?xml version="1.0" encoding="utf-8"?>
<!-- Generator: Adobe Illustrator 16.0.0, SVG Export Plug-In . SVG Version: 6.00 Build 0)  -->
<!DOCTYPE svg PUBLIC "-//W3C//DTD SVG 1.1//EN" "http://www.w3.org/Graphics/SVG/1.1/DTD/svg11.dtd">
<svg version="1.1" id="Capa_1" xmlns="http://www.w3.org/2000/svg" xmlns:xlink="http://www.w3.org/1999/xlink" x="0px" y="0px"
	 width="100px" height="100px" viewBox="-231.5 4.5 100 100" enable-background="new -231.5 4.5 100 100" xml:space="preserve">
<g>
	<g>
		<path d="M-181.5,4.5c-27.569,0-50,22.432-50,50s22.431,50,50,50c27.568,0,50-22.432,50-50S-153.928,4.5-181.5,4.5z
			 M-159.195,43.056c0.021,0.496,0.033,0.996,0.033,1.493c0,15.209-11.572,32.739-32.745,32.739c-6.499,0-12.548-1.899-17.64-5.167
			c0.9,0.106,1.815,0.162,2.746,0.162c5.393,0,10.353-1.841,14.292-4.927c-5.035-0.093-9.287-3.419-10.75-7.993
			c0.7,0.134,1.424,0.206,2.164,0.206c1.048,0,2.067-0.136,3.033-0.399c-5.265-1.056-9.23-5.706-9.23-11.285
			c0-0.048,0-0.099,0.002-0.144c1.55,0.859,3.324,1.379,5.21,1.438c-3.086-2.061-5.118-5.586-5.118-9.576
			c0-2.112,0.566-4.089,1.556-5.789c5.674,6.965,14.157,11.544,23.72,12.027c-0.197-0.844-0.297-1.721-0.297-2.623
			c0-6.355,5.153-11.51,11.508-11.51c3.31,0,6.298,1.398,8.4,3.635c2.623-0.516,5.08-1.472,7.311-2.795
			c-0.865,2.69-2.685,4.942-5.068,6.368c2.33-0.277,4.555-0.894,6.61-1.81C-154.993,39.41-156.945,41.438-159.195,43.056z"/>
	</g>
</g>
</svg>
