<?xml version="1.0" encoding="UTF-8" standalone="no"?>
<svg
   xmlns:dc="http://purl.org/dc/elements/1.1/"
   xmlns:cc="http://creativecommons.org/ns#"
   xmlns:rdf="http://www.w3.org/1999/02/22-rdf-syntax-ns#"
   xmlns:svg="http://www.w3.org/2000/svg"
   xmlns="http://www.w3.org/2000/svg"
   xmlns:sodipodi="http://sodipodi.sourceforge.net/DTD/sodipodi-0.dtd"
   xmlns:inkscape="http://www.inkscape.org/namespaces/inkscape"
   width="100"
   height="100"
   viewBox="0 0 100 100"
   id="svg2"
   version="1.1"
   inkscape:version="0.91 r13725"
   sodipodi:docname="twitter-square.svg">
  <metadata
     id="metadata10">
    <rdf:RDF>
      <cc:Work
         rdf:about="">
        <dc:format>image/svg+xml</dc:format>
        <dc:type
           rdf:resource="http://purl.org/dc/dcmitype/StillImage" />
        <dc:title></dc:title>
      </cc:Work>
    </rdf:RDF>
  </metadata>
  <defs
     id="defs8" />
  <sodipodi:namedview
     pagecolor="#ffffff"
     bordercolor="#666666"
     borderopacity="1"
     objecttolerance="10"
     gridtolerance="10"
     guidetolerance="10"
     inkscape:pageopacity="0"
     inkscape:pageshadow="2"
     inkscape:window-width="795"
     inkscape:window-height="480"
     id="namedview6"
     showgrid="false"
     inkscape:zoom="2.97995"
     inkscape:cx="95.059048"
     inkscape:cy="44.582931"
     inkscape:window-x="0"
     inkscape:window-y="39"
     inkscape:window-maximized="0"
     inkscape:current-layer="svg2" />
  <path
     d="m 83.333333,31.380208 q -3.645833,1.627604 -7.877604,2.213542 4.427083,-2.604167 6.054688,-7.617188 -4.231771,2.473959 -8.723959,3.320313 Q 68.815104,25 62.825521,25 q -5.664063,0 -9.667969,4.003906 -4.003906,4.003906 -4.003906,9.667969 0,1.888021 0.325521,3.125 -8.398438,-0.455729 -15.755209,-4.231771 -7.35677,-3.776042 -12.5,-10.091146 -1.888021,3.255209 -1.888021,6.901042 0,7.421875 5.92448,11.393229 -3.059896,-0.0651 -6.510417,-1.692708 l 0,0.130208 q 0,4.882813 3.255208,8.691406 3.255209,3.808594 8.007813,4.720052 -1.888021,0.520834 -3.320313,0.520834 -0.846354,0 -2.539062,-0.260417 1.367187,4.101563 4.85026,6.770833 3.483073,2.669271 7.910156,2.734375 -7.552083,5.859375 -16.992187,5.859375 -1.692708,0 -3.255208,-0.195312 9.635416,6.119792 20.963541,6.119792 7.291667,0 13.671875,-2.311198 6.380209,-2.311198 10.9375,-6.184896 4.557292,-3.873698 7.845052,-8.919271 3.287761,-5.045573 4.882813,-10.546875 1.595052,-5.501302 1.595052,-10.970052 0,-1.171875 -0.0651,-1.757813 4.101562,-2.929687 6.835937,-7.096354 z M 100,18.75 l 0,62.5 q 0,7.747396 -5.501302,13.248698 Q 88.997396,100 81.25,100 l -62.5,0 Q 11.002604,100 5.5013021,94.498698 0,88.997396 0,81.25 L 0,18.75 Q 0,11.002604 5.5013021,5.5013021 11.002604,0 18.75,0 l 62.5,0 Q 88.997396,0 94.498698,5.5013021 100,11.002604 100,18.75 Z"
     id="path4"
     inkscape:connector-curvature="0" />
</svg>
