<?xml version="1.0" encoding="utf-8"?>
<!-- Generator: Adobe Illustrator 16.0.0, SVG Export Plug-In . SVG Version: 6.00 Build 0)  -->
<!DOCTYPE svg PUBLIC "-//W3C//DTD SVG 1.1//EN" "http://www.w3.org/Graphics/SVG/1.1/DTD/svg11.dtd">
<svg version="1.1" id="Capa_1" xmlns="http://www.w3.org/2000/svg" xmlns:xlink="http://www.w3.org/1999/xlink" x="0px" y="0px"
	 width="100px" height="100px" viewBox="169.268 169.269 100 100" enable-background="new 169.268 169.269 100 100"
	 xml:space="preserve">
<g>
	<g>
		<path d="M263.767,174.77c-3.666-3.667-8.083-5.5-13.247-5.5h-62.501c-5.165,0-9.582,1.833-13.25,5.5
			c-3.667,3.667-5.501,8.084-5.501,13.249v62.5c0,5.164,1.834,9.581,5.501,13.249c3.668,3.668,8.085,5.502,13.25,5.502h62.5
			c5.164,0,9.582-1.834,13.247-5.502c3.668-3.668,5.502-8.084,5.502-13.249v-62.5C269.268,182.854,267.434,178.437,263.767,174.77z
			 M228.319,183.721h4.362v17.708c0,1.042,0.021,1.607,0.063,1.693c0.044,0.695,0.393,1.042,1.043,1.042
			c0.868,0,1.78-0.672,2.734-2.018v-18.425h4.362v24.089h-4.362h-0.002v-2.605c-1.779,1.953-3.449,2.93-5.012,2.93
			c-1.389,0-2.321-0.585-2.8-1.758c-0.261-0.781-0.39-1.975-0.39-3.581V183.721L228.319,183.721z M211.847,191.534
			c0-2.517,0.456-4.406,1.368-5.664c1.171-1.649,2.864-2.474,5.077-2.474c2.127,0,3.821,0.826,5.078,2.474
			c0.912,1.259,1.368,3.147,1.368,5.664v8.464c0,2.604-0.456,4.492-1.368,5.664c-1.257,1.65-2.95,2.475-5.078,2.475
			c-2.213,0-3.906-0.825-5.077-2.475c-0.912-1.259-1.368-3.147-1.368-5.664V191.534z M200.128,175.453l3.451,12.696l3.32-12.696
			h4.883l-5.859,19.271h0v13.086h-4.817v-13.086c-0.478-2.387-1.476-5.816-2.995-10.286c-0.998-2.995-1.498-4.492-1.498-4.492
			l-1.563-4.493H200.128L200.128,175.453z M253.775,254.035c-0.434,1.865-1.355,3.449-2.768,4.752
			c-1.409,1.302-3.047,2.062-4.914,2.279c-5.945,0.65-14.888,0.977-26.823,0.977c-11.936,0-20.877-0.326-26.823-0.977
			c-1.866-0.218-3.504-0.978-4.915-2.279c-1.411-1.303-2.333-2.887-2.767-4.752c-0.868-3.646-1.301-9.289-1.301-16.928
			c0-7.51,0.434-13.15,1.301-16.928c0.435-1.909,1.356-3.505,2.767-4.786c1.411-1.281,3.071-2.03,4.98-2.246
			c5.902-0.652,14.822-0.977,26.758-0.977c11.979,0,20.921,0.326,26.823,0.977c1.867,0.217,3.515,0.965,4.946,2.246
			c1.433,1.28,2.367,2.875,2.801,4.786c0.823,3.603,1.236,9.244,1.236,16.928C255.078,244.745,254.643,250.387,253.775,254.035z"/>
		<polygon points="188.799,225.063 193.877,225.063 193.877,252.601 198.695,252.601 198.695,225.063 203.904,225.063 
			203.904,220.505 188.799,220.505 		"/>
		<path d="M212.628,246.938c-0.955,1.344-1.867,2.017-2.734,2.017c-0.608,0-0.934-0.325-0.977-0.976
			c-0.043-0.087-0.065-0.651-0.065-1.693v-17.579h-4.297v18.881c0,1.649,0.13,2.821,0.391,3.515
			c0.391,1.216,1.302,1.822,2.734,1.822c1.606,0,3.255-0.976,4.948-2.93v2.605h4.361v-23.892h-4.361V246.938L212.628,246.938z"/>
		<path d="M229.492,228.382c-1.563,0-3.039,0.868-4.427,2.604v-10.481h-4.362v32.096h4.362v-2.344
			c1.431,1.779,2.908,2.669,4.427,2.669c1.779,0,2.929-0.912,3.449-2.734c0.304-0.911,0.455-2.495,0.455-4.752v-9.505
			c0-2.301-0.153-3.907-0.455-4.818C232.42,229.293,231.271,228.382,229.492,228.382z M229.1,245.765
			c0,2.127-0.629,3.188-1.889,3.19c-0.736,0-1.453-0.348-2.148-1.042V233.33c0.695-0.692,1.412-1.04,2.148-1.04
			c1.26,0,1.889,1.084,1.889,3.254V245.765z"/>
		<path d="M245.309,245.733c0,0.456-0.011,0.813-0.031,1.074c-0.021,0.261-0.033,0.412-0.033,0.455
			c-0.26,1.128-0.911,1.691-1.952,1.691c-1.477,0-2.215-1.106-2.215-3.319v-4.231h8.659v-4.948c0-2.517-0.455-4.383-1.367-5.599
			c-1.17-1.648-2.863-2.475-5.077-2.475c-2.215,0-3.95,0.825-5.21,2.475c-0.867,1.172-1.302,3.04-1.302,5.599v8.398
			c0,2.562,0.456,4.428,1.367,5.601c1.26,1.648,3.018,2.474,5.275,2.474c2.3,0,4.035-0.867,5.209-2.604
			c0.52-0.781,0.847-1.649,0.977-2.604c0.086-0.608,0.13-1.542,0.13-2.8v-0.585v-0.001h-4.429L245.309,245.733L245.309,245.733
			L245.309,245.733z M241.08,235.609c0-2.213,0.717-3.319,2.148-3.319c1.433,0,2.148,1.105,2.148,3.319v2.215h-4.297V235.609z"/>
		<path d="M218.292,204.163c1.389,0,2.083-1.106,2.083-3.32v-10.156c0-2.256-0.694-3.386-2.083-3.386
			c-1.389,0-2.083,1.129-2.083,3.386v10.156C216.209,203.056,216.903,204.163,218.292,204.163z"/>
	</g>
</g>
</svg>
