<?xml version="1.0" encoding="UTF-8" standalone="no"?>
<!-- Generator: Adobe Illustrator 22.1.0, SVG Export Plug-In . SVG Version: 6.00 Build 0)  -->
<svg id="Capa_1" style="enable-background:new 0 0 850.3 168.9" xmlns="http://www.w3.org/2000/svg" xml:space="preserve" viewBox="0 0 850.3 168.9" version="1.1" y="0px" x="0px" xmlns:xlink="http://www.w3.org/1999/xlink">
<style type="text/css">
	.st0{fill:#FFFFFF;}
</style>
	<polygon points="313.4 71 367.1 102 313.4 133" class="st0"/>
	<path class="st0" d="m63.3 114.5l12.2 12.5c-6 6.3-17.7 10.5-27.6 10.5-20.2 0-35.9-14.8-35.9-35.6 0-20.4 15.1-35.2 34.8-35.2 21.2 0 33.7 16.1 33.7 41.6h-48.9c2.2 7.3 8.1 12.3 16.1 12.3 5.4 0 12-2.5 15.6-6.1zm-31.4-20h30.3c-1.8-6.7-6.8-11-14.5-11-7.3 0-13.3 4.2-15.8 11z"/>
	<path class="st0" d="m128.8 135.9l-14.7-20.4-14.8 20.4h-20.1l24.9-34.4-23.9-33.3h20.7l13.5 18.8 13.6-18.8h20.2l-23.7 32.8 24.9 34.8-20.6 0.1z"/>
	<path class="st0" d="m224.8 102c0 20.8-13.1 35.5-31.2 35.5-9.4 0-17.3-4.1-22.7-11.1v32.1h-19.1v-90.3h19.2v9.4c5.4-6.9 13.2-11 22.7-11 18 0 31.1 14.7 31.1 35.4zm-18.6 0c0-11.3-7.5-19.3-18.1-19.3-9.3 0-16.1 6.8-17.2 16.6v5.2c1 10 7.9 16.8 17.2 16.8 10.7 0 18.1-8 18.1-19.3z"/>
	<path class="st0" d="m226.7 102c0-19.3 16.9-35.4 37.1-35.4 20 0 36.8 16.1 36.8 35.4s-16.8 35.5-36.8 35.5c-20.2-0.1-37.1-16.3-37.1-35.5zm55.6 0c0-10.5-8.5-19.3-18.6-19.3-10.2 0-18.7 8.8-18.7 19.3s8.5 19.4 18.7 19.4c10.1-0.1 18.6-9 18.6-19.4z"/>
			<path class="st0" d="m701.6 126.4h10v9.7h-10v-9.7z"/>
				<path class="st0" d="m409.7 75l18.5 58.9h-12.7l-4.1-13.9h-17.2l-4.1 13.9h-12.3l19.2-58.9h12.7zm-1.2 35.1s-1.9-6.2-3.2-11.8c-0.6-2.7-2.4-10.4-2.4-10.4s-1.7 6.9-2.8 11.3c-1.1 4.2-1.9 7-3.1 10.9h11.5z"/>
				<path class="st0" d="m451.9 75.1c10 0 13 1 16.3 2.9 5.5 3 8.5 8.5 8.5 15.2 0 7.8-3.7 14-10.1 17.1-2.7 1.3-5.2 1.9-11.7 1.9h-6.5v21.6h-11.8v-58.7h15.3zm-3.6 27.5h6.2c4.8 0 6.3-0.6 7.9-3 1-1.6 1.4-3.3 1.4-6.1 0-5.5-3-8.8-8-8.8h-7.5v17.9z"/>
				<path class="st0" d="m614 75.1v38.6c0 3.6 0.3 5.8 1 7 1.4 2.6 4.1 4.1 8 4.1 5.2 0 8.5-2.5 9-6.8 0.2-1.3 0.2-2.1 0.2-5.2v-37.7h12v39.6c0 5.6-0.1 6.7-0.9 9.2-1.5 4.7-7.3 11.1-20 11.1-9 0-15.6-2.7-18.8-7.9-1.9-3-2.5-5.4-2.5-11.1v-40.9h12z"/>
				<path class="st0" d="m689.6 87.7c-5.3-3.2-9.3-4.5-13.7-4.5-4.8 0-8.2 2.8-8.2 6.8 0 3 1.6 4.6 6.5 5.9l7.1 1.9c9.6 2.6 14.9 8.8 14.9 17.5 0 11.9-9.6 19.8-24.3 19.8-6.7 0-14.1-1.9-20-5.3l4.4-9.2c5.5 2.9 10.2 4.7 16.1 4.7 6.8 0 10.3-2.8 10.3-8 0-3.8-2.5-6.2-7.7-7.6l-6.5-1.8c-5.8-1.6-9.5-3.9-11.6-7.4-1.6-2.6-2.5-5.7-2.5-9 0-10.7 8.6-18.2 21.1-18.2 7.2 0 14.4 2.2 19.6 5.9l-5.5 8.5z"/>
				<path class="st0" d="m536.5 96.5c-2.9 0-5.7-0.8-8.1-2.1v39.5h16.1v-39.6c-2.4 1.4-5.1 2.2-8 2.2"/>
				<path class="st0" d="m526.4 80.1c0-5.5 4.5-10 10.1-10 5.5 0 10.1 4.5 10.1 10 0 5.6-4.5 10.1-10.1 10.1-5.6-0.1-10.1-4.6-10.1-10.1"/>
				<polygon points="520.1 75.1 520.1 84.9 505.7 84.9 505.7 133.9 493.7 133.9 493.7 84.9 479.4 84.9 479.4 75.1" class="st0"/>
				<polygon points="593.6 75.1 593.6 84.9 579.2 84.9 579.2 133.9 567.2 133.9 567.2 84.9 552.8 84.9 552.8 75.1" class="st0"/>
		<path class="st0" d="m737.6 137.9c-2.9 0-5.6-0.4-8-1.1s-4.5-1.9-6.3-3.4-3.1-3.4-4.1-5.8c-1-2.3-1.5-5-1.5-8.2 0-3.4 0.5-6.2 1.6-8.6s2.5-4.3 4.3-5.8 3.8-2.5 6.2-3.2 4.8-1.1 7.4-1.1c1.9 0 3.9 0.2 5.8 0.7s3.9 1.2 5.9 2.1v9.4h-1.4c-0.4-0.4-1-0.9-1.6-1.4s-1.3-1-2.1-1.4-1.7-0.8-2.7-1.1c-1-0.3-2.1-0.5-3.4-0.5-2.8 0-5 1-6.5 2.9-1.5 2-2.3 4.6-2.3 7.9 0 3.5 0.8 6.2 2.5 7.9 1.6 1.7 3.8 2.6 6.5 2.6 1.4 0 2.6-0.2 3.6-0.5s1.9-0.7 2.7-1.1c0.7-0.4 1.4-0.9 1.9-1.4s1-0.9 1.4-1.3h1.4v9.4c-0.6 0.3-1.4 0.6-2.2 0.9-0.8 0.4-1.7 0.7-2.5 0.9-1.1 0.3-2.1 0.5-3 0.7-0.9 0.5-2.1 0.5-3.6 0.5z"/>
		<path class="st0" d="m788 119.4c0 5.8-1.6 10.4-4.8 13.7s-7.6 5-13.4 5c-5.8 0-10.2-1.7-13.4-5s-4.8-7.9-4.8-13.7c0-5.9 1.6-10.4 4.8-13.8 3.2-3.3 7.7-5 13.4-5 5.8 0 10.2 1.7 13.4 5 3.2 3.4 4.8 8 4.8 13.8zm-11.3 0.1c0-2.1-0.2-3.8-0.5-5.2s-0.8-2.5-1.4-3.3c-0.6-0.9-1.4-1.5-2.2-1.8s-1.8-0.5-2.8-0.5-1.9 0.2-2.7 0.5-1.5 0.9-2.2 1.7c-0.6 0.8-1.1 1.9-1.5 3.4-0.4 1.4-0.6 3.2-0.6 5.4 0 2.1 0.2 3.9 0.5 5.2 0.4 1.3 0.8 2.4 1.4 3.2s1.3 1.4 2.2 1.8 1.9 0.6 2.9 0.6c0.9 0 1.8-0.2 2.7-0.6s1.6-0.9 2.2-1.7c0.6-0.9 1.1-2 1.5-3.2 0.4-1.5 0.5-3.3 0.5-5.5z"/>
		<path class="st0" d="m832.3 137v-17.6c0-1.7 0-3.2-0.1-4.4s-0.3-2.2-0.6-2.9c-0.3-0.8-0.8-1.3-1.5-1.6s-1.6-0.5-2.8-0.5c-0.8 0-1.7 0.2-2.5 0.5-0.8 0.4-1.7 0.9-2.7 1.6v25h-11v-17.6c0-1.7 0-3.2-0.1-4.4s-0.3-2.2-0.6-2.9c-0.3-0.8-0.8-1.3-1.5-1.6s-1.6-0.5-2.7-0.5c-0.9 0-1.8 0.2-2.6 0.6-0.9 0.4-1.7 0.9-2.5 1.5v25h-11v-35.2h11v3.9c1.8-1.5 3.5-2.7 5.1-3.6s3.4-1.3 5.4-1.3c2.2 0 4 0.5 5.7 1.5 1.6 1 2.9 2.6 3.7 4.6 2.1-2 4.1-3.5 6-4.5 1.9-1.1 3.8-1.6 5.7-1.6 1.6 0 3.1 0.3 4.4 0.8s2.4 1.3 3.3 2.4c1 1.1 1.7 2.5 2.2 4 0.5 1.6 0.7 3.6 0.7 6.1v22.7h-11z"/>
	<polygon points="310.7 38.3 316.1 38.3 313.4 31.7" class="st0"/>
	<path class="st0" d="m228.9 29.8h-3.9v5.2h3.9c1.9 0 3.3-1 3.3-2.6s-1.3-2.6-3.3-2.6z"/>
	<path class="st0" d="m90 29.8h-3.9v5.2h3.9c1.9 0 3.3-1 3.3-2.6s-1.3-2.6-3.3-2.6z"/>
	<polygon points="132.7 38.3 138.1 38.3 135.4 31.7" class="st0"/>
	<path class="st0" d="m12 14v40.1h354v-40.1h-354zm31 15.8h-10.2v3.9h9.2v3.5h-9.1v7.2h-3.9v-18.1h14v3.5zm26.5 0h-10.1v3.6h9.1v3.6h-9.1v4h10.1v3.5h-14v-18.2h14v3.5zm23.6 14.6l-4.1-5.8h-2.9v5.9h-3.9v-18.2h8.2c3.9 0 6.8 2.5 6.8 6.1 0 2.7-1.6 4.8-4.1 5.7l4.5 6.3h-4.5zm20.8 0.1h-3.9v-18.2h3.9v18.2zm26.6 0l-1.1-2.9h-8.1l-1.2 2.9h-4.4l7.4-18.2h4.4l7.4 18.2h-4.4zm43.9 0h-4.4l-7.4-18.2h4.4l5.2 12.8 5.2-12.8h4.4l-7.4 18.2zm23.3 0h-3.9v-18.2h3.9v18.2zm24.3-0.1l-4.1-5.8h-2.9v5.9h-3.9v-18.2h8.2c3.9 0 6.8 2.5 6.8 6.1 0 2.7-1.6 4.8-4.1 5.7l4.5 6.3h-4.5zm31-14.6h-5.7v14.6h-3.9v-14.6h-5.6v-3.5h15.2v3.5zm28.9 6.8c0 4.8-3.4 8.2-8.2 8.2-4.9 0-8.2-3.4-8.2-8.2v-10.3h3.9v10.1c0 2.8 1.8 4.8 4.3 4.8s4.3-2 4.3-4.8v-10.1h3.9v10.3zm26.6 7.9l-1.1-2.9h-8.1l-1.2 2.9h-4.4l7.4-18.2h4.4l7.4 18.2h-4.4zm29.2 0h-12.9v-18.2h3.9v14.7h9v3.5z"/>
</svg>
