<?xml version="1.0" encoding="utf-8"?>
<!-- Generator: Adobe Illustrator 22.1.0, SVG Export Plug-In . SVG Version: 6.00 Build 0)  -->
<svg version="1.1" id="Capa_1" xmlns="http://www.w3.org/2000/svg" xmlns:xlink="http://www.w3.org/1999/xlink" x="0px" y="0px"
	 viewBox="0 0 352.3 168.9" style="enable-background:new 0 0 352.3 168.9;" xml:space="preserve">
<style type="text/css">
	.st0{fill:#218FC8;}
	.st1{fill:#FFFFFF;}
</style>
<g>
	<g>
		<polygon class="st0" points="290.5,26 339,54 290.5,82 		"/>
	</g>
	<g>
		<path class="st0" d="M64.4,65.3l11,11.2c-5.4,5.7-16,9.5-25,9.5C32.2,86,18,72.6,18,53.8c0-18.5,13.6-31.9,31.5-31.9
			c19.2,0,30.4,14.6,30.4,37.7H35.8c2,6.6,7.3,11.1,14.6,11.1C55.2,70.7,61.1,68.5,64.4,65.3z M36,47.1h27.4
			c-1.7-6-6.2-9.9-13.1-9.9C43.7,37.2,38.2,41,36,47.1z"/>
		<path class="st0" d="M123.6,84.6l-13.3-18.5L97,84.6H78.7l22.5-31.1L79.7,23.3h18.7l12.2,17.1l12.3-17.1h18.2l-21.4,29.7
			l22.5,31.5H123.6z"/>
		<path class="st0" d="M210.4,53.9c0,18.8-11.8,32.1-28.2,32.1c-8.5,0-15.6-3.7-20.5-10.1v29h-17.3V23.3h17.3v8.5
			c4.9-6.3,12-9.9,20.5-9.9C198.6,21.9,210.4,35.2,210.4,53.9z M193.6,53.9c0-10.2-6.7-17.4-16.3-17.4c-8.4,0-14.6,6.2-15.5,15v4.7
			c0.9,9,7.1,15.2,15.5,15.2C186.9,71.4,193.6,64.2,193.6,53.9z"/>
		<path class="st0" d="M212.1,53.9c0-17.4,15.3-32,33.5-32c18.1,0,33.3,14.6,33.3,32c0,17.4-15.2,32.1-33.3,32.1
			C227.4,86,212.1,71.3,212.1,53.9z M262.4,53.9c0-9.5-7.7-17.4-16.8-17.4c-9.2,0-16.9,7.9-16.9,17.4s7.7,17.5,16.9,17.5
			C254.7,71.4,262.4,63.4,262.4,53.9z"/>
	</g>
</g>
<g>
	<g>
		<path class="st1" d="M239,149.4h6.8v6.6H239V149.4z"/>
	</g>
	<g>
		<g>
			<path class="st1" d="M41,114.5l12.6,40H45l-2.8-9.5H30.5l-2.8,9.5h-8.4l13.1-40H41z M40.2,138.4c0,0-1.3-4.2-2.2-8
				c-0.4-1.8-1.6-7.1-1.6-7.1s-1.1,4.7-1.9,7.7c-0.7,2.9-1.3,4.8-2.1,7.4H40.2z"/>
			<path class="st1" d="M69.6,114.7c6.8,0,8.8,0.7,11.1,2c3.7,2.1,5.7,5.7,5.7,10.3c0,5.3-2.5,9.5-6.9,11.6c-1.8,0.9-3.6,1.3-8,1.3
				h-4.4v14.7h-8v-39.8H69.6z M67.2,133.3h4.2c3.3,0,4.2-0.4,5.3-2.1c0.7-1.1,1-2.2,1-4.1c0-3.7-2-6-5.4-6h-5.1V133.3z"/>
			<path class="st1" d="M179.6,114.7v26.2c0,2.5,0.2,3.9,0.7,4.8c0.9,1.8,2.8,2.8,5.4,2.8c3.5,0,5.7-1.7,6.1-4.6
				c0.1-0.9,0.1-1.4,0.1-3.6v-25.5h8.1v26.8c0,3.8-0.1,4.5-0.6,6.2c-1,3.2-4.9,7.5-13.5,7.5c-6.1,0-10.5-1.8-12.8-5.3
				c-1.3-2.1-1.7-3.7-1.7-7.5v-27.8H179.6z"/>
			<path class="st1" d="M230.8,123.2c-3.6-2.2-6.3-3-9.3-3c-3.3,0-5.6,1.9-5.6,4.6c0,2.1,1.1,3.1,4.4,4l4.8,1.3
				c6.5,1.8,10.1,6,10.1,11.9c0,8.1-6.5,13.4-16.5,13.4c-4.5,0-9.6-1.3-13.6-3.6l3-6.3c3.7,1.9,6.9,3.2,11,3.2c4.6,0,7-1.9,7-5.4
				c0-2.6-1.7-4.2-5.2-5.2l-4.4-1.2c-4-1.1-6.4-2.6-7.9-5c-1.1-1.8-1.7-3.8-1.7-6.1c0-7.3,5.9-12.3,14.3-12.3c4.9,0,9.8,1.5,13.3,4
				L230.8,123.2z"/>
			<path class="st0" d="M127,129.1c-2,0-3.9-0.5-5.5-1.4h0v26.8h10.9v-26.8h0C130.8,128.6,129,129.1,127,129.1"/>
			<path class="st0" d="M120.2,118c0-3.8,3.1-6.8,6.8-6.8c3.8,0,6.8,3.1,6.8,6.8c0,3.8-3.1,6.8-6.8,6.8
				C123.2,124.8,120.2,121.8,120.2,118"/>
			<polygon class="st1" points="115.9,114.7 115.9,121.3 106.1,121.3 106.1,154.5 98,154.5 98,121.3 88.3,121.3 88.3,114.7 			"/>
			<polygon class="st1" points="165.7,114.7 165.7,121.3 156,121.3 156,154.5 147.8,154.5 147.8,121.3 138.1,121.3 138.1,114.7 			
				"/>
		</g>
	</g>
</g>
<g>
	<path class="st1" d="M263.4,157.3c-2,0-3.8-0.2-5.4-0.7c-1.6-0.5-3.1-1.3-4.3-2.3c-1.2-1-2.1-2.3-2.8-3.9c-0.7-1.6-1-3.4-1-5.5
		c0-2.3,0.4-4.2,1.1-5.8c0.7-1.6,1.7-2.9,2.9-4c1.2-1,2.6-1.7,4.2-2.2c1.6-0.5,3.3-0.7,5-0.7c1.3,0,2.6,0.2,4,0.5
		c1.3,0.3,2.6,0.8,4,1.5v6.4h-1c-0.3-0.3-0.7-0.6-1.1-0.9c-0.4-0.3-0.9-0.6-1.4-0.9c-0.5-0.3-1.1-0.5-1.8-0.8
		c-0.7-0.2-1.4-0.3-2.3-0.3c-1.9,0-3.4,0.7-4.4,2c-1,1.3-1.6,3.1-1.6,5.4c0,2.4,0.6,4.2,1.7,5.4c1.1,1.2,2.6,1.8,4.4,1.8
		c0.9,0,1.8-0.1,2.5-0.3c0.7-0.2,1.3-0.5,1.8-0.8c0.5-0.3,0.9-0.6,1.3-0.9c0.4-0.3,0.7-0.6,0.9-0.9h1v6.4c-0.4,0.2-0.9,0.4-1.5,0.6
		c-0.6,0.2-1.1,0.4-1.7,0.6c-0.7,0.2-1.4,0.4-2,0.5C265.2,157.2,264.4,157.3,263.4,157.3z"/>
	<path class="st1" d="M297.6,144.7c0,3.9-1.1,7-3.2,9.3c-2.2,2.3-5.2,3.4-9.1,3.4c-3.9,0-6.9-1.1-9.1-3.4c-2.2-2.3-3.2-5.4-3.2-9.3
		c0-4,1.1-7.1,3.2-9.3c2.2-2.2,5.2-3.4,9.1-3.4c3.9,0,7,1.1,9.1,3.4C296.5,137.6,297.6,140.7,297.6,144.7z M289.9,144.7
		c0-1.4-0.1-2.6-0.4-3.5c-0.2-0.9-0.6-1.7-1-2.3c-0.4-0.6-0.9-1-1.5-1.2c-0.6-0.2-1.2-0.4-1.9-0.4c-0.7,0-1.3,0.1-1.8,0.3
		c-0.5,0.2-1,0.6-1.5,1.2c-0.4,0.6-0.8,1.3-1,2.3c-0.3,1-0.4,2.2-0.4,3.6c0,1.5,0.1,2.6,0.4,3.5c0.2,0.9,0.6,1.6,0.9,2.2
		c0.4,0.6,0.9,1,1.5,1.2c0.6,0.3,1.3,0.4,2,0.4c0.6,0,1.2-0.1,1.8-0.4c0.6-0.3,1.1-0.6,1.5-1.1c0.4-0.6,0.8-1.3,1-2.2
		C289.8,147.4,289.9,146.2,289.9,144.7z"/>
	<path class="st1" d="M327.6,156.6v-11.9c0-1.2,0-2.2-0.1-3c0-0.8-0.2-1.5-0.4-2c-0.2-0.5-0.5-0.9-1-1.1c-0.4-0.2-1.1-0.3-1.9-0.3
		c-0.6,0-1.1,0.1-1.7,0.4c-0.6,0.2-1.2,0.6-1.8,1.1v16.9h-7.5v-11.9c0-1.2,0-2.2-0.1-3c0-0.8-0.2-1.5-0.4-2c-0.2-0.5-0.5-0.9-1-1.1
		c-0.4-0.2-1.1-0.3-1.9-0.3c-0.6,0-1.2,0.1-1.8,0.4c-0.6,0.3-1.1,0.6-1.7,1v16.9h-7.4v-23.9h7.4v2.6c1.2-1,2.4-1.8,3.4-2.4
		c1.1-0.6,2.3-0.9,3.6-0.9c1.5,0,2.7,0.3,3.9,1c1.1,0.7,1.9,1.7,2.5,3.1c1.4-1.3,2.8-2.4,4.1-3.1c1.3-0.7,2.6-1.1,3.9-1.1
		c1.1,0,2.1,0.2,3,0.5c0.9,0.4,1.6,0.9,2.2,1.6c0.7,0.8,1.2,1.7,1.5,2.7c0.3,1.1,0.5,2.4,0.5,4.1v15.6H327.6z"/>
</g>
</svg>
