<?xml version="1.0" encoding="utf-8"?>
<!-- Generator: Adobe Illustrator 22.1.0, SVG Export Plug-In . SVG Version: 6.00 Build 0)  -->
<svg version="1.1" id="Capa_1" xmlns="http://www.w3.org/2000/svg" xmlns:xlink="http://www.w3.org/1999/xlink" x="0px" y="0px"
	 viewBox="0 0 2423.3 486.5" style="enable-background:new 0 0 2423.3 486.5;" xml:space="preserve">
<style type="text/css">
	.st0{fill:#009BDB;}
	.st1{fill:#272425;}
</style>
<g>
	<g>
		<path class="st0" d="M157.5,345.2l35.5,36.2c-17.5,18.3-51.5,30.5-80.5,30.5C53.8,411.9,8,368.8,8,308.2
			c0-59.5,43.9-102.6,101.5-102.6c61.8,0,98,46.9,98,121.3H65.2c6.5,21.4,23.6,35.9,46.9,35.9C127.8,362.7,146.8,355.5,157.5,345.2z
			 M66,286.8h88.1c-5.3-19.5-19.8-32-42.3-32C90.8,254.8,73.2,267,66,286.8z"/>
		<path class="st0" d="M348.3,407.4l-42.7-59.5l-43.1,59.5h-58.7L276.2,307l-69.4-96.9H267l39.3,54.9l39.7-54.9h58.7l-69,95.7
			l72.5,101.5H348.3z"/>
		<path class="st0" d="M627.9,308.6c0,60.6-38.1,103.4-90.8,103.4c-27.5,0-50.3-11.8-66-32.4V473h-55.7V210.2h55.7v27.5
			c15.6-20.2,38.5-32,66-32C589.7,205.6,627.9,248.3,627.9,308.6z M573.7,308.6c0-32.8-21.7-56.1-52.6-56.1
			c-27.1,0-46.9,19.8-50,48.4v15.3c3.1,29,22.9,48.8,50,48.8C552,365,573.7,341.8,573.7,308.6z"/>
		<path class="st0" d="M633.2,308.6c0-56.1,49.2-103,107.9-103c58.4,0,107.2,46.9,107.2,103c0,56.1-48.8,103.4-107.2,103.4
			C682.4,411.9,633.2,364.6,633.2,308.6z M795.3,308.6c0-30.5-24.8-56.1-54.2-56.1c-29.8,0-54.5,25.6-54.5,56.1s24.8,56.5,54.5,56.5
			C770.5,365,795.3,339.1,795.3,308.6z"/>
	</g>
	<g>
		<g>
			<g>
				<path class="st1" d="M1946.6,382.6h33.1v32.1h-33.1V382.6z"/>
			</g>
			<g>
				<g>
					<path d="M981.1,212.5l61.2,194.9h-41.9l-13.7-46.1h-57L916,407.4h-40.8l63.7-194.9H981.1z M977.2,328.8c0,0-6.4-20.4-10.6-39.2
						c-2-8.9-7.8-34.4-7.8-34.4s-5.6,22.9-9.2,37.5c-3.6,14-6.1,23.2-10.3,36.1H977.2z"/>
					<path d="M1120.7,213c33,0,43.1,3.4,54,9.5c18.2,10.1,28,28,28,50.3c0,25.7-12.3,46.4-33.5,56.5c-9,4.2-17.3,6.4-38.9,6.4h-21.5
						v71.6h-39.1V213H1120.7z M1108.7,303.9h20.4c15.9,0,20.7-2,26-10c3.3-5.3,4.8-10.9,4.8-20.1c0-18.2-9.8-29.1-26.3-29.1h-24.9
						V303.9z"/>
					<path d="M1656.8,213v127.8c0,12,1.1,19,3.3,23.2c4.5,8.7,13.7,13.4,26.6,13.4c17,0,28-8.4,29.6-22.6c0.6-4.2,0.6-7,0.6-17.3
						V213h39.7v130.9c0,18.5-0.3,22.1-3.1,30.5c-5,15.4-24,36.6-66,36.6c-29.6,0-51.4-8.9-62.3-26c-6.4-10.1-8.4-17.9-8.4-36.6V213
						H1656.8z"/>
					<path d="M1906.8,254.7c-17.6-10.6-30.8-14.8-45.3-14.8c-15.9,0-27.1,9.2-27.1,22.4c0,10,5.3,15.1,21.5,19.6l23.5,6.4
						c31.9,8.7,49.2,29.1,49.2,57.9c0,39.4-31.9,65.4-80.2,65.4c-22.1,0-46.7-6.4-66.2-17.6l14.5-30.5c18.2,9.5,33.8,15.6,53.4,15.6
						c22.4,0,34.1-9.2,34.1-26.5c0-12.6-8.1-20.4-25.5-25.2l-21.5-5.9c-19.3-5.3-31.3-12.9-38.3-24.6c-5.3-8.7-8.1-18.7-8.1-29.6
						c0-35.5,28.5-60.1,69.6-60.1c23.8,0,47.8,7.3,64.9,19.6L1906.8,254.7z"/>
					<path class="st0" d="M1400.3,283.6c-9.7,0-18.8-2.6-26.7-7h0v130.8h53.4V276.6h-0.1C1419.1,281.1,1410,283.6,1400.3,283.6"/>
					<path class="st0" d="M1367.1,229.4c0-18.4,14.9-33.2,33.3-33.2c18.4,0,33.2,14.9,33.2,33.2c0,18.4-14.9,33.3-33.2,33.3
						C1381.9,262.6,1367.1,247.7,1367.1,229.4"/>
					<polygon points="1346.2,213 1346.2,245.5 1298.7,245.5 1298.7,407.4 1259,407.4 1259,245.5 1211.5,245.5 1211.5,213 					"/>
					<polygon points="1589.2,213 1589.2,245.5 1541.7,245.5 1541.7,407.4 1502,407.4 1502,245.5 1454.5,245.5 1454.5,213 					"/>
				</g>
			</g>
		</g>
		<g>
			<path class="st1" d="M2065.5,420.8c-9.6,0-18.4-1.2-26.4-3.6c-8-2.4-14.9-6.2-20.8-11.2c-5.8-5.1-10.4-11.4-13.6-19
				c-3.3-7.6-4.9-16.7-4.9-27c0-11.1,1.8-20.6,5.3-28.4c3.5-7.8,8.3-14.2,14.3-19.3c5.8-4.8,12.6-8.4,20.5-10.7
				c7.8-2.3,16-3.5,24.5-3.5c6.4,0,12.9,0.8,19.3,2.2c6.4,1.5,12.9,3.9,19.4,7.1v31.1h-4.7c-1.5-1.4-3.2-2.9-5.3-4.6
				c-2.1-1.6-4.4-3.2-6.9-4.5c-2.6-1.4-5.6-2.7-8.9-3.7c-3.3-1-7-1.5-11.1-1.5c-9.3,0-16.5,3.2-21.5,9.7c-5.1,6.5-7.6,15.2-7.6,26.1
				c0,11.7,2.7,20.4,8.1,26.1c5.4,5.8,12.6,8.6,21.6,8.6c4.6,0,8.6-0.5,12-1.6c3.5-1,6.4-2.3,8.9-3.7c2.4-1.5,4.5-3,6.2-4.5
				c1.7-1.6,3.2-3,4.5-4.2h4.7v31.1c-2.1,0.9-4.5,1.9-7.2,3.1c-2.7,1.2-5.5,2.2-8.3,2.9c-3.5,1-6.8,1.7-9.9,2.2
				C2074.6,420.6,2070.6,420.8,2065.5,420.8z"/>
			<path class="st1" d="M2232.3,359.5c0,19.2-5.2,34.3-15.7,45.3c-10.5,11-25.3,16.5-44.5,16.5c-19,0-33.8-5.5-44.4-16.5
				c-10.5-11-15.8-26.1-15.8-45.3c0-19.4,5.3-34.5,15.8-45.5c10.6-11,25.3-16.4,44.4-16.4c19.1,0,33.9,5.5,44.4,16.6
				C2227,325.2,2232.3,340.3,2232.3,359.5z M2195,359.7c0-6.9-0.6-12.7-1.7-17.3c-1.1-4.6-2.7-8.3-4.7-11.1
				c-2.1-2.9-4.6-4.9-7.3-6.1c-2.7-1.1-5.8-1.7-9.2-1.7c-3.2,0-6.2,0.5-8.8,1.5c-2.6,1-5.1,2.9-7.3,5.8c-2.1,2.7-3.7,6.4-5,11.1
				c-1.2,4.7-1.9,10.6-1.9,17.7c0,7.1,0.6,12.9,1.8,17.3c1.2,4.4,2.7,7.9,4.6,10.5c1.9,2.7,4.4,4.7,7.3,5.9c2.9,1.3,6.1,1.9,9.6,1.9
				c2.9,0,5.9-0.6,8.9-1.9c3-1.2,5.4-3.1,7.2-5.6c2.1-3,3.8-6.6,4.9-10.7C2194.5,372.9,2195,367.1,2195,359.7z"/>
			<path class="st1" d="M2378.8,417.7v-58.2c0-5.8-0.1-10.6-0.3-14.5c-0.2-4-0.8-7.2-1.9-9.7c-1-2.5-2.6-4.3-4.8-5.4
				c-2.2-1.1-5.2-1.7-9.2-1.7c-2.8,0-5.5,0.6-8.2,1.8c-2.7,1.2-5.6,2.9-8.8,5.1v82.6H2309v-58.2c0-5.7-0.1-10.5-0.4-14.5
				c-0.2-4-0.9-7.2-1.9-9.7c-1-2.5-2.6-4.3-4.8-5.4c-2.2-1.1-5.2-1.7-9.1-1.7c-3,0-5.9,0.7-8.7,2.1c-2.8,1.4-5.6,3-8.3,4.9v82.6
				h-36.3V301.2h36.3v12.9c5.9-5.1,11.6-9,16.8-11.8c5.2-2.8,11.2-4.3,17.7-4.3c7.1,0,13.4,1.7,18.8,5.1c5.4,3.4,9.5,8.4,12.4,15.1
				c7-6.5,13.6-11.5,19.8-15c6.2-3.5,12.5-5.3,18.8-5.3c5.4,0,10.2,0.9,14.5,2.6c4.3,1.7,7.9,4.3,10.9,7.8c3.3,3.7,5.7,8.2,7.3,13.3
				c1.6,5.2,2.4,11.9,2.4,20.2v75.9H2378.8z"/>
		</g>
	</g>
	<g>
		<polygon points="88.9,24.9 25.1,24.9 25.1,59.8 82.6,59.8 82.6,71.2 25.1,71.2 25.1,119.5 12.9,119.5 12.9,13.5 88.9,13.5 		"/>
		<polygon points="247.6,24.9 183.8,24.9 183.8,59.8 241.3,59.8 241.3,71.2 183.8,71.2 183.8,108.1 247.6,108.1 247.6,119.5 
			171.6,119.5 171.6,13.5 247.6,13.5 		"/>
		<path d="M415.1,47.5c0-19.9-17.1-33.9-39-33.9h-43v106h12V81.4h28.1l26.8,38.1h13.7l-27.4-39.2C403.1,76.8,415.1,64.1,415.1,47.5z
			 M345.1,70v-45h28.8c17.3,0,29,8.3,29,22.5c0,14.2-11.7,22.5-29,22.5H345.1z"/>
		<rect x="498.1" y="13.5" width="12" height="106"/>
		<path d="M651.9,13.5h-13.1l-46.7,106h13.1l10.6-24.1h59.1l10.6,24.1h13.1L651.9,13.5z M620.7,84l24.7-55.7L669.9,84H620.7z"/>
		<polygon points="942.6,119.5 929.5,119.5 882.7,13.5 895.9,13.5 936.1,104.7 976.2,13.5 989.3,13.5 		"/>
		<rect x="1071.2" y="13.5" width="12" height="106"/>
		<path d="M1254.4,47.5c0-19.9-17.1-33.9-39-33.9h-43v106h12V81.4h28.1l26.8,38.1h13.7l-27.4-39.2
			C1242.4,76.8,1254.4,64.1,1254.4,47.5z M1184.4,70v-45h28.8c17.3,0,29,8.3,29,22.5c0,14.2-11.7,22.5-29,22.5H1184.4z"/>
		<polygon points="1415.5,24.9 1379.8,24.9 1379.8,119.5 1367.8,119.5 1367.8,24.9 1332.2,24.9 1332.2,13.5 1415.5,13.5 		"/>
		<path d="M1589,75.5c0,26.8-18.3,45.8-44.2,45.8s-44.3-19-44.3-45.8v-62h12v62c0,20.4,13.4,34.9,32.3,34.9
			c18.8,0,32.2-14.5,32.2-34.9v-62h12V75.5z"/>
		<path d="M1731.8,13.5h-13.1l-46.7,106h13.1l10.6-24.1h59.1l10.6,24.1h13.1L1731.8,13.5z M1700.7,84l24.7-55.7l24.5,55.7H1700.7z"
			/>
		<polygon points="1928.6,119.5 1858.8,119.5 1858.8,13.5 1870.8,13.5 1870.8,108.1 1928.6,108.1 		"/>
	</g>
</g>
</svg>
