<?xml version="1.0" encoding="utf-8"?>
<!-- Generator: Adobe Illustrator 23.0.2, SVG Export Plug-In . SVG Version: 6.00 Build 0)  -->
<svg version="1.1" id="Capa_1" xmlns="http://www.w3.org/2000/svg" xmlns:xlink="http://www.w3.org/1999/xlink" x="0px" y="0px"
	 viewBox="0 0 408.4 204.2" style="enable-background:new 0 0 408.4 204.2;" xml:space="preserve">
<style type="text/css">
	.st0{fill:#378DBD;}
	.st1{fill:#272324;}
	.st2{fill:#FFFFFF;}
	.st3{fill:#070308;}
	.st4{fill:#121212;}
</style>
<g>
	<g>
		<polygon class="st0" points="193.9,38.4 227.9,58.1 193.9,77.7 		"/>
	</g>
	<g>
		<rect x="2.5" y="2.2" class="st1" width="224.8" height="25.5"/>
		<g>
			<path class="st2" d="M15.7,12.2v2.5h5.8V17h-5.8v4.6h-2.5V10h8.9v2.2H15.7z"/>
			<path class="st2" d="M32.5,12.2v2.3h5.8v2.2h-5.8v2.5h6.4v2.2h-8.9V10h8.9v2.2H32.5z"/>
			<path class="st2" d="M54,21.5l-2.6-3.7h-1.8v3.7H47V10h5.2c2.5,0,4.3,1.6,4.3,3.9c0,1.7-1,3.1-2.6,3.6l2.8,4H54z M49.5,15.5H52
				c1.2,0,2.1-0.6,2.1-1.6c0-1-0.8-1.6-2.1-1.6h-2.4V15.5z"/>
			<path class="st2" d="M64.7,10h2.5v11.5h-2.5V10z"/>
			<path class="st2" d="M83.4,19.7h-5.1l-0.7,1.8h-2.8L79.4,10h2.8l4.7,11.5h-2.8L83.4,19.7z M82.5,17.6l-1.7-4.2l-1.7,4.2H82.5z"/>
			<path class="st2" d="M116.6,10l-4.7,11.5h-2.8L104.5,10h2.8l3.3,8.1l3.3-8.1H116.6z"/>
			<path class="st2" d="M124.2,10h2.5v11.5h-2.5V10z"/>
			<path class="st2" d="M142.2,21.5l-2.6-3.7h-1.8v3.7h-2.5V10h5.2c2.5,0,4.3,1.6,4.3,3.9c0,1.7-1,3.1-2.6,3.6l2.8,4H142.2z
				 M137.7,15.5h2.4c1.2,0,2.1-0.6,2.1-1.6c0-1-0.8-1.6-2.1-1.6h-2.4V15.5z"/>
			<path class="st2" d="M155.8,12.2h-3.6V10h9.7v2.2h-3.6v9.3h-2.5V12.2z"/>
			<path class="st2" d="M169.8,16.5V10h2.5v6.4c0,1.8,1.1,3,2.8,3c1.6,0,2.7-1.3,2.7-3V10h2.5v6.5c0,3-2.2,5.2-5.2,5.2
				C171.9,21.7,169.8,19.6,169.8,16.5z"/>
			<path class="st2" d="M196.4,19.7h-5.1l-0.7,1.8h-2.8l4.7-11.5h2.8l4.7,11.5h-2.8L196.4,19.7z M195.5,17.6l-1.7-4.2l-1.7,4.2
				H195.5z"/>
			<path class="st2" d="M215.6,19.3v2.2h-8.2V10h2.5v9.3H215.6z"/>
		</g>
	</g>
	<g>
		<path class="st0" d="M35.1,66l7.7,7.9c-3.8,4-11.2,6.7-17.6,6.7c-12.8,0-22.8-9.4-22.8-22.6c0-13,9.6-22.4,22.1-22.4
			C38.1,35.6,46,45.8,46,62h-31c1.4,4.7,5.2,7.8,10.2,7.8C28.6,69.8,32.7,68.3,35.1,66z M15.1,53.3h19.2c-1.2-4.2-4.3-7-9.2-7
			C20.5,46.3,16.7,49,15.1,53.3z"/>
		<path class="st0" d="M76.6,79.6l-9.3-13l-9.4,13H45.1l15.8-21.9L45.8,36.6h13.1l8.6,12l8.7-12H89L73.9,57.4l15.8,22.1H76.6z"/>
		<path class="st0" d="M137.6,58c0,13.2-8.3,22.5-19.8,22.5c-6,0-11-2.6-14.4-7.1v20.4H91.3V36.6h12.1v6c3.4-4.4,8.4-7,14.4-7
			C129.3,35.6,137.6,44.9,137.6,58z M125.8,58c0-7.2-4.7-12.2-11.5-12.2c-5.9,0-10.2,4.3-10.9,10.6v3.3c0.7,6.3,5,10.6,10.9,10.6
			C121.1,70.3,125.8,65.3,125.8,58z"/>
		<path class="st0" d="M138.8,58c0-12.2,10.7-22.5,23.5-22.5c12.7,0,23.4,10.2,23.4,22.5c0,12.2-10.6,22.5-23.4,22.5
			C149.5,80.6,138.8,70.3,138.8,58z M174.1,58c0-6.7-5.4-12.2-11.8-12.2c-6.5,0-11.9,5.6-11.9,12.2s5.4,12.3,11.9,12.3
			C168.7,70.3,174.1,64.7,174.1,58z"/>
	</g>
	<g>
		<g>
			<g>
				<path class="st3" d="M313.4,124.4h6.3v6.2h-6.3V124.4z"/>
			</g>
			<g>
				<g>
					<path class="st3" d="M128,91.7l11.8,37.4h-8.1l-2.6-8.9h-11l-2.6,8.9h-7.8l12.2-37.4H128z M127.3,114c0,0-1.2-3.9-2-7.5
						c-0.4-1.7-1.5-6.6-1.5-6.6s-1.1,4.4-1.8,7.2c-0.7,2.7-1.2,4.5-2,6.9H127.3z"/>
					<path class="st3" d="M154.8,91.8c6.3,0,8.3,0.6,10.4,1.8c3.5,1.9,5.4,5.4,5.4,9.7c0,4.9-2.4,8.9-6.4,10.8
						c-1.7,0.8-3.3,1.2-7.5,1.2h-4.1v13.7H145V91.8H154.8z M152.5,109.2h3.9c3.1,0,4-0.4,5-1.9c0.6-1,0.9-2.1,0.9-3.9
						c0-3.5-1.9-5.6-5-5.6h-4.8V109.2z"/>
					<path class="st3" d="M257.8,91.8v24.5c0,2.3,0.2,3.7,0.6,4.5c0.9,1.7,2.6,2.6,5.1,2.6c3.3,0,5.4-1.6,5.7-4.3
						c0.1-0.8,0.1-1.3,0.1-3.3V91.8h7.6v25.1c0,3.5-0.1,4.2-0.6,5.9c-1,3-4.6,7-12.7,7c-5.7,0-9.9-1.7-12-5c-1.2-1.9-1.6-3.4-1.6-7
						v-26H257.8z"/>
					<path class="st3" d="M305.8,99.8c-3.4-2-5.9-2.8-8.7-2.8c-3.1,0-5.2,1.8-5.2,4.3c0,1.9,1,2.9,4.1,3.8l4.5,1.2
						c6.1,1.7,9.4,5.6,9.4,11.1c0,7.6-6.1,12.6-15.4,12.6c-4.2,0-9-1.2-12.7-3.4l2.8-5.9c3.5,1.8,6.5,3,10.3,3
						c4.3,0,6.6-1.8,6.6-5.1c0-2.4-1.6-3.9-4.9-4.8l-4.1-1.1c-3.7-1-6-2.5-7.4-4.7c-1-1.7-1.6-3.6-1.6-5.7c0-6.8,5.5-11.5,13.4-11.5
						c4.6,0,9.2,1.4,12.5,3.8L305.8,99.8z"/>
					<path class="st0" d="M208.5,105.3c-1.9,0-3.6-0.5-5.1-1.3h0v25.1h10.3V104h0C212.1,104.9,210.4,105.3,208.5,105.3"/>
					<path class="st0" d="M202.1,94.9c0-3.5,2.9-6.4,6.4-6.4c3.5,0,6.4,2.9,6.4,6.4c0,3.5-2.9,6.4-6.4,6.4
						C205,101.3,202.1,98.5,202.1,94.9"/>
					<polygon class="st3" points="198.1,91.8 198.1,98 189,98 189,129.1 181.4,129.1 181.4,98 172.2,98 172.2,91.8 					"/>
					<polygon class="st3" points="244.8,91.8 244.8,98 235.6,98 235.6,129.1 228,129.1 228,98 218.9,98 218.9,91.8 					"/>
				</g>
			</g>
		</g>
		<g>
			<path class="st3" d="M336.2,131.7c-1.8,0-3.5-0.2-5.1-0.7c-1.5-0.5-2.9-1.2-4-2.2c-1.1-1-2-2.2-2.6-3.7c-0.6-1.5-0.9-3.2-0.9-5.2
				c0-2.1,0.3-4,1-5.5c0.7-1.5,1.6-2.7,2.7-3.7c1.1-0.9,2.4-1.6,3.9-2.1c1.5-0.4,3.1-0.7,4.7-0.7c1.2,0,2.5,0.1,3.7,0.4
				c1.2,0.3,2.5,0.7,3.7,1.4v6h-0.9c-0.3-0.3-0.6-0.6-1-0.9c-0.4-0.3-0.8-0.6-1.3-0.9c-0.5-0.3-1.1-0.5-1.7-0.7
				c-0.6-0.2-1.3-0.3-2.1-0.3c-1.8,0-3.2,0.6-4.1,1.9c-1,1.2-1.5,2.9-1.5,5c0,2.2,0.5,3.9,1.6,5c1,1.1,2.4,1.7,4.2,1.7
				c0.9,0,1.6-0.1,2.3-0.3c0.7-0.2,1.2-0.4,1.7-0.7c0.5-0.3,0.9-0.6,1.2-0.9c0.3-0.3,0.6-0.6,0.9-0.8h0.9v6
				c-0.4,0.2-0.9,0.4-1.4,0.6c-0.5,0.2-1.1,0.4-1.6,0.6c-0.7,0.2-1.3,0.3-1.9,0.4C338,131.6,337.2,131.7,336.2,131.7z"/>
			<path class="st3" d="M368.2,119.9c0,3.7-1,6.6-3,8.7c-2,2.1-4.9,3.2-8.5,3.2c-3.7,0-6.5-1.1-8.5-3.2c-2-2.1-3-5-3-8.7
				c0-3.7,1-6.6,3-8.7c2-2.1,4.9-3.2,8.5-3.2c3.7,0,6.5,1.1,8.5,3.2C367.2,113.3,368.2,116.2,368.2,119.9z M361.1,120
				c0-1.3-0.1-2.4-0.3-3.3c-0.2-0.9-0.5-1.6-0.9-2.1c-0.4-0.6-0.9-0.9-1.4-1.2c-0.5-0.2-1.1-0.3-1.8-0.3c-0.6,0-1.2,0.1-1.7,0.3
				c-0.5,0.2-1,0.6-1.4,1.1c-0.4,0.5-0.7,1.2-1,2.1c-0.2,0.9-0.4,2-0.4,3.4c0,1.4,0.1,2.5,0.3,3.3c0.2,0.8,0.5,1.5,0.9,2
				c0.4,0.5,0.8,0.9,1.4,1.1c0.6,0.2,1.2,0.4,1.9,0.4c0.6,0,1.1-0.1,1.7-0.4c0.6-0.2,1-0.6,1.4-1.1c0.4-0.6,0.7-1.3,0.9-2.1
				C361,122.5,361.1,121.4,361.1,120z"/>
			<path class="st3" d="M396.4,131.1v-11.2c0-1.1,0-2-0.1-2.8c0-0.8-0.2-1.4-0.4-1.9c-0.2-0.5-0.5-0.8-0.9-1c-0.4-0.2-1-0.3-1.8-0.3
				c-0.5,0-1.1,0.1-1.6,0.3c-0.5,0.2-1.1,0.6-1.7,1v15.9h-7v-11.2c0-1.1,0-2-0.1-2.8c0-0.8-0.2-1.4-0.4-1.9c-0.2-0.5-0.5-0.8-0.9-1
				c-0.4-0.2-1-0.3-1.7-0.3c-0.6,0-1.1,0.1-1.7,0.4c-0.5,0.3-1.1,0.6-1.6,0.9v15.9h-7v-22.4h7v2.5c1.1-1,2.2-1.7,3.2-2.3
				c1-0.5,2.1-0.8,3.4-0.8c1.4,0,2.6,0.3,3.6,1c1,0.7,1.8,1.6,2.4,2.9c1.3-1.2,2.6-2.2,3.8-2.9c1.2-0.7,2.4-1,3.6-1
				c1,0,2,0.2,2.8,0.5c0.8,0.3,1.5,0.8,2.1,1.5c0.6,0.7,1.1,1.6,1.4,2.6c0.3,1,0.5,2.3,0.5,3.9v14.6H396.4z"/>
		</g>
	</g>
</g>
<g>
	<path class="st4" d="M110.1,150h2.5v15.5h7.9v2.1h-10.4V150z"/>
	<path class="st4" d="M129.5,159.7h0.5v-0.2c0-2.1-1.2-2.8-2.8-2.8c-1.9,0-3.5,1.2-3.5,1.2l-1-1.8c0,0,1.8-1.5,4.7-1.5
		c3.2,0,5,1.7,5,4.9v8h-2.2v-1.2c0-0.6,0-1,0-1h0c0,0-1,2.5-4,2.5c-2.2,0-4.3-1.3-4.3-3.8C121.9,159.9,127.4,159.7,129.5,159.7z
		 M126.7,166c2,0,3.4-2.1,3.4-4v-0.4h-0.6c-1.8,0-5.1,0.1-5.1,2.4C124.3,165,125.1,166,126.7,166z"/>
	<path class="st4" d="M143.5,157.1h-1.6v-1.9h1.6v-0.6c0-4.2,3.1-4.7,4.7-4.7c0.5,0,0.9,0.1,0.9,0.1v2.1c0,0-0.2,0-0.6,0
		c-0.9,0-2.6,0.3-2.6,2.6v0.5h3v1.9h-3v10.5h-2.4V157.1z"/>
	<path class="st4" d="M156.8,154.7c3.6,0,5.5,2.6,5.5,5.9c0,0.3-0.1,1-0.1,1H153c0.1,2.8,2.1,4.2,4.3,4.2c2.2,0,3.7-1.5,3.7-1.5
		l1,1.8c0,0-1.9,1.8-4.9,1.8c-4,0-6.7-2.9-6.7-6.6C150.5,157.3,153.2,154.7,156.8,154.7z M159.8,159.8c-0.1-2.2-1.4-3.2-3-3.2
		c-1.8,0-3.3,1.1-3.7,3.2H159.8z"/>
	<path class="st4" d="M165.4,155h2.3v2.2c0,0.5,0,0.9,0,0.9h0c0.6-1.8,2-3.3,4-3.3c0.3,0,0.6,0,0.6,0v2.4c0,0-0.3-0.1-0.7-0.1
		c-1.5,0-3,1.1-3.5,3c-0.2,0.7-0.3,1.5-0.3,2.3v5.2h-2.4V155z"/>
	<path class="st4" d="M174.9,150h2.4v2.5h-2.4V150z M174.9,155h2.4v12.6h-2.4V155z"/>
	<path class="st4" d="M187.8,159.7h0.5v-0.2c0-2.1-1.2-2.8-2.8-2.8c-1.9,0-3.5,1.2-3.5,1.2l-1-1.8c0,0,1.8-1.5,4.7-1.5
		c3.2,0,5,1.7,5,4.9v8h-2.2v-1.2c0-0.6,0-1,0-1h0c0,0-1,2.5-4,2.5c-2.2,0-4.3-1.3-4.3-3.8C180.2,159.9,185.7,159.7,187.8,159.7z
		 M185,166c2,0,3.4-2.1,3.4-4v-0.4h-0.6c-1.8,0-5.1,0.1-5.1,2.4C182.7,165,183.5,166,185,166z"/>
	<path class="st4" d="M199.4,155h2.6l3.1,8.5c0.2,0.7,0.4,1.7,0.4,1.7h0c0,0,0.2-1,0.4-1.7l3.1-8.5h2.5l-4.7,12.6h-2.8L199.4,155z"
		/>
	<path class="st4" d="M213.8,150h2.4v2.5h-2.4V150z M213.8,155h2.4v12.6h-2.4V155z"/>
	<path class="st4" d="M220.2,155h2.3v2.2c0,0.5,0,0.9,0,0.9h0c0.6-1.8,2-3.3,4-3.3c0.3,0,0.6,0,0.6,0v2.4c0,0-0.3-0.1-0.7-0.1
		c-1.5,0-3,1.1-3.5,3c-0.2,0.7-0.3,1.5-0.3,2.3v5.2h-2.4V155z"/>
	<path class="st4" d="M230.2,157.1h-1.6v-1.9h1.7v-3.6h2.3v3.6h3v1.9h-3v5.6c0,2.5,1.8,2.8,2.7,2.8c0.3,0,0.6,0,0.6,0v2.1
		c0,0-0.3,0-0.8,0c-1.6,0-4.8-0.5-4.8-4.7V157.1z"/>
	<path class="st4" d="M238.6,155h2.4v7.5c0,1.7,0.3,3.1,2.4,3.1c2.6,0,4.1-2.3,4.1-4.8V155h2.4v12.6h-2.3V166c0-0.5,0-0.9,0-0.9h0
		c-0.5,1.2-2.2,2.9-4.6,2.9c-2.8,0-4.3-1.5-4.3-4.8V155z"/>
	<path class="st4" d="M260.5,159.7h0.5v-0.2c0-2.1-1.2-2.8-2.8-2.8c-1.9,0-3.5,1.2-3.5,1.2l-1-1.8c0,0,1.8-1.5,4.7-1.5
		c3.2,0,5,1.7,5,4.9v8h-2.2v-1.2c0-0.6,0-1,0-1h0c0,0-1,2.5-4,2.5c-2.2,0-4.3-1.3-4.3-3.8C252.8,159.9,258.3,159.7,260.5,159.7z
		 M257.7,166c2,0,3.4-2.1,3.4-4v-0.4h-0.6c-1.8,0-5.1,0.1-5.1,2.4C255.3,165,256.1,166,257.7,166z"/>
	<path class="st4" d="M267,150h2.4v13.8c0,1.5,0.6,1.8,1.3,1.8c0.2,0,0.4,0,0.4,0v2.1c0,0-0.4,0-0.8,0c-1.4,0-3.4-0.4-3.4-3.5V150z"
		/>
	<path class="st4" d="M285.4,154.7c2.9,0,3.9,2,3.9,2h0c0,0,0-0.4,0-0.8V150h2.4v17.6h-2.3v-1.2c0-0.5,0-0.8,0-0.8h0
		c0,0-1,2.3-4.1,2.3c-3.4,0-5.6-2.7-5.6-6.6C279.7,157.3,282.1,154.7,285.4,154.7z M285.7,165.8c1.9,0,3.6-1.3,3.6-4.5
		c0-2.2-1.2-4.5-3.6-4.5c-2,0-3.6,1.6-3.6,4.5C282.2,164.1,283.6,165.8,285.7,165.8z"/>
	<path class="st4" d="M301.1,154.7c3.6,0,5.5,2.6,5.5,5.9c0,0.3-0.1,1-0.1,1h-9.2c0.1,2.8,2.1,4.2,4.3,4.2c2.2,0,3.7-1.5,3.7-1.5
		l1,1.8c0,0-1.9,1.8-4.9,1.8c-4,0-6.7-2.9-6.7-6.6C294.8,157.3,297.5,154.7,301.1,154.7z M304.1,159.8c-0.1-2.2-1.4-3.2-3-3.2
		c-1.8,0-3.3,1.1-3.7,3.2H304.1z"/>
	<path class="st4" d="M316.8,157.1h-1.6v-1.9h1.7v-3.6h2.3v3.6h3v1.9h-3v5.6c0,2.5,1.8,2.8,2.7,2.8c0.3,0,0.6,0,0.6,0v2.1
		c0,0-0.3,0-0.8,0c-1.6,0-4.8-0.5-4.8-4.7V157.1z"/>
	<path class="st4" d="M325.3,155h2.3v2.2c0,0.5,0,0.9,0,0.9h0c0.6-1.8,2-3.3,4-3.3c0.3,0,0.6,0,0.6,0v2.4c0,0-0.3-0.1-0.7-0.1
		c-1.5,0-3,1.1-3.5,3c-0.2,0.7-0.3,1.5-0.3,2.3v5.2h-2.4V155z"/>
	<path class="st4" d="M341.4,159.7h0.5v-0.2c0-2.1-1.2-2.8-2.8-2.8c-1.9,0-3.5,1.2-3.5,1.2l-1-1.8c0,0,1.8-1.5,4.7-1.5
		c3.2,0,5,1.7,5,4.9v8h-2.2v-1.2c0-0.6,0-1,0-1h0c0,0-1,2.5-4,2.5c-2.2,0-4.3-1.3-4.3-3.8C333.8,159.9,339.3,159.7,341.4,159.7z
		 M338.6,166c2,0,3.4-2.1,3.4-4v-0.4h-0.6c-1.8,0-5.1,0.1-5.1,2.4C336.3,165,337.1,166,338.6,166z"/>
	<path class="st4" d="M348.2,150h2.4v5.8c0,0.6,0,1.1,0,1.1h0c0,0,1.1-2.1,4-2.1c3.4,0,5.5,2.7,5.5,6.6c0,4-2.4,6.6-5.7,6.6
		c-2.8,0-4-2.2-4-2.2h-0.1c0,0,0.1,0.4,0.1,0.9v0.9h-2.3V150z M354.1,165.9c2,0,3.6-1.6,3.6-4.5c0-2.7-1.5-4.5-3.6-4.5
		c-1.9,0-3.6,1.3-3.6,4.5C350.5,163.6,351.7,165.9,354.1,165.9z"/>
	<path class="st4" d="M369.9,159.7h0.5v-0.2c0-2.1-1.2-2.8-2.8-2.8c-1.9,0-3.5,1.2-3.5,1.2l-1-1.8c0,0,1.8-1.5,4.7-1.5
		c3.2,0,5,1.7,5,4.9v8h-2.2v-1.2c0-0.6,0-1,0-1h0c0,0-1,2.5-4,2.5c-2.2,0-4.3-1.3-4.3-3.8C362.3,159.9,367.8,159.7,369.9,159.7z
		 M367.1,166c2,0,3.4-2.1,3.4-4v-0.4h-0.6c-1.8,0-5.1,0.1-5.1,2.4C364.7,165,365.5,166,367.1,166z"/>
	<path class="st4" d="M379,155v13.1c0,4.2-3.2,4.7-4.8,4.7c-0.5,0-0.8,0-0.8,0v-2.1c0,0,0.2,0,0.5,0c0.9,0,2.7-0.3,2.7-2.8V155H379z
		 M376.6,150h2.4v2.5h-2.4V150z"/>
	<path class="st4" d="M388.9,154.7c3.8,0,6.8,2.8,6.8,6.6c0,3.8-3,6.6-6.8,6.6c-3.8,0-6.8-2.8-6.8-6.6
		C382.1,157.5,385.1,154.7,388.9,154.7z M388.9,165.8c2.4,0,4.3-1.9,4.3-4.5c0-2.6-1.9-4.5-4.3-4.5c-2.4,0-4.3,1.9-4.3,4.5
		C384.5,163.9,386.5,165.8,388.9,165.8z"/>
	<path class="st4" d="M109.6,183.5h2.3v1.7c0,0.5,0,0.9,0,0.9h0c0.6-1.5,2.4-2.9,4.3-2.9c2.1,0,3.4,1,3.8,2.9h0
		c0.7-1.5,2.4-2.9,4.5-2.9c2.8,0,4.2,1.6,4.2,4.8v8.1h-2.4v-7.6c0-1.8-0.3-3.2-2.2-3.2c-1.8,0-3.1,1.5-3.5,3.2
		c-0.1,0.5-0.2,1.1-0.2,1.7v5.8H118v-7.6c0-1.6-0.2-3.2-2.2-3.2c-1.8,0-3.1,1.5-3.6,3.3c-0.1,0.5-0.1,1.1-0.1,1.6v5.8h-2.4V183.5z"
		/>
	<path class="st4" d="M139.1,188.3h0.5V188c0-2.1-1.2-2.8-2.8-2.8c-1.9,0-3.5,1.2-3.5,1.2l-1-1.8c0,0,1.8-1.5,4.7-1.5
		c3.2,0,5,1.7,5,4.9v8h-2.2V195c0-0.6,0-1,0-1h0c0,0-1,2.5-4,2.5c-2.2,0-4.3-1.3-4.3-3.8C131.5,188.4,137,188.3,139.1,188.3z
		 M136.3,194.5c2,0,3.4-2.1,3.4-4v-0.4h-0.6c-1.8,0-5.1,0.1-5.1,2.4C134,193.5,134.8,194.5,136.3,194.5z M137.9,178.5h2.6l-2.4,3.2
		h-2L137.9,178.5z"/>
	<path class="st4" d="M146,192.9c0,0,1.4,1.5,3.6,1.5c1,0,2.1-0.5,2.1-1.6c0-2.3-6.5-1.8-6.5-6c0-2.3,2-3.6,4.6-3.6
		c2.8,0,4.1,1.4,4.1,1.4l-1,1.8c0,0-1.1-1.1-3.1-1.1c-1,0-2.1,0.4-2.1,1.5c0,2.3,6.5,1.8,6.5,5.9c0,2.1-1.8,3.7-4.6,3.7
		c-3.1,0-4.8-1.8-4.8-1.8L146,192.9z"/>
	<path class="st4" d="M168.4,199.3c2.2,0,4-1,4-3.5v-0.9c0-0.4,0-0.8,0-0.8h-0.1c-0.7,1.2-1.9,2-3.7,2c-3.5,0-5.6-2.8-5.6-6.5
		c0-3.6,2-6.3,5.5-6.3c3,0,4,1.9,4,1.9h0c0,0,0-0.2,0-0.4v-1.2h2.3v12.1c0,4.2-3.2,5.8-6.4,5.8c-1.5,0-3.1-0.4-4.3-1l0.8-1.9
		C164.9,198.5,166.5,199.3,168.4,199.3z M172.4,189.6c0-3.3-1.6-4.2-3.6-4.2c-2.2,0-3.4,1.6-3.4,4.2c0,2.6,1.4,4.4,3.7,4.4
		C170.8,193.9,172.4,192.9,172.4,189.6z"/>
	<path class="st4" d="M178.7,183.5h2.3v2.2c0,0.5,0,0.9,0,0.9h0c0.6-1.8,2-3.3,4-3.3c0.3,0,0.6,0,0.6,0v2.4c0,0-0.3-0.1-0.7-0.1
		c-1.5,0-3,1.1-3.5,3c-0.2,0.7-0.3,1.5-0.3,2.3v5.2h-2.4V183.5z"/>
	<path class="st4" d="M194.8,188.3h0.5V188c0-2.1-1.2-2.8-2.8-2.8c-1.9,0-3.5,1.2-3.5,1.2l-1-1.8c0,0,1.8-1.5,4.7-1.5
		c3.2,0,5,1.7,5,4.9v8h-2.2V195c0-0.6,0-1,0-1h0c0,0-1,2.5-4,2.5c-2.2,0-4.3-1.3-4.3-3.8C187.2,188.4,192.7,188.3,194.8,188.3z
		 M192,194.5c2,0,3.4-2.1,3.4-4v-0.4h-0.6c-1.8,0-5.1,0.1-5.1,2.4C189.7,193.5,190.5,194.5,192,194.5z"/>
	<path class="st4" d="M201.6,183.5h2.3v1.7c0,0.5,0,0.9,0,0.9h0c0.5-1.1,2-2.9,4.7-2.9c3,0,4.3,1.6,4.3,4.8v8.1h-2.4v-7.5
		c0-1.8-0.4-3.2-2.4-3.2c-1.9,0-3.5,1.3-4,3.1c-0.1,0.5-0.2,1.1-0.2,1.7v5.9h-2.4V183.5z"/>
	<path class="st4" d="M221.7,183.2c2.9,0,3.9,2,3.9,2h0c0,0,0-0.4,0-0.8v-5.8h2.4v17.6h-2.3V195c0-0.5,0-0.8,0-0.8h0
		c0,0-1,2.3-4.1,2.3c-3.4,0-5.6-2.7-5.6-6.6C215.9,185.8,218.3,183.2,221.7,183.2z M222,194.4c1.9,0,3.6-1.3,3.6-4.5
		c0-2.2-1.2-4.5-3.6-4.5c-2,0-3.6,1.6-3.6,4.5C218.4,192.6,219.9,194.4,222,194.4z"/>
	<path class="st4" d="M237.4,183.2c3.6,0,5.5,2.6,5.5,5.9c0,0.3-0.1,1-0.1,1h-9.2c0.1,2.8,2.1,4.2,4.3,4.2c2.2,0,3.7-1.5,3.7-1.5
		l1,1.8c0,0-1.9,1.8-4.9,1.8c-4,0-6.7-2.9-6.7-6.6C231,185.8,233.8,183.2,237.4,183.2z M240.4,188.4c-0.1-2.2-1.4-3.2-3-3.2
		c-1.8,0-3.3,1.1-3.7,3.2H240.4z"/>
	<path class="st4" d="M257.4,183.2c2.9,0,3.9,2,3.9,2h0c0,0,0-0.4,0-0.8v-5.8h2.4v17.6h-2.3V195c0-0.5,0-0.8,0-0.8h0
		c0,0-1,2.3-4.1,2.3c-3.4,0-5.6-2.7-5.6-6.6C251.7,185.8,254,183.2,257.4,183.2z M257.7,194.4c1.9,0,3.6-1.3,3.6-4.5
		c0-2.2-1.2-4.5-3.6-4.5c-2,0-3.6,1.6-3.6,4.5C254.1,192.6,255.6,194.4,257.7,194.4z"/>
	<path class="st4" d="M273.1,183.2c3.6,0,5.5,2.6,5.5,5.9c0,0.3-0.1,1-0.1,1h-9.2c0.1,2.8,2.1,4.2,4.3,4.2c2.2,0,3.7-1.5,3.7-1.5
		l1,1.8c0,0-1.9,1.8-4.9,1.8c-4,0-6.7-2.9-6.7-6.6C266.8,185.8,269.5,183.2,273.1,183.2z M276.1,188.4c-0.1-2.2-1.4-3.2-3-3.2
		c-1.8,0-3.3,1.1-3.7,3.2H276.1z"/>
	<path class="st4" d="M281.5,178.5h2.4v13.8c0,1.5,0.6,1.8,1.3,1.8c0.2,0,0.4,0,0.4,0v2.1c0,0-0.4,0.1-0.8,0.1
		c-1.4,0-3.4-0.4-3.4-3.5V178.5z"/>
	<path class="st4" d="M295.5,178.5h6.4c3.2,0,5.5,2.2,5.5,5.5c0,3.3-2.3,5.6-5.5,5.6h-4v6.5h-2.5V178.5z M301.5,187.5
		c2.1,0,3.4-1.3,3.4-3.4c0-2.1-1.3-3.4-3.4-3.4H298v6.8H301.5z"/>
	<path class="st4" d="M315.7,183.2c3.6,0,5.5,2.6,5.5,5.9c0,0.3-0.1,1-0.1,1h-9.2c0.1,2.8,2.1,4.2,4.3,4.2c2.2,0,3.7-1.5,3.7-1.5
		l1,1.8c0,0-1.9,1.8-4.9,1.8c-4,0-6.7-2.9-6.7-6.6C309.4,185.8,312.1,183.2,315.7,183.2z M318.7,188.4c-0.1-2.2-1.4-3.2-3-3.2
		c-1.8,0-3.3,1.1-3.7,3.2H318.7z"/>
	<path class="st4" d="M324.3,183.5h2.3v2.2c0,0.5-0.1,0.9-0.1,0.9h0.1c0.6-1.8,2-3.3,4-3.3c0.3,0,0.6,0,0.6,0v2.4
		c0,0-0.3-0.1-0.7-0.1c-1.5,0-3,1.1-3.5,3c-0.2,0.7-0.3,1.5-0.3,2.3v5.2h-2.4V183.5z"/>
	<path class="st4" d="M333.6,183.5h2.4v7.5c0,1.7,0.3,3.1,2.4,3.1c2.6,0,4.1-2.3,4.1-4.8v-5.9h2.4v12.6h-2.3v-1.7c0-0.5,0-0.9,0-0.9
		h0c-0.5,1.2-2.2,2.9-4.6,2.9c-2.8,0-4.3-1.5-4.3-4.8V183.5z M340,178.5h2.6l-2.4,3.2h-2L340,178.5z"/>
</g>
</svg>
